{"glyphs":{"0":{"ha":847,"x_min":0,"x_max":0,"o":"m 510 1008 b 365 976 456 1008 408 998 b 253 890 323 955 285 926 b 169 765 220 854 193 813 b 113 617 146 718 128 669 b 82 459 99 565 88 512 b 72 307 75 406 72 355 b 89 177 72 261 78 217 b 141 72 100 137 117 102 b 232 1 165 43 195 19 b 365 -25 269 -16 313 -25 b 511 7 420 -25 469 -14 b 623 92 554 28 591 57 b 704 216 655 128 682 169 b 758 363 726 263 744 312 b 788 519 772 415 782 467 b 797 669 794 572 797 622 b 781 799 797 715 792 758 b 731 908 771 841 754 877 b 642 981 709 939 679 963 b 510 1008 606 999 562 1008 z m 496 871 b 558 853 521 871 542 865 b 599 806 575 842 588 826 b 620 735 609 785 616 762 b 626 649 624 708 626 679 b 608 454 626 583 620 518 b 557 283 596 390 579 333 b 478 162 535 233 508 193 b 376 115 447 131 413 115 b 313 133 351 115 330 121 b 270 181 295 144 281 160 b 247 251 259 201 252 225 b 240 338 243 278 240 307 b 259 531 240 402 247 467 b 311 702 272 594 289 652 b 392 824 333 753 360 793 b 496 871 423 855 458 871 z "},"1":{"ha":847,"x_min":0,"x_max":0,"o":"m 313 0 l 476 0 l 650 983 l 492 983 l 151 750 l 229 625 l 451 785 z "},"2":{"ha":847,"x_min":0,"x_max":0,"o":"m 699 150 l 265 150 l 569 400 b 666 484 606 430 638 458 b 738 564 694 510 718 537 b 783 649 758 591 773 619 b 799 750 794 679 799 713 b 778 853 799 787 792 822 b 718 935 764 885 744 913 b 623 989 692 958 660 976 b 494 1008 585 1002 543 1008 b 285 945 418 1008 348 987 b 146 756 223 903 176 840 l 296 713 b 368 828 312 763 336 801 b 483 869 400 856 439 869 b 592 835 531 869 567 858 b 629 738 617 812 629 779 b 597 636 629 703 619 669 b 485 518 576 603 538 563 l 46 150 l 19 0 l 672 0 z "},"3":{"ha":847,"x_min":0,"x_max":0,"o":"m 368 578 l 368 578 l 321 578 l 299 447 l 340 447 b 417 439 366 447 392 444 b 485 412 443 433 465 424 b 532 362 504 399 520 383 b 550 286 544 341 550 316 b 502 163 550 235 534 194 b 363 117 470 132 424 117 b 249 148 317 117 279 127 b 189 240 219 169 199 200 l 35 192 b 149 32 56 123 94 70 b 353 -25 203 -6 271 -25 b 499 -3 406 -25 454 -18 b 615 61 544 12 583 33 b 692 164 648 89 673 123 b 719 303 710 205 719 251 b 676 435 719 353 705 397 b 558 510 647 474 607 499 l 558 513 b 631 540 583 518 608 527 b 694 588 655 552 676 568 b 740 660 713 608 728 632 b 757 757 751 688 757 720 b 735 863 757 796 750 831 b 674 942 720 894 700 920 b 584 991 648 963 618 979 b 475 1008 550 1003 514 1008 b 294 966 408 1008 348 994 b 163 835 240 938 196 894 l 285 761 b 356 843 304 796 328 824 b 461 872 383 863 419 872 b 559 838 503 872 535 861 b 594 751 583 814 594 786 b 542 625 594 699 577 656 b 368 578 506 594 449 578 z "},"4":{"ha":847,"x_min":0,"x_max":0,"o":"m 610 206 l 744 206 l 769 346 l 631 346 l 743 983 l 535 983 l 19 357 l -7 206 l 451 206 l 417 0 l 575 0 z m 557 810 l 474 346 l 186 346 l 551 810 z "},"5":{"ha":847,"x_min":0,"x_max":0,"o":"m 317 622 l 364 838 l 742 838 l 771 983 l 246 983 l 139 442 b 248 485 172 460 209 475 b 360 501 287 496 325 501 b 432 491 385 501 409 498 b 494 460 455 484 476 474 b 538 406 512 446 526 428 b 554 326 549 383 554 357 b 540 243 554 297 550 269 b 501 176 531 217 518 195 b 437 133 484 158 462 143 b 349 117 411 122 382 117 b 240 149 306 117 270 127 b 176 233 209 170 188 198 l 28 172 b 72 95 37 144 52 119 b 144 33 91 72 116 51 b 239 -10 172 15 204 0 b 354 -25 274 -20 313 -25 b 490 -3 400 -25 446 -18 b 608 65 534 12 573 35 b 691 181 642 96 670 134 b 722 344 712 227 722 281 b 694 479 722 397 713 442 b 623 569 676 516 652 546 b 526 619 594 591 561 608 b 421 635 490 629 455 635 b 365 631 403 635 385 634 b 317 622 346 629 330 626 z "},"6":{"ha":847,"x_min":0,"x_max":0,"o":"m 194 274 b 210 360 194 304 200 333 b 253 430 220 387 234 410 b 322 476 271 450 294 465 b 413 493 349 488 379 493 b 472 483 433 493 453 490 b 524 451 492 476 509 465 b 560 400 538 438 550 420 b 574 331 569 380 574 356 b 517 172 574 265 555 212 b 364 113 480 132 429 113 b 300 124 342 113 320 116 b 246 156 280 131 262 142 b 208 206 230 169 218 186 b 194 274 199 226 194 249 z m 375 608 l 374 611 l 690 983 l 492 983 l 169 589 b 62 422 119 528 84 472 b 29 274 40 372 29 323 b 54 149 29 227 38 186 b 123 55 71 112 94 80 b 226 -4 152 29 187 10 b 357 -25 266 -18 310 -25 b 519 5 418 -25 472 -15 b 639 85 567 25 606 51 b 713 201 671 118 696 157 b 739 342 730 246 739 293 b 719 447 739 379 732 414 b 663 535 706 481 688 510 b 569 596 638 561 606 581 b 442 618 532 611 490 618 b 406 615 431 618 419 617 b 375 608 394 613 383 611 z "},"7":{"ha":847,"x_min":0,"x_max":0,"o":"m 246 0 l 808 833 l 835 983 l 182 983 l 157 836 l 629 836 l 42 0 z "},"8":{"ha":847,"x_min":0,"x_max":0,"o":"m 229 263 b 244 337 229 289 234 314 b 285 395 253 359 267 379 b 348 433 302 411 323 424 b 429 447 372 443 400 447 b 538 408 474 447 510 434 b 581 300 566 382 581 346 b 530 167 581 247 564 203 b 383 114 496 132 447 114 b 326 122 364 114 345 117 b 277 149 308 128 291 137 b 242 194 263 161 251 176 b 229 263 234 213 229 236 z m 593 506 l 590 510 b 660 541 613 517 637 528 b 724 592 684 554 705 572 b 770 667 743 613 759 638 b 788 767 782 695 788 729 b 764 875 788 808 780 844 b 701 951 748 906 727 931 b 613 994 675 971 646 985 b 511 1008 579 1004 545 1008 b 392 991 470 1008 431 1003 b 288 938 353 979 318 962 b 215 847 258 913 234 883 b 188 717 197 810 188 767 b 221 605 188 674 199 637 b 304 532 243 573 271 549 l 304 528 b 216 495 274 522 244 511 b 141 434 188 479 163 459 b 90 349 119 409 102 381 b 71 246 77 317 71 283 b 99 117 71 194 80 151 b 172 33 118 82 142 55 b 269 -12 201 12 233 -3 b 372 -25 304 -21 339 -25 b 519 -2 425 -25 474 -17 b 635 64 564 13 602 35 b 711 167 667 93 693 127 b 739 300 730 206 739 251 b 697 430 739 350 725 393 b 593 506 669 466 635 492 z m 340 713 b 383 824 340 757 354 794 b 497 868 411 853 449 868 b 594 836 536 868 568 857 b 632 746 619 815 632 785 b 619 679 632 721 628 699 b 583 631 610 660 598 644 b 531 601 569 618 551 608 b 469 590 511 594 491 590 b 376 624 431 590 399 601 b 340 713 352 646 340 675 z "},"9":{"ha":847,"x_min":0,"x_max":0,"o":"m 661 710 b 646 624 661 679 656 650 b 603 553 636 597 621 573 b 534 507 584 534 561 518 b 443 490 507 496 476 490 b 383 501 423 490 403 494 b 332 532 364 508 347 518 b 296 583 317 546 305 563 b 282 653 287 604 282 627 b 338 811 282 719 301 771 b 492 871 376 851 427 871 b 556 860 514 871 535 867 b 610 828 576 852 594 842 b 647 777 625 814 638 797 b 661 710 656 757 661 735 z m 481 375 l 482 372 l 165 0 l 364 0 l 686 394 b 794 561 736 456 772 511 b 826 710 816 611 826 661 b 801 835 826 756 818 798 b 733 928 785 872 762 903 b 629 988 703 954 669 974 b 499 1008 589 1001 546 1008 b 336 978 438 1008 383 998 b 217 899 289 959 249 932 b 142 782 184 865 159 826 b 117 642 125 738 117 691 b 136 536 117 605 123 569 b 193 448 149 503 168 473 b 286 388 218 422 249 402 b 414 365 323 373 366 365 b 449 368 425 365 437 366 b 481 375 462 370 472 372 z "},"\u0000":{"ha":694,"x_min":0,"x_max":0,"o":""},"\r":{"ha":0,"x_min":0,"x_max":0,"o":""}," ":{"ha":347,"x_min":0,"x_max":0,"o":""},"!":{"ha":410,"x_min":0,"x_max":0,"o":"m 103 307 l 265 307 l 385 983 l 222 983 z m 258 100 b 230 173 258 131 249 155 b 160 200 211 191 188 200 b 86 170 132 200 107 190 b 54 94 65 150 54 125 b 84 20 54 62 64 37 b 156 -6 104 3 128 -6 b 228 26 184 -6 209 5 b 258 100 248 47 258 71 z "},"\"":{"ha":625,"x_min":0,"x_max":0,"o":"m 385 618 l 524 618 l 588 983 l 449 983 z m 140 618 l 279 618 l 344 983 l 206 983 z "},"#":{"ha":819,"x_min":0,"x_max":0,"o":"m 640 578 l 782 578 l 803 693 l 678 693 l 771 983 l 651 983 l 558 693 l 414 693 l 506 983 l 386 983 l 293 693 l 151 693 l 132 578 l 257 578 l 201 406 l 61 406 l 40 290 l 167 290 l 74 0 l 193 0 l 286 290 l 432 290 l 339 0 l 458 0 l 553 290 l 692 290 l 711 406 l 586 406 z m 376 578 l 522 578 l 467 406 l 322 406 z "},"$":{"ha":847,"x_min":0,"x_max":0,"o":"m 472 858 l 426 594 b 350 641 392 606 367 622 b 325 715 333 660 325 685 b 367 819 325 761 339 795 b 472 858 396 842 431 856 z m 413 126 l 465 414 b 541 364 498 401 523 384 b 568 279 559 344 568 315 b 526 172 568 235 554 199 b 413 126 497 144 460 129 z m 515 1100 l 497 1000 b 358 973 445 998 399 989 b 253 908 316 957 281 935 b 187 813 224 881 202 850 b 164 694 172 777 164 737 b 183 599 164 658 170 627 b 235 527 196 572 213 548 b 310 474 256 506 281 489 b 399 439 338 460 368 448 l 344 126 b 239 157 307 126 272 137 b 163 232 206 177 180 202 l 29 138 b 153 26 59 88 100 50 b 319 -14 206 2 261 -11 l 301 -117 l 371 -117 l 389 -14 b 533 17 443 -10 491 0 b 642 84 576 34 612 57 b 711 179 672 111 695 143 b 735 297 727 215 735 255 b 719 392 735 333 729 365 b 672 465 708 420 693 444 b 597 523 652 487 627 506 b 492 572 566 540 531 556 l 543 860 b 626 838 575 859 603 851 b 683 786 648 824 668 806 l 807 885 b 709 963 783 917 750 943 b 567 999 668 982 620 994 l 585 1100 z "},"%":{"ha":1254,"x_min":0,"x_max":0,"o":"m 324 492 b 438 515 365 492 403 499 b 528 577 473 530 503 551 b 587 670 553 603 572 634 b 608 786 601 706 608 744 b 592 872 608 817 603 845 b 547 940 582 898 567 921 b 477 984 528 959 504 973 b 386 1000 450 995 419 1000 b 272 977 344 1000 306 992 b 181 915 237 962 206 941 b 120 822 155 888 134 857 b 99 708 106 787 99 749 b 115 623 99 678 104 649 b 162 554 126 597 142 574 b 233 508 182 535 206 519 b 324 492 261 497 291 492 z m 475 767 b 437 658 475 723 462 687 b 333 615 411 630 377 615 b 259 648 302 615 277 626 b 232 725 241 670 232 695 b 271 833 232 769 245 805 b 372 876 297 862 331 876 b 448 844 405 876 430 866 b 475 767 466 822 475 796 z m 892 -15 b 1006 8 933 -15 972 -8 b 1096 70 1041 23 1071 44 b 1155 163 1121 97 1141 128 b 1176 279 1169 199 1176 238 b 1160 365 1176 310 1171 338 b 1115 433 1150 391 1135 414 b 1045 477 1096 452 1072 466 b 954 493 1018 488 988 493 b 840 470 913 493 874 485 b 749 408 805 455 775 434 b 688 315 723 381 703 350 b 667 201 674 280 667 242 b 683 116 667 171 672 142 b 730 47 694 90 710 67 b 801 1 750 28 774 13 b 892 -15 829 -10 859 -15 z m 1043 260 b 1005 151 1043 216 1030 180 b 901 108 979 123 945 108 b 827 141 870 108 845 119 b 800 218 809 163 800 188 b 839 326 800 262 813 298 b 940 369 865 355 899 369 b 1016 337 973 369 998 359 b 1043 260 1034 315 1043 289 z m 301 -46 l 1061 974 l 975 1028 l 215 8 z "},"&":{"ha":1026,"x_min":0,"x_max":0,"o":"m 382 446 l 554 236 b 463 154 525 201 495 174 b 354 125 431 135 395 125 b 297 135 334 125 315 128 b 249 162 278 141 263 150 b 217 204 236 173 225 188 b 206 258 209 221 206 239 b 219 326 206 283 210 306 b 257 378 229 346 241 363 b 313 417 273 393 291 406 b 382 446 335 428 358 438 z m 614 775 b 601 723 614 756 609 739 b 565 678 592 707 580 692 b 511 640 549 664 531 651 b 446 610 491 628 469 618 b 407 674 431 626 418 648 b 390 750 396 701 390 726 b 424 840 390 786 402 816 b 514 876 447 864 477 876 b 588 849 545 876 570 867 b 614 775 605 830 614 806 z m 651 350 l 521 508 b 701 624 597 542 657 580 b 768 782 746 667 768 720 b 748 878 768 818 761 850 b 694 949 734 906 716 929 b 613 993 671 968 644 983 b 511 1008 581 1003 547 1008 b 404 990 473 1008 438 1002 b 317 936 371 977 342 959 b 259 852 293 913 273 885 b 238 742 245 819 238 782 b 255 642 238 706 243 673 b 300 554 266 610 281 581 b 197 505 264 540 230 524 b 113 438 165 486 137 464 b 57 351 90 413 71 384 b 36 244 43 319 36 283 b 59 130 36 201 44 163 b 122 47 74 97 95 69 b 218 -3 149 25 181 8 b 340 -19 255 -14 296 -19 b 496 12 393 -19 445 -9 b 653 124 547 33 599 70 l 750 0 l 953 0 l 749 240 l 968 519 l 771 519 z "},"'":{"ha":381,"x_min":0,"x_max":0,"o":"m 140 618 l 279 618 l 343 983 l 204 983 z "},"(":{"ha":444,"x_min":0,"x_max":0,"o":"m 140 -215 l 265 -156 b 197 35 236 -98 213 -34 b 172 244 180 105 172 175 b 190 417 172 300 178 357 b 242 595 201 476 219 535 b 331 772 266 655 296 714 b 458 942 367 831 409 887 l 357 1017 b 110 635 245 893 163 766 b 31 243 57 505 31 375 b 59 -2 31 158 40 76 b 140 -215 78 -80 105 -151 z "},")":{"ha":444,"x_min":0,"x_max":0,"o":"m 294 1018 l 169 958 b 238 767 199 901 222 837 b 263 558 254 697 263 628 b 245 386 263 503 257 445 b 192 208 234 327 216 267 b 103 30 169 148 139 89 b -24 -139 67 -29 25 -85 l 78 -214 b 325 167 190 -90 272 37 b 404 560 378 297 404 428 b 376 805 404 645 395 727 b 294 1018 357 883 330 954 z "},"*":{"ha":642,"x_min":0,"x_max":0,"o":"m 433 782 l 433 983 l 324 983 l 324 782 l 131 849 l 96 744 l 290 678 l 169 517 l 257 451 l 375 614 l 496 447 l 586 513 l 465 678 l 658 740 l 624 844 z "},"+":{"ha":925,"x_min":0,"x_max":0,"o":"m 392 492 l 86 492 l 86 350 l 392 350 l 392 44 l 533 44 l 533 350 l 839 350 l 839 492 l 533 492 l 533 797 l 392 797 z "},",":{"ha":361,"x_min":0,"x_max":0,"o":"m 67 -176 l 249 189 l 90 189 l -71 -176 z "},"-":{"ha":444,"x_min":0,"x_max":0,"o":"m 29 272 l 361 272 l 386 411 l 54 411 z "},".":{"ha":361,"x_min":0,"x_max":0,"o":"m 221 100 b 192 173 221 131 211 155 b 122 200 173 191 150 200 b 49 170 94 200 70 190 b 17 94 27 150 17 125 b 47 20 17 62 27 37 b 118 -6 66 3 90 -6 b 191 26 147 -6 171 5 b 221 100 211 47 221 71 z "},"/":{"ha":539,"x_min":0,"x_max":0,"o":"m 15 -65 l 638 1007 l 532 1050 l -90 -24 z "},":":{"ha":417,"x_min":0,"x_max":0,"o":"m 253 100 b 224 173 253 131 243 155 b 154 200 205 191 182 200 b 81 170 126 200 102 190 b 49 94 59 150 49 125 b 78 20 49 62 59 37 b 150 -6 98 3 122 -6 b 223 26 179 -6 203 5 b 253 100 243 47 253 71 z m 332 574 b 303 647 332 604 322 628 b 233 674 284 665 261 674 b 160 644 206 674 181 664 b 128 568 138 624 128 599 b 158 494 128 536 138 511 b 229 468 178 477 201 468 b 302 499 258 468 282 478 b 332 574 322 520 332 545 z "},";":{"ha":417,"x_min":0,"x_max":0,"o":"m 93 -176 l 275 189 l 110 189 l -51 -176 z m 332 574 b 303 647 332 604 322 628 b 233 674 284 665 261 674 b 160 644 206 674 181 664 b 128 568 138 624 128 599 b 158 494 128 536 138 511 b 229 468 178 477 201 468 b 302 499 258 468 282 478 b 332 574 322 520 332 545 z "},"<":{"ha":925,"x_min":0,"x_max":0,"o":"m 111 371 l 814 58 l 814 211 l 344 421 l 814 631 l 814 783 l 111 471 z "},"=":{"ha":925,"x_min":0,"x_max":0,"o":"m 814 617 l 111 617 l 111 475 l 814 475 z m 814 367 l 111 367 l 111 225 l 814 225 z "},">":{"ha":925,"x_min":0,"x_max":0,"o":"m 814 471 l 111 783 l 111 631 l 581 421 l 111 211 l 111 58 l 814 371 z "},"?":{"ha":718,"x_min":0,"x_max":0,"o":"m 558 493 b 637 553 588 513 614 534 b 694 615 659 573 678 594 b 728 683 709 637 721 659 b 740 761 736 706 740 732 b 718 876 740 806 733 845 b 658 953 703 908 683 933 b 569 995 632 972 603 986 b 465 1008 536 1004 501 1008 b 340 988 420 1008 378 1001 b 240 930 302 974 269 954 b 167 844 210 905 186 877 b 126 740 148 812 135 777 l 283 714 b 303 769 287 733 294 752 b 337 816 312 787 323 803 b 385 848 350 829 366 840 b 446 860 403 856 424 860 b 569 749 528 860 569 823 b 560 701 569 731 566 715 b 538 662 554 686 547 673 b 508 631 529 650 519 640 b 476 604 497 621 487 613 l 404 547 b 351 500 384 531 366 515 b 314 454 337 485 324 470 b 290 403 304 438 296 422 b 275 343 284 385 279 365 l 267 289 l 426 289 l 432 325 b 444 377 435 345 439 363 b 467 417 450 391 458 405 b 504 453 477 430 489 442 b 558 493 519 465 537 478 z m 429 100 b 401 173 429 131 420 155 b 331 200 382 191 358 200 b 257 170 303 200 278 190 b 225 94 236 150 225 125 b 255 20 225 62 235 37 b 326 -6 275 3 299 -6 b 399 26 355 -6 379 5 b 429 100 419 47 429 71 z "},"@":{"ha":1111,"x_min":0,"x_max":0,"o":"m 757 222 b 888 251 802 222 846 232 b 997 334 929 271 966 298 b 1072 461 1029 370 1054 412 b 1100 624 1091 510 1100 564 b 1068 785 1100 684 1089 738 b 978 906 1047 833 1017 873 b 835 982 939 939 891 964 b 647 1008 779 1000 717 1008 b 406 960 560 1008 480 992 b 216 828 333 927 269 884 b 91 636 163 773 121 709 b 46 406 61 563 46 486 b 78 231 46 342 56 283 b 172 94 99 178 130 132 b 324 6 213 56 263 27 b 531 -25 384 -15 453 -25 b 760 16 612 -25 689 -11 b 944 132 832 43 894 82 l 885 214 b 732 120 838 174 787 143 b 549 86 677 97 616 86 b 397 108 493 86 443 94 b 281 172 352 123 313 144 b 208 275 249 200 225 234 b 182 414 191 316 182 362 b 214 594 182 476 193 536 b 306 749 235 653 266 704 b 453 857 347 794 395 830 b 649 897 510 884 575 897 b 779 878 696 897 739 891 b 882 824 819 866 853 848 b 949 738 911 801 933 772 b 974 619 966 703 974 664 b 960 511 974 581 969 545 b 924 420 952 477 939 447 b 869 358 908 394 890 373 b 803 335 848 342 826 335 b 772 344 787 335 777 338 b 765 376 768 350 765 361 b 776 428 765 390 769 408 b 794 479 784 449 790 466 l 896 742 l 774 742 l 753 686 l 751 686 b 708 740 748 707 733 725 b 618 763 683 755 653 763 b 490 727 572 763 529 751 b 388 637 450 703 416 673 b 321 515 359 600 337 560 b 297 386 305 471 297 428 b 344 265 297 334 313 294 b 471 222 375 237 417 222 b 576 251 512 222 547 232 b 644 315 606 271 629 292 l 650 315 b 672 249 646 288 654 266 b 757 222 691 231 719 222 z m 686 563 b 672 487 686 538 681 513 b 635 414 663 460 650 436 b 579 358 619 392 600 373 b 511 336 558 344 535 336 b 451 361 481 336 461 344 b 435 417 440 378 435 396 b 450 500 435 444 440 472 b 490 575 460 528 474 553 b 546 629 507 597 525 615 b 607 650 566 643 587 650 b 670 625 638 650 659 642 b 686 563 681 608 686 588 z "},"A":{"ha":928,"x_min":0,"x_max":0,"o":"m 683 0 l 865 0 l 669 983 l 521 983 l -121 0 l 82 0 l 222 226 l 643 226 z m 554 786 l 619 374 l 306 374 z "},"B":{"ha":897,"x_min":0,"x_max":0,"o":"m 550 983 l 208 983 l 35 0 l 383 0 b 552 19 444 0 501 6 b 685 77 603 32 648 52 b 772 172 722 103 751 134 b 803 304 792 210 803 254 b 751 447 803 363 786 410 b 619 514 717 483 673 506 l 619 517 b 776 605 684 532 737 562 b 836 768 816 648 836 702 b 810 869 836 808 828 841 b 744 935 793 896 771 918 b 652 972 716 953 686 965 b 550 983 618 980 584 983 z m 351 842 l 507 842 b 620 817 552 842 590 833 b 665 731 650 800 665 771 b 648 660 665 703 659 679 b 603 613 636 640 622 625 b 544 587 585 600 566 592 b 482 579 522 582 501 579 l 304 579 z m 278 436 l 464 436 b 588 403 518 436 559 425 b 631 313 616 382 631 351 b 612 234 631 282 624 256 b 560 182 599 212 582 195 b 486 153 539 169 514 159 b 399 144 458 147 429 144 l 228 144 z "},"C":{"ha":946,"x_min":0,"x_max":0,"o":"m 896 154 l 786 251 b 667 156 751 208 711 176 b 526 125 622 135 575 125 b 406 149 481 125 441 133 b 317 212 370 164 341 185 b 263 305 294 238 276 269 b 244 419 251 341 244 379 b 274 582 244 475 254 529 b 355 724 293 635 320 682 b 480 824 390 765 431 799 b 640 861 528 849 582 861 b 713 851 667 861 691 858 b 772 826 735 845 755 837 b 817 792 790 816 805 805 b 846 757 829 780 838 768 l 981 858 b 924 919 966 881 947 901 b 845 967 900 938 874 954 b 751 997 816 980 784 990 b 646 1008 717 1005 682 1008 b 418 960 564 1008 488 992 b 234 830 348 928 286 885 b 111 636 182 775 141 710 b 67 397 81 562 67 482 b 99 225 67 334 77 277 b 188 92 120 173 150 129 b 326 6 227 55 273 26 b 506 -25 380 -15 440 -25 b 633 -11 552 -25 594 -20 b 740 27 672 -2 708 11 b 828 84 773 43 802 62 b 896 154 854 106 876 129 z "},"D":{"ha":1051,"x_min":0,"x_max":0,"o":"m 208 983 l 35 0 l 403 0 b 642 41 489 0 569 14 b 832 157 715 68 778 107 b 958 338 886 207 928 267 b 1003 572 988 408 1003 486 b 963 760 1003 645 989 708 b 857 888 936 813 900 855 b 710 960 813 921 764 945 b 544 983 655 976 600 983 z m 231 150 l 351 838 l 503 838 b 647 815 558 838 606 830 b 747 753 687 799 720 779 b 806 661 773 727 793 696 b 825 550 819 626 825 589 b 799 401 825 498 816 448 b 720 273 781 353 755 310 b 590 183 685 235 642 206 b 410 150 538 161 478 150 z "},"E":{"ha":811,"x_min":0,"x_max":0,"o":"m 35 0 l 694 0 l 721 153 l 229 153 l 279 435 l 710 435 l 736 579 l 304 579 l 349 833 l 801 833 l 828 983 l 208 983 z "},"F":{"ha":772,"x_min":0,"x_max":0,"o":"m 353 833 l 790 833 l 817 983 l 208 983 l 35 0 l 206 0 l 279 417 l 690 417 l 715 561 l 304 561 z "},"G":{"ha":1028,"x_min":0,"x_max":0,"o":"m 546 125 b 419 147 499 125 456 132 b 324 208 381 162 350 182 b 265 301 298 234 278 265 b 244 419 251 337 244 377 b 274 582 244 475 254 529 b 355 724 293 635 320 682 b 480 824 390 765 431 799 b 640 861 528 849 582 861 b 774 831 694 861 739 851 b 860 757 810 811 838 787 l 994 858 b 847 972 957 909 908 947 b 646 1008 785 996 718 1008 b 418 960 564 1008 488 992 b 234 830 348 928 286 885 b 111 636 182 775 141 710 b 67 397 81 562 67 482 b 99 225 67 334 78 277 b 191 92 121 173 152 129 b 334 6 230 55 278 26 b 521 -25 390 -15 452 -25 b 708 -4 584 -25 646 -18 b 874 53 769 10 825 29 l 961 561 l 585 561 l 557 413 l 768 413 l 725 163 b 642 135 698 150 671 140 b 546 125 614 129 582 126 z "},"H":{"ha":1013,"x_min":0,"x_max":0,"o":"m 657 0 l 828 0 l 1001 983 l 831 983 l 760 585 l 308 585 l 379 983 l 208 983 l 35 0 l 206 0 l 283 438 l 733 438 z "},"I":{"ha":404,"x_min":0,"x_max":0,"o":"m 35 0 l 206 0 l 379 983 l 208 983 z "},"J":{"ha":694,"x_min":0,"x_max":0,"o":"m 571 317 l 571 317 l 689 983 l 517 983 l 400 322 b 382 244 395 294 389 269 b 352 182 375 220 365 200 b 306 141 340 164 324 151 b 238 126 287 131 264 126 b 161 158 206 126 181 137 b 126 236 142 180 130 206 l -33 190 b 51 35 -25 126 3 75 b 242 -25 100 -5 163 -25 b 391 7 302 -25 352 -14 b 487 89 430 28 462 56 b 542 199 511 122 530 159 b 571 317 555 240 564 279 z "},"K":{"ha":897,"x_min":0,"x_max":0,"o":"m 626 0 l 850 0 l 468 519 l 978 983 l 747 983 l 304 547 l 300 547 l 378 983 l 208 983 l 35 0 l 204 0 l 290 494 l 294 494 z "},"L":{"ha":710,"x_min":0,"x_max":0,"o":"m 35 0 l 626 0 l 653 153 l 232 153 l 379 983 l 208 983 z "},"M":{"ha":1278,"x_min":0,"x_max":0,"o":"m 925 0 l 1094 0 l 1267 983 l 996 983 l 611 279 l 608 279 l 475 983 l 208 983 l 35 0 l 197 0 l 338 793 l 340 793 l 500 0 l 619 0 l 1063 793 l 1067 793 z "},"N":{"ha":1094,"x_min":0,"x_max":0,"o":"m 665 0 l 878 0 l 1051 983 l 881 983 l 750 243 l 747 243 l 431 983 l 208 983 l 35 0 l 206 0 l 340 764 l 343 764 z "},"O":{"ha":1151,"x_min":0,"x_max":0,"o":"m 638 1008 b 411 960 556 1008 481 992 b 231 831 342 928 281 885 b 110 638 180 776 140 712 b 67 401 81 563 67 485 b 100 224 67 336 78 276 b 195 89 122 171 154 126 b 344 4 236 52 286 24 b 540 -25 403 -15 468 -25 b 765 23 622 -25 697 -9 b 943 153 834 55 893 98 b 1060 346 993 207 1032 272 b 1103 582 1089 420 1103 499 b 1069 760 1103 648 1092 707 b 975 894 1047 813 1016 857 b 828 978 934 930 885 959 b 638 1008 772 998 708 1008 z m 540 125 b 413 149 492 125 450 133 b 319 212 375 164 344 185 b 263 305 294 238 275 269 b 243 419 250 341 243 379 b 270 582 243 475 252 529 b 347 724 288 635 314 682 b 469 824 381 765 421 799 b 629 861 516 849 570 861 b 757 838 677 861 720 853 b 850 774 794 822 825 801 b 907 681 875 748 894 717 b 926 567 920 644 926 606 b 901 404 926 511 918 457 b 826 263 884 351 859 304 b 705 163 793 221 753 188 b 540 125 657 138 602 125 z "},"P":{"ha":846,"x_min":0,"x_max":0,"o":"m 504 983 l 208 983 l 35 0 l 204 0 l 276 408 l 425 408 b 593 426 486 408 542 414 b 724 483 644 438 688 457 b 809 582 761 509 789 542 b 839 725 829 622 839 669 b 753 915 839 806 810 870 b 504 983 695 961 613 983 z m 432 553 l 301 553 l 353 839 l 478 839 b 554 833 506 839 531 837 b 614 812 577 828 597 822 b 653 772 631 802 644 789 b 667 707 662 754 667 733 b 649 633 667 677 661 653 b 601 586 638 614 622 598 b 527 560 581 574 556 566 b 432 553 498 555 466 553 z "},"Q":{"ha":1138,"x_min":0,"x_max":0,"o":"m 1078 596 b 1045 768 1078 660 1067 717 b 953 898 1023 819 993 862 b 810 980 913 934 866 961 b 626 1008 755 999 694 1008 b 406 963 548 1008 474 993 b 228 837 338 932 279 890 b 110 649 178 784 138 721 b 67 417 81 576 67 499 b 99 244 67 353 78 295 b 192 113 121 192 152 149 b 335 29 231 76 279 49 b 518 0 390 10 451 0 l 1060 0 l 1085 139 l 846 139 l 846 142 b 919 198 868 156 893 174 b 995 288 946 222 972 251 b 1054 417 1019 324 1038 367 b 1078 596 1070 468 1078 527 z m 903 578 b 875 419 903 523 894 470 b 797 282 856 367 830 322 b 676 186 763 242 722 210 b 522 150 629 162 578 150 b 403 172 478 150 438 157 b 315 233 368 187 338 207 b 260 324 291 259 273 290 b 242 435 248 359 242 396 b 269 592 242 488 251 541 b 346 729 287 644 313 689 b 467 825 379 769 419 801 b 625 861 514 849 567 861 b 744 839 669 861 709 854 b 831 778 778 824 808 804 b 885 689 855 753 873 723 b 903 578 897 655 903 618 z "},"R":{"ha":867,"x_min":0,"x_max":0,"o":"m 785 0 l 581 439 b 769 538 659 456 722 490 b 839 729 816 587 839 650 b 751 916 839 809 809 871 b 500 983 692 961 608 983 l 208 983 l 35 0 l 203 0 l 275 419 l 406 419 l 592 0 z m 428 560 l 300 560 l 350 839 l 474 839 b 611 811 531 839 577 830 b 663 711 645 793 663 759 b 601 596 663 658 642 620 b 428 560 561 572 503 560 z "},"S":{"ha":797,"x_min":0,"x_max":0,"o":"m 654 781 l 779 881 b 724 936 764 902 746 920 b 655 976 703 952 679 965 b 578 1000 630 986 605 994 b 501 1008 552 1006 526 1008 b 362 988 453 1008 407 1002 b 243 929 317 975 277 955 b 160 833 209 903 181 871 b 129 703 140 795 129 752 b 147 604 129 665 135 632 b 194 533 158 576 174 553 b 265 482 215 513 238 496 b 349 444 291 468 319 456 b 417 417 373 436 395 427 b 473 382 438 406 457 395 b 512 337 489 369 502 354 b 526 278 522 320 526 300 b 509 203 526 248 521 223 b 465 155 497 184 483 167 b 403 128 447 142 426 133 b 335 119 381 122 358 119 b 210 151 289 119 248 130 b 126 231 173 172 145 198 l -12 135 b 52 63 5 107 27 83 b 135 14 78 43 105 27 b 228 -15 164 1 196 -9 b 326 -25 261 -22 294 -25 b 464 -8 373 -25 419 -19 b 586 47 509 4 550 22 b 674 144 622 72 651 105 b 707 289 696 184 707 232 b 638 467 707 364 684 423 b 439 581 591 511 525 549 b 340 633 397 596 364 614 b 303 715 315 653 303 680 b 321 786 303 743 309 767 b 366 833 333 806 348 821 b 425 858 384 844 404 853 b 483 867 446 864 466 867 b 581 846 519 867 551 860 b 654 781 611 832 636 810 z "},"T":{"ha":740,"x_min":0,"x_max":0,"o":"m 528 833 l 817 833 l 843 983 l 90 983 l 64 833 l 356 833 l 210 0 l 381 0 z "},"U":{"ha":992,"x_min":0,"x_max":0,"o":"m 879 361 l 879 361 l 989 983 l 817 983 l 708 368 b 685 281 703 339 695 310 b 640 203 675 252 660 226 b 565 147 621 180 596 161 b 451 125 535 132 497 125 b 362 140 416 125 386 130 b 301 179 337 149 317 163 b 267 236 286 196 274 215 b 257 304 260 257 257 280 b 258 336 257 314 257 325 b 263 368 259 347 261 358 l 371 983 l 200 983 l 90 361 b 85 321 88 347 86 334 b 83 282 84 308 83 295 b 108 155 83 235 92 192 b 181 58 125 117 149 85 b 296 -3 212 31 250 11 b 449 -25 341 -18 392 -25 b 617 3 512 -25 568 -16 b 743 81 666 21 708 47 b 830 202 778 114 807 154 b 879 361 853 250 869 303 z "},"V":{"ha":890,"x_min":0,"x_max":0,"o":"m 413 0 l 1010 983 l 817 983 l 379 222 l 374 222 l 275 983 l 94 983 l 254 0 z "},"W":{"ha":1368,"x_min":0,"x_max":0,"o":"m 989 0 l 1465 983 l 1283 983 l 943 256 l 940 256 l 864 983 l 686 983 l 331 256 l 328 256 l 279 983 l 99 983 l 190 0 l 357 0 l 729 743 l 732 743 l 822 0 z "},"X":{"ha":876,"x_min":0,"x_max":0,"o":"m 594 0 l 789 0 l 560 511 l 971 983 l 765 983 l 485 639 l 349 983 l 160 983 l 360 525 l -101 0 l 113 0 l 435 390 z "},"Y":{"ha":799,"x_min":0,"x_max":0,"o":"m 476 426 l 951 983 l 743 983 l 414 567 l 250 983 l 58 983 l 304 426 l 229 0 l 400 0 z "},"Z":{"ha":817,"x_min":0,"x_max":0,"o":"m -56 0 l 708 0 l 736 153 l 197 153 l 840 829 l 868 983 l 178 983 l 151 833 l 618 833 l -29 154 z "},"[":{"ha":444,"x_min":0,"x_max":0,"o":"m -43 -217 l 221 -217 l 240 -110 l 115 -110 l 294 910 l 419 910 l 439 1017 l 174 1017 z "},"\\":{"ha":540,"x_min":0,"x_max":0,"o":"m 119 1053 l 4 1008 l 438 -67 l 553 -25 z "},"]":{"ha":444,"x_min":0,"x_max":0,"o":"m -4 -217 l 260 -217 l 478 1017 l 213 1017 l 194 910 l 319 910 l 139 -110 l 14 -110 z "},"^":{"ha":925,"x_min":0,"x_max":0,"o":"m 96 476 l 260 476 l 461 808 l 665 476 l 829 476 l 519 983 l 406 983 z "},"_":{"ha":694,"x_min":0,"x_max":0,"o":"m 694 -208 l 694 -104 l 0 -104 l 0 -208 z "},"`":{"ha":361,"x_min":0,"x_max":0,"o":"m 342 783 l 204 983 l 21 983 l 217 783 z "},"a":{"ha":749,"x_min":0,"x_max":0,"o":"m 496 422 b 328 413 441 422 385 419 b 174 374 272 406 220 393 b 60 295 127 355 90 329 b 17 163 31 261 17 217 b 36 77 17 128 23 100 b 86 23 49 54 66 36 b 154 -6 106 9 129 0 b 226 -14 179 -11 203 -14 b 443 79 319 -14 391 17 l 446 79 b 438 0 440 51 438 25 l 588 0 b 592 69 588 19 589 42 b 604 150 596 97 600 124 l 653 421 b 657 453 655 430 656 441 b 658 483 658 465 658 475 b 636 578 658 521 651 553 b 577 640 621 604 602 625 b 494 674 553 656 525 667 b 400 685 463 681 431 685 b 251 662 349 685 299 677 b 121 599 202 647 159 625 l 183 489 b 276 537 210 508 241 524 b 376 556 310 549 344 556 b 469 535 417 556 448 549 b 500 465 490 521 500 498 b 499 448 500 460 500 454 b 496 422 499 442 498 433 z m 461 306 l 481 306 l 472 264 b 449 202 468 242 460 221 b 409 152 439 183 425 166 b 352 118 393 138 374 126 b 282 106 330 110 307 106 b 242 110 268 106 255 107 b 207 124 229 113 217 117 b 183 149 197 130 189 139 b 174 189 177 160 174 173 b 201 251 174 215 183 235 b 270 286 219 266 242 278 b 363 302 298 294 329 300 b 461 306 397 304 430 306 z "},"b":{"ha":886,"x_min":0,"x_max":0,"o":"m 289 560 l 286 560 l 378 1050 l 214 1050 l 29 0 l 183 0 l 203 113 l 206 113 b 304 17 228 71 261 39 b 444 -17 348 -6 394 -17 b 592 16 498 -17 547 -6 b 708 105 637 38 676 67 b 784 236 741 142 766 186 b 811 397 802 286 811 340 b 791 514 811 440 804 479 b 734 605 778 549 759 579 b 645 664 709 630 680 650 b 529 685 610 678 572 685 b 392 651 479 685 433 674 b 289 560 350 629 316 599 z m 644 378 b 628 276 644 342 639 308 b 583 192 618 244 603 216 b 510 136 563 169 539 150 b 417 115 482 122 451 115 b 293 164 365 115 324 131 b 247 289 263 196 247 238 b 265 390 247 324 253 358 b 315 474 277 422 294 450 b 389 531 335 498 360 517 b 481 551 418 544 448 551 b 602 501 533 551 574 535 b 644 378 630 468 644 427 z "},"c":{"ha":683,"x_min":0,"x_max":0,"o":"m 574 478 l 690 572 b 587 658 666 611 632 640 b 444 685 542 676 494 685 b 277 651 383 685 328 673 b 149 559 227 628 184 597 b 67 426 113 521 86 476 b 38 271 47 376 38 325 b 60 153 38 227 45 188 b 126 62 76 118 97 87 b 227 3 154 36 188 17 b 358 -18 266 -11 310 -18 b 513 13 417 -18 468 -8 b 632 97 557 34 597 62 l 539 192 b 469 138 518 170 494 153 b 368 117 443 124 410 117 b 292 131 338 117 313 122 b 239 170 270 141 253 154 b 208 226 225 186 215 205 b 199 292 202 247 199 269 b 217 390 199 326 205 359 b 266 474 229 422 245 450 b 341 531 287 498 312 517 b 436 551 370 544 402 551 b 518 530 466 551 493 544 b 574 478 543 516 562 498 z "},"d":{"ha":881,"x_min":0,"x_max":0,"o":"m 724 1050 l 640 560 l 638 560 b 552 651 618 599 590 629 b 404 685 515 674 465 685 b 256 652 350 685 301 674 b 140 563 211 630 173 601 b 65 432 108 526 83 482 b 38 271 47 382 38 328 b 58 154 38 228 44 189 b 115 63 71 119 90 89 b 203 4 139 38 169 18 b 319 -17 238 -10 277 -17 b 457 15 369 -17 415 -6 b 560 106 499 37 533 67 l 564 106 l 547 0 l 701 0 l 888 1050 z m 204 290 b 220 392 204 326 209 360 b 266 476 231 424 246 452 b 338 532 286 499 310 518 b 432 553 366 546 398 553 b 556 504 484 553 525 537 b 601 379 586 472 601 430 b 583 278 601 344 595 310 b 534 194 571 247 555 219 b 460 138 513 170 488 151 b 368 117 431 124 400 117 b 247 167 315 117 275 133 b 204 290 218 200 204 241 z "},"e":{"ha":783,"x_min":0,"x_max":0,"o":"m 194 282 l 689 282 b 701 356 694 305 699 330 b 706 418 704 383 706 403 b 685 535 706 463 699 501 b 626 618 671 568 651 596 b 538 668 601 640 572 657 b 428 685 504 679 468 685 b 272 653 371 685 319 674 b 148 567 224 633 183 604 b 67 437 113 530 86 486 b 38 276 47 387 38 334 b 61 151 37 229 45 187 b 126 58 77 114 99 83 b 225 1 154 33 187 14 b 350 -19 263 -13 305 -19 b 651 114 469 -19 569 25 l 558 201 b 477 138 534 175 507 153 b 368 114 447 122 411 114 b 299 126 343 114 320 118 b 243 158 277 134 259 144 b 206 206 227 171 215 187 b 193 267 197 224 193 244 b 194 282 193 272 194 277 z m 556 399 l 210 399 b 232 454 213 416 221 435 b 274 508 243 474 257 491 b 335 547 291 524 312 537 b 413 563 358 557 384 563 b 520 525 459 563 495 550 b 558 433 546 500 558 469 b 558 417 558 428 558 422 b 556 399 557 411 556 405 z "},"f":{"ha":449,"x_min":0,"x_max":0,"o":"m 535 918 l 569 1057 b 488 1067 547 1063 520 1067 b 360 1041 438 1067 395 1058 b 272 973 325 1024 295 1001 b 216 877 248 945 229 913 b 186 768 203 841 193 805 l 167 667 l 43 667 l 21 536 l 147 536 l 53 0 l 211 0 l 306 536 l 460 536 l 483 667 l 326 667 l 346 776 b 359 828 349 793 353 810 b 383 878 365 847 373 863 b 421 914 392 893 405 905 b 478 928 437 923 456 928 b 509 925 490 928 500 927 b 535 918 518 923 526 921 z "},"g":{"ha":878,"x_min":0,"x_max":0,"o":"m 647 565 l 643 565 b 561 651 625 600 598 629 b 414 685 524 674 475 685 b 266 653 360 685 311 674 b 150 565 221 631 182 602 b 74 433 118 527 92 483 b 47 274 56 383 47 330 b 67 157 47 231 54 192 b 124 67 81 122 100 92 b 213 8 149 42 178 22 b 329 -12 248 -6 287 -12 b 463 16 379 -12 424 -3 b 558 92 503 35 534 60 l 561 92 l 550 39 b 522 -53 543 6 533 -25 b 476 -126 511 -82 496 -106 b 405 -174 457 -147 433 -163 b 301 -192 377 -186 342 -192 b 181 -167 259 -192 219 -183 b 85 -96 143 -150 111 -126 l -24 -214 b 42 -265 -5 -233 17 -250 b 124 -303 68 -280 95 -293 b 211 -326 152 -313 181 -321 b 297 -333 241 -331 269 -333 b 471 -306 365 -333 423 -324 b 592 -226 519 -287 559 -261 b 669 -103 624 -192 650 -151 b 714 57 689 -55 704 -1 l 819 667 l 664 667 z m 214 293 b 230 394 214 329 219 363 b 276 477 241 426 256 453 b 348 533 296 501 320 519 b 442 554 376 547 407 554 b 565 506 494 554 535 538 b 611 381 596 473 611 431 b 593 281 611 345 605 312 b 544 197 581 249 565 221 b 469 140 523 173 498 154 b 378 119 441 126 410 119 b 256 169 325 119 284 136 b 214 293 228 203 214 244 z "},"h":{"ha":811,"x_min":0,"x_max":0,"o":"m 478 0 l 640 0 l 714 415 b 719 478 718 434 719 455 b 706 558 719 506 715 532 b 666 624 697 583 684 605 b 598 668 648 642 625 657 b 501 685 571 679 538 685 b 375 651 451 685 409 673 b 296 572 341 628 314 602 l 293 572 l 378 1050 l 214 1050 l 29 0 l 192 0 l 256 363 b 276 431 259 386 266 408 b 313 490 285 453 298 472 b 367 531 328 507 347 520 b 439 546 388 541 412 546 b 525 512 481 546 509 534 b 549 433 541 489 549 463 b 547 400 549 422 548 411 b 542 367 545 389 544 378 z "},"i":{"ha":371,"x_min":0,"x_max":0,"o":"m 29 0 l 192 0 l 310 667 l 146 667 z m 364 896 b 337 966 364 925 355 949 b 269 992 319 983 296 992 b 199 963 243 992 219 982 b 168 890 178 944 168 920 b 197 819 168 860 178 836 b 265 794 216 803 238 794 b 335 825 293 794 316 805 b 364 896 354 845 364 869 z "},"j":{"ha":371,"x_min":0,"x_max":0,"o":"m 185 -44 l 310 667 l 146 667 l 19 -50 b 7 -105 16 -69 12 -88 b -12 -150 2 -122 -4 -137 b -44 -181 -21 -163 -31 -173 b -93 -192 -57 -188 -74 -192 b -115 -190 -100 -192 -107 -191 b -137 -186 -122 -189 -130 -188 l -169 -325 b -137 -331 -161 -327 -150 -329 b -96 -333 -123 -332 -110 -333 b 27 -310 -47 -333 -6 -326 b 108 -248 60 -295 87 -274 b 156 -156 128 -222 145 -191 b 185 -44 168 -120 177 -83 z m 364 896 b 337 966 364 925 355 949 b 269 992 319 983 296 992 b 199 963 243 992 219 982 b 168 890 178 944 168 920 b 197 819 168 860 178 836 b 265 794 216 803 238 794 b 335 825 293 794 316 805 b 364 896 354 845 364 869 z "},"k":{"ha":724,"x_min":0,"x_max":0,"o":"m 467 0 l 668 0 l 425 357 l 779 667 l 565 667 l 264 385 l 260 385 l 378 1050 l 214 1050 l 29 0 l 192 0 l 253 342 l 257 342 z "},"l":{"ha":371,"x_min":0,"x_max":0,"o":"m 29 0 l 192 0 l 378 1050 l 214 1050 z "},"m":{"ha":1242,"x_min":0,"x_max":0,"o":"m 121 524 l 121 524 l 29 0 l 192 0 l 257 367 b 277 433 261 389 267 411 b 314 490 287 454 299 474 b 366 531 329 507 346 521 b 433 547 386 542 408 547 b 511 517 469 547 494 537 b 536 440 528 497 536 472 b 532 403 536 429 535 417 l 461 0 l 625 0 l 689 364 b 708 428 693 385 699 407 b 745 488 718 450 730 470 b 799 531 760 505 778 519 b 868 547 819 542 842 547 b 922 538 889 547 907 544 b 956 513 936 531 947 523 b 974 476 964 502 970 490 b 979 433 977 463 979 448 b 977 400 979 422 978 411 b 972 367 976 389 974 378 l 908 0 l 1071 0 l 1144 415 b 1150 478 1148 434 1150 455 b 1137 558 1150 506 1146 532 b 1096 624 1128 583 1114 605 b 1026 668 1077 642 1054 657 b 926 685 999 679 965 685 b 792 650 875 685 831 673 b 690 554 753 627 719 595 b 624 648 680 592 658 623 b 490 685 591 672 546 685 b 365 647 439 685 397 672 b 285 563 332 622 305 594 l 282 563 l 289 618 b 294 667 292 640 294 656 l 142 667 b 133 592 140 644 137 619 b 121 524 128 564 125 541 z "},"n":{"ha":811,"x_min":0,"x_max":0,"o":"m 285 563 l 282 563 b 289 619 284 578 286 597 b 294 667 292 641 294 656 l 142 667 b 133 592 140 644 137 619 b 121 524 128 564 125 541 l 29 0 l 192 0 l 257 367 b 277 432 261 389 267 411 b 315 490 287 453 299 472 b 368 531 330 507 348 520 b 439 546 388 541 412 546 b 525 512 481 546 509 534 b 549 433 541 489 549 463 b 547 400 549 422 548 411 b 542 367 545 389 544 378 l 478 0 l 640 0 l 714 415 b 719 478 718 434 719 455 b 706 558 719 506 715 532 b 666 624 697 583 684 605 b 598 668 648 642 625 657 b 501 685 571 679 538 685 b 373 651 451 685 409 673 b 285 563 337 628 308 599 z "},"o":{"ha":839,"x_min":0,"x_max":0,"o":"m 360 -18 b 526 15 421 -18 476 -7 b 654 106 576 38 619 68 b 735 238 689 144 716 188 b 764 396 754 288 764 340 b 740 513 764 438 756 478 b 672 605 723 549 701 579 b 570 664 644 630 609 650 b 440 685 531 678 488 685 b 274 651 379 685 324 673 b 147 560 225 628 182 598 b 66 428 112 522 85 478 b 38 272 47 379 38 327 b 62 154 38 229 46 189 b 129 63 78 119 100 88 b 231 3 158 37 192 17 b 360 -18 271 -11 313 -18 z m 600 379 b 583 278 600 344 594 310 b 537 194 572 247 557 219 b 464 138 517 170 493 151 b 368 117 435 124 403 117 b 243 165 314 117 273 133 b 199 289 213 198 199 239 b 215 389 199 324 204 357 b 262 472 226 420 242 448 b 334 530 282 496 306 516 b 429 551 362 544 394 551 b 554 503 482 551 524 535 b 600 379 585 470 600 429 z "},"p":{"ha":882,"x_min":0,"x_max":0,"o":"m 131 -333 l 204 106 l 207 106 b 292 14 226 67 255 36 b 440 -19 330 -8 379 -19 b 588 13 494 -19 543 -9 b 704 102 633 35 672 65 b 780 233 737 140 762 183 b 807 394 798 283 807 337 b 787 511 807 437 800 476 b 730 602 773 546 754 577 b 641 661 705 628 676 647 b 525 682 606 675 568 682 b 388 650 475 682 429 671 b 285 560 346 629 312 599 l 281 560 l 297 667 l 143 667 l -33 -333 z m 640 375 b 624 273 640 339 635 305 b 578 190 614 241 598 213 b 506 133 559 166 534 147 b 413 113 478 119 447 113 b 289 161 361 113 319 129 b 243 286 258 194 243 235 b 261 387 243 321 249 355 b 310 471 273 419 290 447 b 385 528 331 495 356 514 b 476 549 413 542 444 549 b 598 499 529 549 570 532 b 640 375 626 465 640 424 z "},"q":{"ha":878,"x_min":0,"x_max":0,"o":"m 560 106 l 563 106 l 481 -333 l 644 -333 l 819 667 l 665 667 l 646 553 l 643 553 b 544 650 621 594 588 627 b 404 685 501 673 454 685 b 256 652 350 685 301 674 b 140 563 211 630 173 601 b 65 432 108 526 83 482 b 38 271 47 382 38 328 b 58 154 38 228 44 189 b 115 63 71 119 90 89 b 203 4 139 38 169 18 b 319 -17 238 -10 277 -17 b 457 15 369 -17 415 -6 b 560 106 499 37 533 67 z m 204 290 b 220 392 204 326 209 360 b 266 476 231 424 246 452 b 338 532 286 499 310 518 b 432 553 366 546 398 553 b 556 504 484 553 525 537 b 601 379 586 472 601 430 b 583 278 601 344 595 310 b 534 194 571 247 555 219 b 460 138 513 170 488 151 b 368 117 431 124 400 117 b 247 167 315 117 275 133 b 204 290 218 200 204 241 z "},"r":{"ha":471,"x_min":0,"x_max":0,"o":"m 282 556 l 279 556 b 283 583 280 563 281 572 b 287 615 284 593 285 604 b 290 646 288 626 289 637 b 292 667 291 655 292 662 l 139 667 b 130 592 137 644 134 619 b 118 524 126 564 122 541 l 25 0 l 188 0 l 250 357 b 263 406 252 369 256 385 b 294 465 269 426 280 446 b 353 515 309 485 329 501 b 446 536 377 529 408 536 b 469 535 453 536 461 536 b 496 529 477 534 486 532 l 518 681 b 499 684 513 682 506 684 b 478 685 491 684 484 685 b 364 649 433 685 395 673 b 282 556 332 626 305 594 z "},"s":{"ha":617,"x_min":0,"x_max":0,"o":"m 93 192 l -33 108 b 67 13 -10 70 23 39 b 242 -25 111 -12 169 -25 b 352 -10 281 -25 317 -20 b 444 33 387 -1 417 14 b 507 105 470 53 491 77 b 531 203 523 133 531 166 b 479 331 531 258 513 301 b 335 403 445 361 397 385 b 255 433 300 413 273 423 b 228 481 237 444 228 459 b 238 518 228 495 231 508 b 265 542 245 528 254 536 b 303 556 276 548 289 553 b 346 560 318 558 332 560 b 425 541 379 560 406 553 b 472 494 444 528 460 513 l 599 569 b 499 656 575 608 541 637 b 358 685 457 675 410 685 b 243 669 317 685 278 679 b 151 624 208 658 177 643 b 90 554 125 604 105 581 b 68 465 75 527 68 498 b 80 400 68 440 72 419 b 115 351 88 381 100 365 b 174 313 131 336 151 324 b 257 282 198 303 225 292 b 344 245 297 269 326 257 b 371 192 362 234 371 216 b 337 131 371 166 359 145 b 246 108 314 116 284 108 b 155 130 213 108 182 116 b 93 192 128 144 107 165 z "},"t":{"ha":472,"x_min":0,"x_max":0,"o":"m 26 535 l 144 535 l 88 225 b 81 183 85 212 83 198 b 79 140 80 167 79 153 b 124 28 79 94 94 57 b 274 -14 153 0 203 -14 b 326 -9 289 -14 307 -12 b 375 4 345 -6 361 -1 l 385 128 b 355 121 375 125 366 123 b 322 118 344 119 333 118 b 265 132 298 118 279 123 b 243 182 250 141 243 158 b 247 221 243 194 244 207 l 306 535 l 453 535 l 476 667 l 326 667 l 360 861 l 199 861 l 165 667 l 50 667 z "},"u":{"ha":811,"x_min":0,"x_max":0,"o":"m 483 104 l 486 104 b 479 48 484 88 482 70 b 474 0 476 26 475 10 l 626 0 b 635 75 628 22 631 47 b 647 143 640 103 644 125 l 739 667 l 576 667 l 511 300 b 491 235 507 278 501 256 b 453 177 481 213 469 194 b 399 136 438 160 420 146 b 329 121 378 126 355 121 b 243 155 288 121 259 132 b 219 233 227 178 219 204 b 222 267 219 244 220 256 b 226 300 223 278 225 289 l 290 667 l 128 667 l 54 251 b 49 189 50 233 49 212 b 62 109 49 161 53 134 b 102 43 71 84 84 62 b 170 -1 120 25 143 10 b 267 -18 197 -12 230 -18 b 395 16 317 -18 359 -7 b 483 104 431 39 460 68 z "},"v":{"ha":697,"x_min":0,"x_max":0,"o":"m 346 0 l 742 667 l 569 667 l 292 178 l 289 178 l 211 667 l 40 667 l 171 0 z "},"w":{"ha":1090,"x_min":0,"x_max":0,"o":"m 776 0 l 1139 667 l 968 667 l 726 188 l 724 188 l 669 667 l 499 667 l 260 188 l 257 188 l 211 667 l 40 667 l 132 0 l 299 0 l 547 471 l 550 471 l 610 0 z "},"x":{"ha":713,"x_min":0,"x_max":0,"o":"m 442 0 l 626 0 l 429 346 l 735 667 l 535 667 l 350 458 l 242 667 l 63 667 l 242 354 l -101 0 l 106 0 l 318 239 z "},"y":{"ha":703,"x_min":0,"x_max":0,"o":"m 282 -144 l 754 667 l 582 667 l 315 178 l 313 178 l 226 667 l 51 667 l 201 -1 l 151 -87 b 95 -166 131 -123 112 -149 b 24 -192 78 -183 54 -192 b -6 -190 14 -192 4 -191 b -37 -182 -17 -188 -27 -186 l -58 -324 b -16 -331 -44 -327 -30 -330 b 26 -333 -2 -333 13 -333 b 111 -321 59 -333 87 -329 b 177 -284 135 -312 157 -300 b 232 -224 197 -268 215 -248 b 282 -144 249 -201 265 -174 z "},"z":{"ha":667,"x_min":0,"x_max":0,"o":"m -28 0 l 544 0 l 568 133 l 196 133 l 628 524 l 653 667 l 115 667 l 93 536 l 432 536 l -3 143 z "},"{":{"ha":444,"x_min":0,"x_max":0,"o":"m 160 -217 l 260 -217 l 281 -101 l 204 -101 b 173 -94 190 -101 180 -99 b 158 -74 166 -89 161 -82 b 155 -47 156 -66 154 -57 b 158 -17 155 -37 156 -27 l 203 235 b 207 275 206 249 207 262 b 195 335 207 299 203 319 b 166 372 187 350 178 363 b 129 391 154 380 142 387 b 96 399 116 395 105 398 l 96 401 b 138 413 107 402 121 406 b 187 440 154 419 171 428 b 231 487 203 452 218 468 b 258 557 245 506 254 529 l 304 817 b 326 875 309 838 316 857 b 382 901 335 893 354 901 l 458 901 l 478 1017 l 378 1017 b 309 1006 355 1017 332 1013 b 247 972 286 998 266 987 b 197 915 228 957 211 938 b 168 833 183 892 174 865 l 121 560 b 102 511 117 540 111 524 b 73 480 93 498 84 488 b 39 464 62 472 51 467 b 6 460 27 461 16 460 l -15 340 b 16 335 -5 340 5 339 b 44 318 27 332 36 326 b 63 285 53 310 59 299 b 63 231 66 271 66 253 l 15 -33 b 11 -76 13 -49 11 -63 b 54 -183 11 -125 25 -160 b 160 -217 83 -205 118 -217 z "},"|":{"ha":308,"x_min":0,"x_max":0,"o":"m 225 1042 l 83 1042 l 83 -347 l 225 -347 z "},"}":{"ha":444,"x_min":0,"x_max":0,"o":"m 428 340 l 428 340 l 449 460 b 417 464 438 460 428 461 b 389 480 407 467 397 472 b 371 511 381 488 375 498 b 371 560 367 524 367 540 l 418 833 b 422 876 421 848 422 863 b 379 983 422 925 408 960 b 275 1017 350 1005 316 1017 l 174 1017 l 154 901 l 229 901 b 261 894 243 901 254 899 b 276 874 269 889 274 882 b 280 847 279 866 280 857 b 276 817 279 837 278 827 l 231 557 b 233 487 226 529 227 506 b 261 440 240 468 249 452 b 301 413 273 428 286 419 b 339 401 315 406 328 402 l 338 399 b 297 390 326 398 313 395 b 248 364 280 384 264 376 b 203 315 232 352 217 335 b 174 235 189 294 179 267 l 129 -17 b 108 -75 125 -38 119 -57 b 53 -101 98 -93 80 -101 l -24 -101 l -44 -217 l 57 -217 b 125 -206 80 -217 103 -213 b 187 -172 147 -198 168 -187 b 236 -115 206 -157 222 -138 b 265 -33 250 -92 260 -65 l 313 231 b 331 285 316 253 322 271 b 361 318 340 299 350 310 b 395 335 372 326 384 332 b 428 340 407 339 418 340 z "},"~":{"ha":925,"x_min":0,"x_max":0,"o":"m 479 492 b 400 533 450 510 424 524 b 313 547 376 543 347 547 b 205 518 276 547 241 538 b 100 404 169 499 134 461 l 207 314 b 260 382 225 346 242 369 b 315 401 277 395 296 401 b 338 400 323 401 330 401 b 363 394 345 399 353 397 b 397 378 373 391 384 385 b 444 351 410 372 426 363 b 529 309 475 332 503 318 b 613 296 555 300 583 296 b 722 326 650 296 686 306 b 825 438 758 347 793 384 l 718 528 b 669 463 703 500 687 478 b 610 440 652 448 632 440 b 583 441 600 440 591 441 b 559 447 576 441 568 444 b 527 463 550 451 540 456 b 479 492 515 469 499 479 z "}," ":{"ha":347,"x_min":0,"x_max":0,"o":""},"¡":{"ha":410,"x_min":0,"x_max":0,"o":"m 271 379 l 108 379 l -11 -297 l 151 -297 z m 115 586 b 144 513 115 556 125 531 b 214 486 163 495 186 486 b 288 516 242 486 266 496 b 319 592 309 536 319 561 b 290 666 319 624 309 649 b 218 692 270 683 246 692 b 145 660 189 692 165 681 b 115 586 125 640 115 615 z "},"¢":{"ha":847,"x_min":0,"x_max":0,"o":"m 543 682 l 560 775 l 485 775 l 469 683 b 314 640 412 679 360 664 b 195 548 268 616 228 585 b 119 420 162 510 137 468 b 93 271 102 372 93 323 b 162 81 93 195 116 132 b 347 -12 208 31 269 0 l 328 -115 l 403 -115 l 419 -18 b 569 15 476 -17 526 -6 b 688 97 613 35 652 63 l 594 192 b 531 142 575 172 554 156 b 443 117 507 128 478 119 l 519 549 b 585 522 544 544 565 535 b 629 478 604 509 619 494 l 746 572 b 660 649 725 606 696 631 b 543 682 624 666 585 677 z m 446 547 l 369 122 b 315 144 348 126 330 133 b 280 184 300 156 289 169 b 260 235 271 199 265 216 b 254 292 256 253 254 272 b 268 381 254 322 259 352 b 307 459 277 410 290 436 b 367 517 324 482 344 501 b 446 547 391 532 417 543 z "},"£":{"ha":847,"x_min":0,"x_max":0,"o":"m 767 813 l 867 925 b 770 987 841 952 809 972 b 638 1008 732 1001 688 1008 b 476 975 574 1008 520 997 b 367 891 432 953 395 925 b 301 781 338 857 316 820 b 268 669 285 741 275 704 l 247 554 l 114 554 l 94 439 l 231 439 l 178 146 l 42 146 l 17 0 l 686 0 l 713 146 l 344 146 l 396 439 l 624 439 l 644 554 l 414 554 l 433 663 b 451 733 437 685 443 708 b 486 801 460 757 471 780 b 543 852 501 822 520 839 b 628 872 566 866 594 872 b 708 856 657 872 684 867 b 767 813 732 846 752 831 z "},"€":{"ha":847,"x_min":0,"x_max":0,"o":"m 761 35 l 728 164 b 643 127 698 148 670 136 b 550 114 616 118 585 114 b 451 129 514 114 481 119 b 375 171 422 139 396 153 b 324 233 354 188 337 209 b 303 308 312 256 305 281 l 592 308 l 650 428 l 303 428 b 304 456 303 435 303 444 b 309 490 305 467 307 478 b 317 526 311 502 314 514 b 325 556 319 537 322 547 l 693 556 l 753 675 l 368 675 b 486 817 398 736 437 783 b 649 867 535 850 589 867 b 744 857 683 867 715 863 b 817 828 773 850 797 841 l 878 963 b 788 995 856 975 825 986 b 664 1008 750 1004 708 1008 b 505 982 606 1008 553 1000 b 374 910 456 964 413 940 b 271 803 335 879 300 844 b 200 675 241 763 218 720 l 128 675 l 65 556 l 165 556 b 149 483 158 529 152 504 b 142 428 145 461 143 443 l 79 428 l 19 308 l 144 308 b 175 180 147 263 157 220 b 249 74 193 140 217 104 b 369 1 281 43 321 19 b 535 -25 416 -16 472 -25 b 665 -8 585 -25 628 -19 b 761 35 701 3 733 17 z "},"¥":{"ha":847,"x_min":0,"x_max":0,"o":"m 574 539 l 913 983 l 729 983 l 453 582 l 306 983 l 125 983 l 322 539 l 117 539 l 99 432 l 342 432 l 324 324 l 79 324 l 61 217 l 308 217 l 271 0 l 431 0 l 468 217 l 711 217 l 729 324 l 483 324 l 503 432 l 749 432 l 768 539 z "},"Š":{"ha":797,"x_min":0,"x_max":0,"o":"m 654 781 l 779 881 b 724 936 764 902 746 920 b 655 976 703 952 679 965 b 578 1000 630 986 605 994 b 501 1008 552 1006 526 1008 b 362 988 453 1008 407 1002 b 243 929 317 975 277 955 b 160 833 209 903 181 871 b 129 703 140 795 129 752 b 147 604 129 665 135 632 b 194 533 158 576 174 553 b 265 482 215 513 238 496 b 349 444 291 468 319 456 b 417 417 373 436 395 427 b 473 382 438 406 457 395 b 512 337 489 369 502 354 b 526 278 522 320 526 300 b 509 203 526 248 521 223 b 465 155 497 184 483 167 b 403 128 447 142 426 133 b 335 119 381 122 358 119 b 210 151 289 119 248 130 b 126 231 173 172 145 198 l -12 135 b 52 63 5 107 27 83 b 135 14 78 43 105 27 b 228 -15 164 1 196 -9 b 326 -25 261 -22 294 -25 b 464 -8 373 -25 419 -19 b 586 47 509 4 550 22 b 674 144 622 72 651 105 b 707 289 696 184 707 232 b 638 467 707 364 684 423 b 439 581 591 511 525 549 b 340 633 397 596 364 614 b 303 715 315 653 303 680 b 321 786 303 743 309 767 b 366 833 333 806 348 821 b 425 858 384 844 404 853 b 483 867 446 864 466 867 b 581 846 519 867 551 860 b 654 781 611 832 636 810 z m 593 1061 l 788 1261 l 633 1261 l 514 1135 l 440 1261 l 289 1261 l 411 1061 z "},"§":{"ha":847,"x_min":0,"x_max":0,"o":"m 694 796 l 818 892 b 703 979 790 931 752 960 b 544 1008 654 999 601 1008 b 437 994 510 1008 474 1003 b 334 949 399 984 365 969 b 257 869 303 928 277 902 b 226 751 237 836 226 797 b 246 670 226 720 233 693 b 286 621 259 647 272 631 b 226 592 266 614 246 605 b 172 547 206 580 188 565 b 134 485 156 528 144 508 b 119 410 124 463 119 438 b 133 333 119 380 124 354 b 169 275 141 311 153 292 b 223 232 184 258 202 244 b 290 199 244 220 266 209 b 373 162 322 185 349 172 b 431 128 397 151 416 140 b 465 90 447 117 458 104 b 476 40 473 76 476 60 b 463 -8 476 21 472 5 b 430 -39 454 -21 443 -31 b 385 -54 416 -46 401 -51 b 335 -58 368 -57 351 -58 b 282 -52 318 -58 300 -56 b 230 -34 263 -48 246 -42 b 185 -5 214 -26 199 -16 b 156 36 172 7 162 20 l 17 -43 b 71 -112 29 -70 47 -93 b 152 -161 95 -132 122 -148 b 246 -190 182 -174 213 -184 b 338 -200 278 -197 309 -200 b 448 -185 374 -200 410 -195 b 549 -138 485 -176 519 -160 b 622 -55 578 -116 603 -89 b 650 69 641 -21 650 20 b 632 143 650 95 644 120 b 586 201 620 166 605 186 b 644 230 606 209 625 218 b 694 272 663 241 679 256 b 728 331 708 289 720 308 b 742 407 737 353 742 378 b 727 491 742 439 737 467 b 687 553 717 515 704 535 b 626 599 670 570 650 586 b 553 636 603 613 579 625 b 483 668 526 648 503 659 b 433 697 463 677 446 687 b 405 728 420 706 411 717 b 396 768 399 739 396 752 b 410 819 396 788 400 806 b 444 853 419 833 431 844 b 490 870 458 861 473 867 b 535 875 506 873 521 875 b 625 856 567 875 597 869 b 694 796 653 843 676 823 z m 499 265 l 364 325 b 299 365 339 336 317 350 b 271 438 280 381 271 405 b 299 513 271 464 280 489 b 378 558 317 536 344 551 l 494 501 b 563 455 520 488 543 473 b 592 379 582 437 592 412 b 499 265 592 322 561 284 z "},"š":{"ha":617,"x_min":0,"x_max":0,"o":"m 93 192 l -33 108 b 67 13 -10 70 23 39 b 242 -25 111 -12 169 -25 b 352 -10 281 -25 317 -20 b 444 33 387 -1 417 14 b 507 105 470 53 491 77 b 531 203 523 133 531 166 b 479 331 531 258 513 301 b 335 403 445 361 397 385 b 255 433 300 413 273 423 b 228 481 237 444 228 459 b 238 518 228 495 231 508 b 265 542 245 528 254 536 b 303 556 276 548 289 553 b 346 560 318 558 332 560 b 425 541 379 560 406 553 b 472 494 444 528 460 513 l 599 569 b 499 656 575 608 541 637 b 358 685 457 675 410 685 b 243 669 317 685 278 679 b 151 624 208 658 177 643 b 90 554 125 604 105 581 b 68 465 75 527 68 498 b 80 400 68 440 72 419 b 115 351 88 381 100 365 b 174 313 131 336 151 324 b 257 282 198 303 225 292 b 344 245 297 269 326 257 b 371 192 362 234 371 216 b 337 131 371 166 359 145 b 246 108 314 116 284 108 b 155 130 213 108 182 116 b 93 192 128 144 107 165 z m 461 783 l 656 983 l 501 983 l 382 857 l 308 983 l 157 983 l 279 783 z "},"©":{"ha":1111,"x_min":0,"x_max":0,"o":"m 714 615 l 801 703 b 706 774 777 733 746 757 b 581 799 667 790 625 799 b 457 777 537 799 496 791 b 355 716 418 763 384 742 b 286 618 326 690 303 657 b 261 488 269 579 261 536 b 286 355 261 438 269 393 b 355 258 303 316 326 284 b 456 198 384 231 418 211 b 581 178 495 184 536 178 b 706 199 625 178 667 185 b 800 261 744 214 776 234 l 719 356 b 662 317 705 339 685 326 b 590 303 638 307 614 303 b 512 319 561 303 534 308 b 455 360 489 329 470 343 b 420 420 440 378 428 397 b 408 490 412 443 408 466 b 419 558 408 513 412 536 b 452 617 427 581 438 600 b 506 658 466 634 484 648 b 581 674 528 669 553 674 b 658 657 607 674 633 668 b 714 615 682 646 701 632 z m 28 490 b 69 287 28 418 42 350 b 183 121 97 223 135 168 b 351 10 230 74 286 37 b 557 -31 415 -17 484 -31 b 761 10 629 -31 697 -17 b 928 121 825 37 881 74 b 1042 287 976 168 1014 223 b 1083 490 1069 350 1083 418 b 1042 695 1083 563 1069 632 b 928 861 1014 759 976 814 b 761 973 881 908 825 946 b 557 1014 697 1000 629 1014 b 351 973 484 1014 415 1000 b 183 861 286 946 230 908 b 69 695 135 814 97 759 b 28 490 42 632 28 563 z m 111 490 b 147 663 111 551 123 609 b 242 805 170 717 202 765 b 384 901 283 845 330 877 b 557 936 438 924 496 936 b 729 901 618 936 675 924 b 870 805 783 877 830 845 b 965 663 910 765 942 717 b 1000 490 988 609 1000 551 b 965 318 1000 429 988 372 b 870 177 942 264 910 217 b 729 82 830 137 783 105 b 557 47 675 59 618 47 b 384 82 496 47 438 59 b 242 177 330 105 283 137 b 147 318 202 217 170 264 b 111 490 123 372 111 429 z "},"ª":{"ha":528,"x_min":0,"x_max":0,"o":"m 379 776 l 389 776 l 383 754 b 349 694 379 730 367 710 b 282 669 331 678 309 669 b 242 678 267 669 254 672 b 224 715 230 684 224 697 b 238 748 224 729 228 740 b 276 766 248 756 260 762 b 326 774 291 770 308 773 b 379 776 345 776 363 776 z m 369 640 l 372 640 b 368 599 369 622 368 608 l 463 599 b 464 640 463 609 463 623 b 469 689 465 658 467 674 l 494 836 b 499 858 496 844 498 851 b 500 881 500 865 500 872 b 464 968 500 915 488 944 b 347 1004 440 992 401 1004 b 272 993 325 1004 300 1000 b 185 950 244 986 215 971 l 226 879 b 281 907 243 891 261 900 b 333 917 300 913 318 917 b 383 906 356 917 373 913 b 399 869 394 899 399 887 b 396 853 399 864 398 858 b 192 817 306 853 238 841 b 124 697 147 794 124 754 b 157 619 124 666 135 640 b 253 589 179 599 211 589 b 324 603 281 589 305 594 b 369 640 342 612 357 625 z "},"«":{"ha":719,"x_min":0,"x_max":0,"o":"m 294 654 l 29 343 l 188 26 l 299 90 l 181 333 l 388 579 z m 599 654 l 333 343 l 492 26 l 603 90 l 485 333 l 692 579 z "},"¬":{"ha":925,"x_min":0,"x_max":0,"o":"m 697 475 l 697 204 l 839 204 l 839 617 l 86 617 l 86 475 z "},"­":{"ha":444,"x_min":0,"x_max":0,"o":"m 29 272 l 361 272 l 386 411 l 54 411 z "},"®":{"ha":833,"x_min":0,"x_max":0,"o":"m 789 685 b 764 808 789 728 781 769 b 697 908 747 846 725 879 b 597 975 668 936 635 958 b 474 1000 558 992 517 1000 b 350 975 430 1000 389 992 b 249 908 311 958 277 936 b 181 808 220 879 197 846 b 156 685 164 769 156 728 b 181 563 156 641 164 600 b 249 464 197 525 220 492 b 350 398 277 436 311 414 b 474 374 389 382 430 374 b 597 398 517 374 558 382 b 697 464 635 414 668 436 b 764 563 725 492 747 525 b 789 685 781 600 789 641 z m 739 685 b 718 582 739 649 732 614 b 661 497 704 550 685 521 b 577 440 637 473 609 454 b 474 419 545 426 511 419 b 369 440 437 419 402 426 b 284 497 337 454 309 473 b 226 582 259 521 240 550 b 206 685 213 614 206 649 b 226 789 206 722 213 756 b 284 874 240 821 259 850 b 369 932 309 899 337 918 b 474 953 402 946 437 953 b 577 932 511 953 545 946 b 661 874 609 918 637 899 b 718 789 685 850 704 821 b 739 685 732 756 739 722 z m 540 511 l 656 511 l 564 660 b 616 697 585 667 603 679 b 636 758 629 714 636 734 b 623 813 636 780 632 798 b 588 848 614 827 603 839 b 540 867 574 857 558 863 b 488 872 523 870 505 872 l 332 872 l 332 511 l 431 511 l 431 644 l 471 644 z m 532 757 b 517 728 532 745 527 735 b 483 717 508 720 496 717 l 431 717 l 431 792 l 483 792 b 516 783 494 792 505 789 b 532 757 527 778 532 769 z "},"¯":{"ha":361,"x_min":0,"x_max":0,"o":"m 31 826 l 471 826 l 490 933 l 49 933 z "},"°":{"ha":556,"x_min":0,"x_max":0,"o":"m 103 778 b 120 692 103 747 109 719 b 168 621 132 665 148 641 b 239 573 188 600 212 584 b 325 556 266 561 294 556 b 411 573 356 556 384 561 b 482 621 438 584 462 600 b 530 692 502 641 518 665 b 547 778 541 719 547 747 b 530 864 547 808 541 837 b 482 935 518 891 502 914 b 411 983 462 955 438 971 b 325 1000 384 994 356 1000 b 239 983 294 1000 266 994 b 168 935 212 971 188 955 b 120 864 148 914 132 891 b 103 778 109 837 103 808 z m 211 778 b 244 858 211 809 222 836 b 325 892 267 881 294 892 b 406 858 356 892 383 881 b 439 778 428 836 439 809 b 406 697 439 746 428 719 b 325 664 383 675 356 664 b 244 697 294 664 267 675 b 211 778 222 719 211 746 z "},"±":{"ha":925,"x_min":0,"x_max":0,"o":"m 397 797 l 397 599 l 111 599 l 111 457 l 397 457 l 397 258 l 531 258 l 531 457 l 814 457 l 814 599 l 531 599 l 531 797 z m 111 186 l 111 44 l 814 44 l 814 186 z "},"²":{"ha":556,"x_min":0,"x_max":0,"o":"m 150 843 l 150 843 l 258 813 b 294 873 267 838 278 859 b 356 894 309 887 330 894 b 411 879 379 894 397 889 b 432 829 425 869 432 852 b 351 710 432 794 405 754 l 96 500 l 76 393 l 464 393 l 485 503 l 253 503 l 411 626 b 473 678 435 645 456 662 b 515 726 490 694 504 709 b 540 776 526 742 534 759 b 547 836 545 794 547 814 b 496 953 547 886 530 925 b 361 996 462 982 417 996 b 234 958 314 996 272 983 b 150 843 197 932 169 894 z "},"³":{"ha":556,"x_min":0,"x_max":0,"o":"m 275 750 l 275 750 l 243 750 l 228 657 l 260 657 b 339 636 292 657 319 650 b 369 575 359 622 369 602 b 345 513 369 550 361 529 b 272 489 329 497 305 489 b 217 503 252 489 234 494 b 182 554 201 513 189 530 l 71 521 b 142 422 85 479 108 446 b 271 385 175 397 218 385 b 355 397 300 385 328 389 b 424 435 381 406 404 418 b 472 497 444 451 460 472 b 489 585 483 522 489 551 b 465 657 489 612 481 636 b 400 704 450 678 428 694 b 479 752 431 712 458 728 b 511 846 500 777 511 808 b 500 903 511 865 507 884 b 467 953 493 921 481 938 b 412 988 452 968 434 979 b 338 1001 390 997 365 1001 b 228 976 298 1001 261 993 b 144 892 196 959 168 931 l 235 839 b 276 888 248 863 261 879 b 329 901 290 897 308 901 b 376 888 348 901 363 897 b 394 843 388 878 394 863 b 275 750 394 781 355 750 z "},"Ž":{"ha":817,"x_min":0,"x_max":0,"o":"m -56 0 l 708 0 l 736 153 l 197 153 l 840 829 l 868 983 l 178 983 l 151 833 l 618 833 l -29 154 z m 615 1061 l 810 1261 l 656 1261 l 536 1135 l 463 1261 l 311 1261 l 433 1061 z "},"µ":{"ha":797,"x_min":0,"x_max":0,"o":"m 333 667 l 167 667 l -43 -317 l 124 -317 l 194 17 b 229 -8 202 6 213 -3 b 278 -17 245 -14 261 -17 b 410 20 331 -17 375 -4 b 494 107 444 45 472 74 l 497 107 l 475 0 l 633 0 l 775 667 l 608 667 l 531 303 b 508 239 526 281 519 259 b 470 185 498 219 485 200 b 415 147 455 169 437 156 b 342 133 394 138 369 133 b 267 165 305 133 280 144 b 249 236 255 185 249 209 b 253 285 249 252 250 268 b 261 329 256 301 258 316 z "},"¶":{"ha":833,"x_min":0,"x_max":0,"o":"m 510 -175 l 633 -175 l 838 983 l 465 983 b 276 952 388 983 324 973 b 162 874 227 931 189 905 b 106 774 134 843 116 810 b 92 678 97 739 92 706 b 160 526 92 616 114 565 b 350 468 205 488 269 468 l 236 -175 l 360 -175 l 547 885 l 697 885 z "},"·":{"ha":361,"x_min":0,"x_max":0,"o":"m 279 413 b 251 485 279 443 270 467 b 181 513 232 503 208 513 b 107 483 153 513 128 503 b 75 407 86 463 75 438 b 105 333 75 375 85 350 b 176 307 125 316 149 307 b 249 338 205 307 229 317 b 279 413 269 359 279 384 z "},"ž":{"ha":667,"x_min":0,"x_max":0,"o":"m -28 0 l 544 0 l 568 133 l 196 133 l 628 524 l 653 667 l 115 667 l 93 536 l 432 536 l -3 143 z m 490 783 l 685 983 l 531 983 l 411 857 l 338 983 l 186 983 l 308 783 z "},"¹":{"ha":556,"x_min":0,"x_max":0,"o":"m 226 388 l 356 388 l 460 983 l 347 983 l 132 831 l 189 746 l 306 831 z "},"º":{"ha":528,"x_min":0,"x_max":0,"o":"m 419 821 b 388 730 419 786 409 755 b 306 692 367 704 340 692 b 244 715 279 692 258 700 b 224 775 231 731 224 751 b 254 866 224 810 234 841 b 335 904 275 891 301 904 b 397 881 362 904 382 896 b 419 821 412 865 419 845 z m 299 592 b 387 608 329 592 359 597 b 462 655 415 618 440 634 b 513 731 484 676 501 701 b 532 832 526 760 532 794 b 480 956 532 884 515 925 b 344 1003 445 987 400 1003 b 253 985 312 1003 282 997 b 179 937 225 974 200 958 b 128 861 158 916 141 891 b 110 763 116 831 110 799 b 123 697 110 739 114 717 b 160 642 132 676 144 658 b 219 606 177 627 196 615 b 299 592 243 596 269 592 z "},"»":{"ha":719,"x_min":0,"x_max":0,"o":"m 399 26 l 664 338 l 506 654 l 394 590 l 513 347 l 306 101 z m 92 26 l 357 338 l 199 654 l 88 590 l 206 347 l -1 101 z "},"Œ":{"ha":1397,"x_min":0,"x_max":0,"o":"m 769 838 l 649 150 l 567 150 b 422 173 511 150 463 158 b 322 235 381 188 348 209 b 263 326 295 261 276 291 b 244 438 251 362 244 399 b 271 586 244 488 253 538 b 349 715 288 634 315 677 b 479 804 384 752 427 782 b 660 838 531 826 591 838 z m 1414 983 l 667 983 b 428 942 581 983 501 970 b 238 826 355 915 291 876 b 112 646 184 776 142 716 b 67 411 82 575 67 497 b 107 222 67 337 80 274 b 213 95 134 170 169 128 b 360 23 256 62 305 38 b 525 0 414 8 469 0 l 1281 0 l 1307 153 l 815 153 l 865 435 l 1296 435 l 1322 579 l 890 579 l 935 833 l 1388 833 z "},"œ":{"ha":1332,"x_min":0,"x_max":0,"o":"m 635 108 b 740 13 659 66 694 34 b 899 -19 785 -9 838 -19 b 1200 114 1017 -19 1118 25 l 1107 201 b 1026 138 1083 175 1056 153 b 917 114 996 122 959 114 b 847 126 892 114 869 118 b 792 158 826 134 807 144 b 755 206 776 171 764 187 b 742 267 746 224 742 244 b 743 282 742 272 742 277 l 1238 282 b 1250 356 1243 305 1247 330 b 1254 418 1253 383 1254 403 b 1233 535 1254 463 1247 501 b 1175 618 1219 568 1200 596 b 1087 668 1150 640 1121 657 b 976 685 1053 679 1016 685 b 818 650 919 685 866 673 b 697 553 770 627 730 594 b 603 652 675 597 644 630 b 446 685 562 674 510 685 b 281 651 386 685 331 674 b 151 562 231 629 188 599 b 67 431 115 524 87 481 b 38 272 47 381 38 328 b 61 154 37 229 45 189 b 126 63 77 119 99 88 b 226 3 154 37 188 17 b 354 -18 265 -11 308 -18 b 520 15 418 -18 473 -7 b 635 108 567 36 605 68 z m 1104 399 l 758 399 b 781 454 762 416 769 435 b 823 508 792 474 806 491 b 883 547 840 524 860 537 b 961 563 906 557 932 563 b 1069 525 1007 563 1043 550 b 1107 433 1094 500 1107 469 b 1106 417 1107 428 1107 422 b 1104 399 1106 411 1105 405 z m 600 379 b 583 278 600 344 594 310 b 535 194 571 247 555 219 b 461 138 514 170 490 151 b 368 117 432 124 401 117 b 243 165 314 117 273 133 b 199 289 213 198 199 239 b 216 389 199 324 204 357 b 264 472 228 420 244 448 b 337 530 284 496 309 516 b 429 551 365 544 396 551 b 554 503 482 551 524 535 b 600 379 585 470 600 429 z "},"Ÿ":{"ha":799,"x_min":0,"x_max":0,"o":"m 476 426 l 951 983 l 743 983 l 414 567 l 250 983 l 58 983 l 304 426 l 229 0 l 400 0 z m 469 1175 b 444 1244 469 1205 461 1228 b 378 1268 427 1260 405 1268 b 308 1241 351 1268 328 1259 b 279 1169 289 1223 279 1199 b 306 1101 279 1140 288 1117 b 374 1076 324 1084 347 1076 b 442 1106 401 1076 424 1086 b 469 1175 460 1125 469 1148 z m 744 1175 b 719 1244 744 1205 736 1228 b 653 1268 702 1260 680 1268 b 583 1241 626 1268 603 1259 b 554 1169 564 1223 554 1199 b 581 1101 554 1140 563 1117 b 649 1076 599 1084 622 1076 b 717 1106 676 1076 699 1086 b 744 1175 735 1125 744 1148 z "},"¿":{"ha":718,"x_min":0,"x_max":0,"o":"m 149 194 b 13 72 88 153 43 112 b -33 -74 -18 31 -33 -17 b -11 -190 -33 -120 -26 -159 b 49 -267 4 -222 24 -247 b 138 -308 75 -286 104 -300 b 242 -321 171 -317 206 -321 b 367 -300 287 -321 329 -314 b 467 -242 405 -286 438 -267 b 540 -157 497 -218 521 -189 b 581 -53 559 -125 572 -90 l 424 -26 b 403 -82 419 -46 412 -64 b 370 -128 395 -100 384 -115 b 322 -160 357 -142 341 -153 b 261 -172 304 -168 283 -172 b 138 -61 179 -172 138 -135 b 146 -13 138 -44 140 -28 b 168 26 151 1 159 14 b 199 57 177 37 188 48 b 231 83 210 66 220 75 l 303 140 b 356 188 323 157 341 173 b 393 233 370 202 383 218 b 417 284 403 249 411 266 b 432 344 423 302 428 322 l 440 399 l 281 399 l 275 363 b 262 310 272 342 268 325 b 238 270 256 296 248 283 b 202 234 228 258 216 246 b 149 194 188 222 170 209 z m 278 588 b 306 515 278 557 287 533 b 376 488 325 497 349 488 b 450 517 404 488 429 497 b 482 593 471 537 482 563 b 452 667 482 625 472 650 b 381 693 432 684 408 693 b 308 662 352 693 328 683 b 278 588 288 641 278 616 z "},"À":{"ha":928,"x_min":0,"x_max":0,"o":"m 683 0 l 865 0 l 669 983 l 521 983 l -121 0 l 82 0 l 222 226 l 643 226 z m 554 786 l 619 374 l 306 374 z m 658 1061 l 521 1261 l 338 1261 l 533 1061 z "},"Á":{"ha":928,"x_min":0,"x_max":0,"o":"m 683 0 l 865 0 l 669 983 l 521 983 l -121 0 l 82 0 l 222 226 l 643 226 z m 554 786 l 619 374 l 306 374 z m 674 1061 l 903 1261 l 718 1261 l 544 1061 z "},"Â":{"ha":928,"x_min":0,"x_max":0,"o":"m 683 0 l 865 0 l 669 983 l 521 983 l -121 0 l 82 0 l 222 226 l 643 226 z m 554 786 l 619 374 l 306 374 z m 704 1061 l 854 1061 l 732 1261 l 549 1261 l 354 1061 l 510 1061 l 629 1188 z "},"Ã":{"ha":928,"x_min":0,"x_max":0,"o":"m 683 0 l 865 0 l 669 983 l 521 983 l -121 0 l 82 0 l 222 226 l 643 226 z m 554 786 l 619 374 l 306 374 z m 349 1067 l 440 1067 b 469 1110 448 1082 457 1097 b 515 1129 481 1123 497 1129 b 560 1121 529 1129 544 1126 b 610 1100 575 1115 592 1108 b 656 1083 625 1093 640 1087 b 706 1076 671 1078 688 1076 b 774 1091 731 1076 754 1081 b 826 1130 794 1101 812 1114 b 865 1185 841 1146 854 1165 b 892 1250 875 1206 884 1228 l 800 1250 b 772 1208 793 1234 783 1220 b 726 1189 760 1195 745 1189 b 685 1197 713 1189 700 1191 b 640 1215 671 1202 656 1208 b 590 1233 625 1223 608 1229 b 536 1240 573 1238 555 1240 b 467 1226 510 1240 487 1235 b 415 1187 447 1216 430 1203 b 376 1131 399 1171 386 1152 b 349 1067 365 1110 356 1089 z "},"Ä":{"ha":928,"x_min":0,"x_max":0,"o":"m 683 0 l 865 0 l 669 983 l 521 983 l -121 0 l 82 0 l 222 226 l 643 226 z m 554 786 l 619 374 l 306 374 z m 578 1175 b 552 1244 578 1205 569 1228 b 486 1268 535 1260 513 1268 b 417 1241 459 1268 436 1259 b 388 1169 397 1223 388 1199 b 415 1101 388 1140 397 1117 b 482 1076 433 1084 455 1076 b 551 1106 510 1076 533 1086 b 578 1175 569 1125 578 1148 z m 853 1175 b 827 1244 853 1205 844 1228 b 761 1268 810 1260 788 1268 b 692 1241 734 1268 711 1259 b 663 1169 672 1223 663 1199 b 690 1101 663 1140 672 1117 b 757 1076 708 1084 730 1076 b 826 1106 785 1076 808 1086 b 853 1175 844 1125 853 1148 z "},"Å":{"ha":928,"x_min":0,"x_max":0,"o":"m 683 0 l 865 0 l 669 983 l 521 983 l -121 0 l 82 0 l 222 226 l 643 226 z m 554 786 l 619 374 l 306 374 z m 607 1046 b 721 1092 653 1046 691 1061 b 765 1210 750 1123 765 1163 b 731 1294 765 1244 754 1272 b 642 1328 709 1317 679 1328 b 578 1315 619 1328 597 1324 b 527 1281 558 1307 541 1295 b 494 1228 513 1266 502 1248 b 482 1165 486 1209 482 1188 b 517 1080 482 1131 494 1103 b 607 1046 540 1057 570 1046 z m 697 1197 b 674 1133 697 1171 689 1150 b 611 1107 658 1116 637 1107 b 566 1126 592 1107 577 1113 b 550 1174 555 1139 550 1155 b 574 1240 550 1200 558 1223 b 635 1267 589 1258 610 1267 b 681 1246 654 1267 669 1260 b 697 1197 692 1232 697 1216 z "},"Æ":{"ha":1435,"x_min":0,"x_max":0,"o":"m 1425 833 l 1451 983 l 724 983 l -44 0 l 153 0 l 350 260 l 704 260 l 660 0 l 1318 0 l 1344 153 l 853 153 l 903 435 l 1333 435 l 1360 579 l 928 579 l 972 833 z m 806 833 l 729 401 l 458 401 l 785 833 z "},"Ç":{"ha":946,"x_min":0,"x_max":0,"o":"m 622 -192 b 610 -142 622 -172 618 -156 b 578 -110 601 -129 591 -118 b 538 -92 566 -101 553 -96 b 497 -87 524 -89 510 -87 l 485 -87 b 469 -90 481 -87 476 -88 l 526 -24 b 748 32 613 -21 687 -2 b 896 154 809 66 858 107 l 786 251 b 667 156 751 208 711 176 b 526 125 622 135 575 125 b 406 149 481 125 441 133 b 317 212 370 164 341 185 b 263 305 294 238 276 269 b 244 419 251 341 244 379 b 274 582 244 475 254 529 b 355 724 293 635 320 682 b 480 824 390 765 431 799 b 640 861 528 849 582 861 b 713 851 667 861 691 858 b 772 826 735 845 755 837 b 817 792 790 816 805 805 b 846 757 829 780 838 768 l 981 858 b 924 919 966 881 947 901 b 845 967 900 938 874 954 b 751 997 816 980 784 990 b 646 1008 717 1005 682 1008 b 418 960 564 1008 488 992 b 234 830 348 928 286 885 b 111 636 182 775 141 710 b 67 397 81 562 67 482 b 94 236 67 339 76 285 b 171 108 112 187 138 144 b 292 20 204 72 244 43 b 450 -22 339 -3 392 -17 l 361 -125 l 386 -160 b 415 -153 395 -157 405 -155 b 442 -151 425 -152 434 -151 b 486 -160 457 -151 472 -154 b 507 -201 500 -166 507 -180 b 497 -231 507 -213 504 -223 b 474 -248 491 -238 483 -244 b 445 -256 466 -252 456 -255 b 417 -258 434 -258 425 -258 b 308 -231 377 -258 341 -249 l 271 -297 b 340 -323 289 -307 313 -316 b 422 -333 368 -330 395 -333 b 488 -326 443 -333 465 -331 b 553 -303 512 -322 534 -314 b 603 -259 573 -292 590 -277 b 622 -192 616 -241 622 -219 z "},"È":{"ha":811,"x_min":0,"x_max":0,"o":"m 35 0 l 694 0 l 721 153 l 229 153 l 279 435 l 710 435 l 736 579 l 304 579 l 349 833 l 801 833 l 828 983 l 208 983 z m 639 1061 l 501 1261 l 318 1261 l 514 1061 z "},"É":{"ha":811,"x_min":0,"x_max":0,"o":"m 35 0 l 694 0 l 721 153 l 229 153 l 279 435 l 710 435 l 736 579 l 304 579 l 349 833 l 801 833 l 828 983 l 208 983 z m 568 1061 l 797 1261 l 613 1261 l 439 1061 z "},"Ê":{"ha":811,"x_min":0,"x_max":0,"o":"m 35 0 l 694 0 l 721 153 l 229 153 l 279 435 l 710 435 l 736 579 l 304 579 l 349 833 l 801 833 l 828 983 l 208 983 z m 633 1061 l 783 1061 l 661 1261 l 478 1261 l 283 1061 l 439 1061 l 558 1188 z "},"Ë":{"ha":811,"x_min":0,"x_max":0,"o":"m 35 0 l 694 0 l 721 153 l 229 153 l 279 435 l 710 435 l 736 579 l 304 579 l 349 833 l 801 833 l 828 983 l 208 983 z m 500 1175 b 474 1244 500 1205 491 1228 b 408 1268 457 1260 435 1268 b 339 1241 381 1268 358 1259 b 310 1169 319 1223 310 1199 b 337 1101 310 1140 319 1117 b 404 1076 355 1084 377 1076 b 473 1106 432 1076 455 1086 b 500 1175 491 1125 500 1148 z m 775 1175 b 749 1244 775 1205 766 1228 b 683 1268 732 1260 710 1268 b 614 1241 656 1268 633 1259 b 585 1169 594 1223 585 1199 b 612 1101 585 1140 594 1117 b 679 1076 630 1084 652 1076 b 748 1106 707 1076 730 1086 b 775 1175 766 1125 775 1148 z "},"Ì":{"ha":404,"x_min":0,"x_max":0,"o":"m 35 0 l 206 0 l 379 983 l 208 983 z m 385 1061 l 247 1261 l 64 1261 l 260 1061 z "},"Í":{"ha":404,"x_min":0,"x_max":0,"o":"m 35 0 l 206 0 l 379 983 l 208 983 z m 347 1061 l 576 1261 l 392 1261 l 218 1061 z "},"Î":{"ha":404,"x_min":0,"x_max":0,"o":"m 35 0 l 206 0 l 379 983 l 208 983 z m 406 1061 l 556 1061 l 433 1261 l 250 1261 l 56 1061 l 211 1061 l 331 1188 z "},"Ï":{"ha":404,"x_min":0,"x_max":0,"o":"m 35 0 l 206 0 l 379 983 l 208 983 z m 279 1175 b 253 1244 279 1205 271 1228 b 188 1268 236 1260 214 1268 b 118 1241 161 1268 138 1259 b 89 1169 99 1223 89 1199 b 116 1101 89 1140 98 1117 b 183 1076 134 1084 156 1076 b 252 1106 211 1076 234 1086 b 279 1175 270 1125 279 1148 z m 554 1175 b 528 1244 554 1205 546 1228 b 463 1268 511 1260 489 1268 b 393 1241 436 1268 413 1259 b 364 1169 374 1223 364 1199 b 391 1101 364 1140 373 1117 b 458 1076 409 1084 431 1076 b 527 1106 486 1076 509 1086 b 554 1175 545 1125 554 1148 z "},"Ð":{"ha":1051,"x_min":0,"x_max":0,"o":"m 25 451 l 114 451 l 35 0 l 403 0 b 642 41 489 0 569 14 b 832 157 715 68 778 107 b 958 338 886 207 928 267 b 1003 572 988 408 1003 486 b 963 760 1003 645 989 708 b 857 888 936 813 900 855 b 710 960 813 921 764 945 b 544 983 655 976 600 983 l 208 983 l 135 567 l 46 567 z m 596 567 l 304 567 l 351 838 l 503 838 b 647 815 558 838 606 830 b 747 753 687 799 720 779 b 806 661 773 727 793 696 b 825 550 819 626 825 589 b 799 401 825 498 816 448 b 720 273 781 353 755 310 b 590 183 685 235 642 206 b 410 150 538 161 478 150 l 231 150 l 283 451 l 575 451 z "},"Ñ":{"ha":1094,"x_min":0,"x_max":0,"o":"m 665 0 l 878 0 l 1051 983 l 881 983 l 750 243 l 747 243 l 431 983 l 208 983 l 35 0 l 206 0 l 340 764 l 343 764 z m 388 1067 l 479 1067 b 508 1110 487 1082 496 1097 b 554 1129 520 1123 536 1129 b 599 1121 568 1129 583 1126 b 649 1100 614 1115 631 1108 b 694 1083 663 1093 679 1087 b 744 1076 710 1078 727 1076 b 813 1091 770 1076 793 1081 b 865 1130 833 1101 850 1114 b 903 1185 880 1146 893 1165 b 931 1250 914 1206 923 1228 l 839 1250 b 810 1208 831 1234 822 1220 b 765 1189 799 1195 784 1189 b 724 1197 752 1189 739 1191 b 679 1215 710 1202 695 1208 b 629 1233 663 1223 647 1229 b 575 1240 612 1238 594 1240 b 506 1226 549 1240 526 1235 b 453 1187 486 1216 469 1203 b 415 1131 438 1171 425 1152 b 388 1067 404 1110 395 1089 z "},"Ò":{"ha":1151,"x_min":0,"x_max":0,"o":"m 638 1008 b 411 960 556 1008 481 992 b 231 831 342 928 281 885 b 110 638 180 776 140 712 b 67 401 81 563 67 485 b 100 224 67 336 78 276 b 195 89 122 171 154 126 b 344 4 236 52 286 24 b 540 -25 403 -15 468 -25 b 765 23 622 -25 697 -9 b 943 153 834 55 893 98 b 1060 346 993 207 1032 272 b 1103 582 1089 420 1103 499 b 1069 760 1103 648 1092 707 b 975 894 1047 813 1016 857 b 828 978 934 930 885 959 b 638 1008 772 998 708 1008 z m 540 125 b 413 149 492 125 450 133 b 319 212 375 164 344 185 b 263 305 294 238 275 269 b 243 419 250 341 243 379 b 270 582 243 475 252 529 b 347 724 288 635 314 682 b 469 824 381 765 421 799 b 629 861 516 849 570 861 b 757 838 677 861 720 853 b 850 774 794 822 825 801 b 907 681 875 748 894 717 b 926 567 920 644 926 606 b 901 404 926 511 918 457 b 826 263 884 351 859 304 b 705 163 793 221 753 188 b 540 125 657 138 602 125 z m 801 1061 l 664 1261 l 481 1261 l 676 1061 z "},"Ó":{"ha":1151,"x_min":0,"x_max":0,"o":"m 638 1008 b 411 960 556 1008 481 992 b 231 831 342 928 281 885 b 110 638 180 776 140 712 b 67 401 81 563 67 485 b 100 224 67 336 78 276 b 195 89 122 171 154 126 b 344 4 236 52 286 24 b 540 -25 403 -15 468 -25 b 765 23 622 -25 697 -9 b 943 153 834 55 893 98 b 1060 346 993 207 1032 272 b 1103 582 1089 420 1103 499 b 1069 760 1103 648 1092 707 b 975 894 1047 813 1016 857 b 828 978 934 930 885 959 b 638 1008 772 998 708 1008 z m 540 125 b 413 149 492 125 450 133 b 319 212 375 164 344 185 b 263 305 294 238 275 269 b 243 419 250 341 243 379 b 270 582 243 475 252 529 b 347 724 288 635 314 682 b 469 824 381 765 421 799 b 629 861 516 849 570 861 b 757 838 677 861 720 853 b 850 774 794 822 825 801 b 907 681 875 748 894 717 b 926 567 920 644 926 606 b 901 404 926 511 918 457 b 826 263 884 351 859 304 b 705 163 793 221 753 188 b 540 125 657 138 602 125 z m 679 1061 l 908 1261 l 724 1261 l 550 1061 z "},"Ô":{"ha":1151,"x_min":0,"x_max":0,"o":"m 638 1008 b 411 960 556 1008 481 992 b 231 831 342 928 281 885 b 110 638 180 776 140 712 b 67 401 81 563 67 485 b 100 224 67 336 78 276 b 195 89 122 171 154 126 b 344 4 236 52 286 24 b 540 -25 403 -15 468 -25 b 765 23 622 -25 697 -9 b 943 153 834 55 893 98 b 1060 346 993 207 1032 272 b 1103 582 1089 420 1103 499 b 1069 760 1103 648 1092 707 b 975 894 1047 813 1016 857 b 828 978 934 930 885 959 b 638 1008 772 998 708 1008 z m 540 125 b 413 149 492 125 450 133 b 319 212 375 164 344 185 b 263 305 294 238 275 269 b 243 419 250 341 243 379 b 270 582 243 475 252 529 b 347 724 288 635 314 682 b 469 824 381 765 421 799 b 629 861 516 849 570 861 b 757 838 677 861 720 853 b 850 774 794 822 825 801 b 907 681 875 748 894 717 b 926 567 920 644 926 606 b 901 404 926 511 918 457 b 826 263 884 351 859 304 b 705 163 793 221 753 188 b 540 125 657 138 602 125 z m 796 1061 l 946 1061 l 824 1261 l 640 1261 l 446 1061 l 601 1061 l 721 1188 z "},"Õ":{"ha":1151,"x_min":0,"x_max":0,"o":"m 638 1008 b 411 960 556 1008 481 992 b 231 831 342 928 281 885 b 110 638 180 776 140 712 b 67 401 81 563 67 485 b 100 224 67 336 78 276 b 195 89 122 171 154 126 b 344 4 236 52 286 24 b 540 -25 403 -15 468 -25 b 765 23 622 -25 697 -9 b 943 153 834 55 893 98 b 1060 346 993 207 1032 272 b 1103 582 1089 420 1103 499 b 1069 760 1103 648 1092 707 b 975 894 1047 813 1016 857 b 828 978 934 930 885 959 b 638 1008 772 998 708 1008 z m 540 125 b 413 149 492 125 450 133 b 319 212 375 164 344 185 b 263 305 294 238 275 269 b 243 419 250 341 243 379 b 270 582 243 475 252 529 b 347 724 288 635 314 682 b 469 824 381 765 421 799 b 629 861 516 849 570 861 b 757 838 677 861 720 853 b 850 774 794 822 825 801 b 907 681 875 748 894 717 b 926 567 920 644 926 606 b 901 404 926 511 918 457 b 826 263 884 351 859 304 b 705 163 793 221 753 188 b 540 125 657 138 602 125 z m 421 1067 l 513 1067 b 542 1110 520 1082 530 1097 b 588 1129 554 1123 569 1129 b 632 1121 601 1129 616 1126 b 682 1100 648 1115 664 1108 b 728 1083 697 1093 712 1087 b 778 1076 744 1078 760 1076 b 847 1091 804 1076 827 1081 b 899 1130 866 1101 884 1114 b 937 1185 913 1146 926 1165 b 964 1250 947 1206 956 1228 l 872 1250 b 844 1208 865 1234 855 1220 b 799 1189 832 1195 817 1189 b 758 1197 786 1189 772 1191 b 713 1215 743 1202 728 1208 b 663 1233 697 1223 680 1229 b 608 1240 645 1238 627 1240 b 540 1226 582 1240 559 1235 b 487 1187 520 1216 502 1203 b 448 1131 472 1171 459 1152 b 421 1067 437 1110 428 1089 z "},"Ö":{"ha":1151,"x_min":0,"x_max":0,"o":"m 638 1008 b 411 960 556 1008 481 992 b 231 831 342 928 281 885 b 110 638 180 776 140 712 b 67 401 81 563 67 485 b 100 224 67 336 78 276 b 195 89 122 171 154 126 b 344 4 236 52 286 24 b 540 -25 403 -15 468 -25 b 765 23 622 -25 697 -9 b 943 153 834 55 893 98 b 1060 346 993 207 1032 272 b 1103 582 1089 420 1103 499 b 1069 760 1103 648 1092 707 b 975 894 1047 813 1016 857 b 828 978 934 930 885 959 b 638 1008 772 998 708 1008 z m 540 125 b 413 149 492 125 450 133 b 319 212 375 164 344 185 b 263 305 294 238 275 269 b 243 419 250 341 243 379 b 270 582 243 475 252 529 b 347 724 288 635 314 682 b 469 824 381 765 421 799 b 629 861 516 849 570 861 b 757 838 677 861 720 853 b 850 774 794 822 825 801 b 907 681 875 748 894 717 b 926 567 920 644 926 606 b 901 404 926 511 918 457 b 826 263 884 351 859 304 b 705 163 793 221 753 188 b 540 125 657 138 602 125 z m 653 1175 b 627 1244 653 1205 644 1228 b 561 1268 610 1260 588 1268 b 492 1241 534 1268 511 1259 b 463 1169 472 1223 463 1199 b 490 1101 463 1140 472 1117 b 557 1076 508 1084 530 1076 b 626 1106 585 1076 608 1086 b 653 1175 644 1125 653 1148 z m 928 1175 b 902 1244 928 1205 919 1228 b 836 1268 885 1260 863 1268 b 767 1241 809 1268 786 1259 b 738 1169 747 1223 738 1199 b 765 1101 738 1140 747 1117 b 832 1076 783 1084 805 1076 b 901 1106 860 1076 883 1086 b 928 1175 919 1125 928 1148 z "},"×":{"ha":925,"x_min":0,"x_max":0,"o":"m 463 519 l 208 774 l 108 675 l 364 417 l 107 164 l 210 63 l 461 314 l 715 63 l 818 165 l 561 424 l 813 675 l 715 772 z "},"Ø":{"ha":1151,"x_min":0,"x_max":0,"o":"m 1088 1033 l 956 911 b 813 983 914 943 866 967 b 638 1008 760 1000 701 1008 b 411 960 556 1008 481 992 b 231 831 342 928 281 885 b 110 638 180 776 140 712 b 67 401 81 563 67 485 b 135 158 67 306 89 225 l 0 35 l 58 -25 l 190 94 b 342 6 232 56 282 26 b 540 -25 401 -15 467 -25 b 765 23 622 -25 697 -9 b 943 153 834 55 893 98 b 1060 346 993 207 1032 272 b 1103 582 1089 420 1103 499 b 1080 733 1103 638 1095 688 b 1014 853 1065 778 1043 818 l 1146 974 z m 315 208 l 889 733 b 931 568 917 684 931 629 b 905 403 931 512 922 456 b 829 259 888 349 863 301 b 706 158 796 217 755 183 b 539 119 658 132 602 119 b 408 143 489 119 445 127 b 315 208 371 159 340 181 z m 836 799 l 265 278 b 243 344 255 298 248 320 b 236 417 238 367 236 392 b 264 583 236 473 245 528 b 342 727 282 637 309 685 b 466 829 376 769 417 803 b 631 868 515 855 569 868 b 747 849 674 868 713 862 b 836 799 780 837 810 820 z "},"Ù":{"ha":992,"x_min":0,"x_max":0,"o":"m 879 361 l 989 983 l 817 983 l 708 368 b 685 281 703 339 695 310 b 640 203 675 252 660 226 b 565 147 621 180 596 161 b 451 125 535 132 497 125 b 362 140 416 125 386 130 b 301 179 337 149 317 163 b 267 236 286 196 274 215 b 257 304 260 257 257 280 b 258 336 257 314 257 325 b 263 368 259 347 261 358 l 371 983 l 200 983 l 90 361 b 85 321 88 347 86 334 b 83 282 84 308 83 295 b 108 155 83 235 92 192 b 181 58 125 117 149 85 b 296 -3 212 31 250 11 b 449 -25 341 -18 392 -25 b 617 3 512 -25 568 -16 b 743 81 666 21 708 47 b 830 202 778 114 807 154 b 879 361 853 250 869 303 z m 689 1061 l 551 1261 l 368 1261 l 564 1061 z "},"Ú":{"ha":992,"x_min":0,"x_max":0,"o":"m 879 361 l 989 983 l 817 983 l 708 368 b 685 281 703 339 695 310 b 640 203 675 252 660 226 b 565 147 621 180 596 161 b 451 125 535 132 497 125 b 362 140 416 125 386 130 b 301 179 337 149 317 163 b 267 236 286 196 274 215 b 257 304 260 257 257 280 b 258 336 257 314 257 325 b 263 368 259 347 261 358 l 371 983 l 200 983 l 90 361 b 85 321 88 347 86 334 b 83 282 84 308 83 295 b 108 155 83 235 92 192 b 181 58 125 117 149 85 b 296 -3 212 31 250 11 b 449 -25 341 -18 392 -25 b 617 3 512 -25 568 -16 b 743 81 666 21 708 47 b 830 202 778 114 807 154 b 879 361 853 250 869 303 z m 632 1061 l 861 1261 l 676 1261 l 503 1061 z "},"Û":{"ha":992,"x_min":0,"x_max":0,"o":"m 879 361 l 989 983 l 817 983 l 708 368 b 685 281 703 339 695 310 b 640 203 675 252 660 226 b 565 147 621 180 596 161 b 451 125 535 132 497 125 b 362 140 416 125 386 130 b 301 179 337 149 317 163 b 267 236 286 196 274 215 b 257 304 260 257 257 280 b 258 336 257 314 257 325 b 263 368 259 347 261 358 l 371 983 l 200 983 l 90 361 b 85 321 88 347 86 334 b 83 282 84 308 83 295 b 108 155 83 235 92 192 b 181 58 125 117 149 85 b 296 -3 212 31 250 11 b 449 -25 341 -18 392 -25 b 617 3 512 -25 568 -16 b 743 81 666 21 708 47 b 830 202 778 114 807 154 b 879 361 853 250 869 303 z m 703 1061 l 853 1061 l 731 1261 l 547 1261 l 353 1061 l 508 1061 l 628 1188 z "},"Ü":{"ha":992,"x_min":0,"x_max":0,"o":"m 879 361 l 989 983 l 817 983 l 708 368 b 685 281 703 339 695 310 b 640 203 675 252 660 226 b 565 147 621 180 596 161 b 451 125 535 132 497 125 b 362 140 416 125 386 130 b 301 179 337 149 317 163 b 267 236 286 196 274 215 b 257 304 260 257 257 280 b 258 336 257 314 257 325 b 263 368 259 347 261 358 l 371 983 l 200 983 l 90 361 b 85 321 88 347 86 334 b 83 282 84 308 83 295 b 108 155 83 235 92 192 b 181 58 125 117 149 85 b 296 -3 212 31 250 11 b 449 -25 341 -18 392 -25 b 617 3 512 -25 568 -16 b 743 81 666 21 708 47 b 830 202 778 114 807 154 b 879 361 853 250 869 303 z m 571 1175 b 545 1244 571 1205 562 1228 b 479 1268 528 1260 506 1268 b 410 1241 452 1268 429 1259 b 381 1169 390 1223 381 1199 b 408 1101 381 1140 390 1117 b 475 1076 426 1084 448 1076 b 544 1106 503 1076 526 1086 b 571 1175 562 1125 571 1148 z m 846 1175 b 820 1244 846 1205 837 1228 b 754 1268 803 1260 781 1268 b 685 1241 727 1268 704 1259 b 656 1169 665 1223 656 1199 b 683 1101 656 1140 665 1117 b 750 1076 701 1084 723 1076 b 819 1106 778 1076 801 1086 b 846 1175 837 1125 846 1148 z "},"Ý":{"ha":799,"x_min":0,"x_max":0,"o":"m 476 426 l 951 983 l 743 983 l 414 567 l 250 983 l 58 983 l 304 426 l 229 0 l 400 0 z m 557 1061 l 786 1261 l 601 1261 l 428 1061 z "},"Þ":{"ha":846,"x_min":0,"x_max":0,"o":"m 471 792 l 344 792 l 378 983 l 208 983 l 35 0 l 204 0 l 243 218 l 392 218 b 560 238 453 218 509 225 b 691 297 611 250 654 270 b 776 395 728 323 756 356 b 806 533 796 434 806 481 b 719 724 806 615 777 678 b 471 792 662 769 579 792 z m 399 363 l 268 363 l 319 647 l 444 647 b 582 619 502 647 548 638 b 633 517 616 600 633 566 b 572 400 633 464 613 425 b 399 363 531 375 474 363 z "},"ß":{"ha":871,"x_min":0,"x_max":0,"o":"m 406 -17 b 566 10 464 -17 517 -8 b 691 86 615 28 656 54 b 772 201 726 119 753 157 b 800 344 791 245 800 293 b 749 498 800 403 783 454 b 615 586 716 542 671 571 l 615 589 b 686 618 640 595 664 605 b 744 666 708 631 728 647 b 785 733 761 685 775 707 b 800 819 795 758 800 787 b 778 924 800 858 793 893 b 717 1001 763 954 743 980 b 628 1050 692 1023 662 1039 b 518 1067 594 1061 557 1067 b 364 1037 458 1067 406 1057 b 257 958 321 1017 286 991 b 190 843 228 925 206 887 b 153 707 173 800 161 754 l 28 0 l 192 0 l 315 699 b 334 776 320 724 326 749 b 368 849 342 802 353 826 b 424 903 383 871 402 889 b 508 924 447 917 475 924 b 604 886 550 924 582 911 b 638 803 626 861 638 833 b 623 732 638 775 633 751 b 585 684 613 713 600 697 b 531 656 569 672 551 662 b 472 647 511 650 492 647 l 453 647 l 428 508 l 446 508 b 517 497 471 508 494 504 b 576 463 539 489 559 478 b 617 411 593 449 606 431 b 632 342 627 391 632 368 b 615 249 632 307 626 277 b 566 181 603 222 587 199 b 492 138 545 162 520 148 b 399 122 463 127 432 122 b 349 126 385 122 368 123 b 303 136 329 128 314 131 l 278 -1 b 342 -13 298 -7 320 -11 b 406 -17 365 -16 386 -17 z "},"à":{"ha":749,"x_min":0,"x_max":0,"o":"m 496 422 b 328 413 441 422 385 419 b 174 374 272 406 220 393 b 60 295 127 355 90 329 b 17 163 31 261 17 217 b 36 77 17 128 23 100 b 86 23 49 54 66 36 b 154 -6 106 9 129 0 b 226 -14 179 -11 203 -14 b 443 79 319 -14 391 17 l 446 79 b 438 0 440 51 438 25 l 588 0 b 592 69 588 19 589 42 b 604 150 596 97 600 124 l 653 421 b 657 453 655 430 656 441 b 658 483 658 465 658 475 b 636 578 658 521 651 553 b 577 640 621 604 602 625 b 494 674 553 656 525 667 b 400 685 463 681 431 685 b 251 662 349 685 299 677 b 121 599 202 647 159 625 l 183 489 b 276 537 210 508 241 524 b 376 556 310 549 344 556 b 469 535 417 556 448 549 b 500 465 490 521 500 498 b 499 448 500 460 500 454 b 496 422 499 442 498 433 z m 461 306 l 481 306 l 472 264 b 449 202 468 242 460 221 b 409 152 439 183 425 166 b 352 118 393 138 374 126 b 282 106 330 110 307 106 b 242 110 268 106 255 107 b 207 124 229 113 217 117 b 183 149 197 130 189 139 b 174 189 177 160 174 173 b 201 251 174 215 183 235 b 270 286 219 266 242 278 b 363 302 298 294 329 300 b 461 306 397 304 430 306 z m 493 783 l 356 983 l 172 983 l 368 783 z "},"á":{"ha":749,"x_min":0,"x_max":0,"o":"m 496 422 b 328 413 441 422 385 419 b 174 374 272 406 220 393 b 60 295 127 355 90 329 b 17 163 31 261 17 217 b 36 77 17 128 23 100 b 86 23 49 54 66 36 b 154 -6 106 9 129 0 b 226 -14 179 -11 203 -14 b 443 79 319 -14 391 17 l 446 79 b 438 0 440 51 438 25 l 588 0 b 592 69 588 19 589 42 b 604 150 596 97 600 124 l 653 421 b 657 453 655 430 656 441 b 658 483 658 465 658 475 b 636 578 658 521 651 553 b 577 640 621 604 602 625 b 494 674 553 656 525 667 b 400 685 463 681 431 685 b 251 662 349 685 299 677 b 121 599 202 647 159 625 l 183 489 b 276 537 210 508 241 524 b 376 556 310 549 344 556 b 469 535 417 556 448 549 b 500 465 490 521 500 498 b 499 448 500 460 500 454 b 496 422 499 442 498 433 z m 461 306 l 481 306 l 472 264 b 449 202 468 242 460 221 b 409 152 439 183 425 166 b 352 118 393 138 374 126 b 282 106 330 110 307 106 b 242 110 268 106 255 107 b 207 124 229 113 217 117 b 183 149 197 130 189 139 b 174 189 177 160 174 173 b 201 251 174 215 183 235 b 270 286 219 266 242 278 b 363 302 298 294 329 300 b 461 306 397 304 430 306 z m 471 783 l 700 983 l 515 983 l 342 783 z "},"â":{"ha":749,"x_min":0,"x_max":0,"o":"m 496 422 b 328 413 441 422 385 419 b 174 374 272 406 220 393 b 60 295 127 355 90 329 b 17 163 31 261 17 217 b 36 77 17 128 23 100 b 86 23 49 54 66 36 b 154 -6 106 9 129 0 b 226 -14 179 -11 203 -14 b 443 79 319 -14 391 17 l 446 79 b 438 0 440 51 438 25 l 588 0 b 592 69 588 19 589 42 b 604 150 596 97 600 124 l 653 421 b 657 453 655 430 656 441 b 658 483 658 465 658 475 b 636 578 658 521 651 553 b 577 640 621 604 602 625 b 494 674 553 656 525 667 b 400 685 463 681 431 685 b 251 662 349 685 299 677 b 121 599 202 647 159 625 l 183 489 b 276 537 210 508 241 524 b 376 556 310 549 344 556 b 469 535 417 556 448 549 b 500 465 490 521 500 498 b 499 448 500 460 500 454 b 496 422 499 442 498 433 z m 461 306 l 481 306 l 472 264 b 449 202 468 242 460 221 b 409 152 439 183 425 166 b 352 118 393 138 374 126 b 282 106 330 110 307 106 b 242 110 268 106 255 107 b 207 124 229 113 217 117 b 183 149 197 130 189 139 b 174 189 177 160 174 173 b 201 251 174 215 183 235 b 270 286 219 266 242 278 b 363 302 298 294 329 300 b 461 306 397 304 430 306 z m 529 783 l 679 783 l 557 983 l 374 983 l 179 783 l 335 783 l 454 910 z "},"ã":{"ha":749,"x_min":0,"x_max":0,"o":"m 496 422 b 328 413 441 422 385 419 b 174 374 272 406 220 393 b 60 295 127 355 90 329 b 17 163 31 261 17 217 b 36 77 17 128 23 100 b 86 23 49 54 66 36 b 154 -6 106 9 129 0 b 226 -14 179 -11 203 -14 b 443 79 319 -14 391 17 l 446 79 b 438 0 440 51 438 25 l 588 0 b 592 69 588 19 589 42 b 604 150 596 97 600 124 l 653 421 b 657 453 655 430 656 441 b 658 483 658 465 658 475 b 636 578 658 521 651 553 b 577 640 621 604 602 625 b 494 674 553 656 525 667 b 400 685 463 681 431 685 b 251 662 349 685 299 677 b 121 599 202 647 159 625 l 183 489 b 276 537 210 508 241 524 b 376 556 310 549 344 556 b 469 535 417 556 448 549 b 500 465 490 521 500 498 b 499 448 500 460 500 454 b 496 422 499 442 498 433 z m 461 306 l 481 306 l 472 264 b 449 202 468 242 460 221 b 409 152 439 183 425 166 b 352 118 393 138 374 126 b 282 106 330 110 307 106 b 242 110 268 106 255 107 b 207 124 229 113 217 117 b 183 149 197 130 189 139 b 174 189 177 160 174 173 b 201 251 174 215 183 235 b 270 286 219 266 242 278 b 363 302 298 294 329 300 b 461 306 397 304 430 306 z m 164 789 l 256 789 b 285 832 263 805 273 819 b 331 851 297 845 312 851 b 375 843 344 851 359 849 b 425 822 391 838 407 831 b 471 805 440 815 455 809 b 521 799 487 801 503 799 b 590 813 547 799 570 803 b 642 852 609 823 627 836 b 680 908 656 868 669 887 b 707 972 691 928 700 950 l 615 972 b 587 930 608 956 598 942 b 542 911 575 917 560 911 b 501 919 529 911 515 914 b 456 938 486 924 471 930 b 406 956 440 945 423 951 b 351 963 388 960 370 963 b 283 948 325 963 303 958 b 230 909 263 938 245 925 b 191 853 215 893 202 874 b 164 789 180 833 171 811 z "},"ä":{"ha":749,"x_min":0,"x_max":0,"o":"m 496 422 b 328 413 441 422 385 419 b 174 374 272 406 220 393 b 60 295 127 355 90 329 b 17 163 31 261 17 217 b 36 77 17 128 23 100 b 86 23 49 54 66 36 b 154 -6 106 9 129 0 b 226 -14 179 -11 203 -14 b 443 79 319 -14 391 17 l 446 79 b 438 0 440 51 438 25 l 588 0 b 592 69 588 19 589 42 b 604 150 596 97 600 124 l 653 421 b 657 453 655 430 656 441 b 658 483 658 465 658 475 b 636 578 658 521 651 553 b 577 640 621 604 602 625 b 494 674 553 656 525 667 b 400 685 463 681 431 685 b 251 662 349 685 299 677 b 121 599 202 647 159 625 l 183 489 b 276 537 210 508 241 524 b 376 556 310 549 344 556 b 469 535 417 556 448 549 b 500 465 490 521 500 498 b 499 448 500 460 500 454 b 496 422 499 442 498 433 z m 461 306 l 481 306 l 472 264 b 449 202 468 242 460 221 b 409 152 439 183 425 166 b 352 118 393 138 374 126 b 282 106 330 110 307 106 b 242 110 268 106 255 107 b 207 124 229 113 217 117 b 183 149 197 130 189 139 b 174 189 177 160 174 173 b 201 251 174 215 183 235 b 270 286 219 266 242 278 b 363 302 298 294 329 300 b 461 306 397 304 430 306 z m 394 897 b 369 966 394 927 386 950 b 303 990 352 982 330 990 b 233 963 276 990 253 981 b 204 892 214 945 204 921 b 231 823 204 862 213 839 b 299 799 249 807 272 799 b 367 828 326 799 349 808 b 394 897 385 847 394 870 z m 669 897 b 644 966 669 927 661 950 b 578 990 627 982 605 990 b 508 963 551 990 528 981 b 479 892 489 945 479 921 b 506 823 479 862 488 839 b 574 799 524 807 547 799 b 642 828 601 799 624 808 b 669 897 660 847 669 870 z "},"å":{"ha":749,"x_min":0,"x_max":0,"o":"m 496 422 b 328 413 441 422 385 419 b 174 374 272 406 220 393 b 60 295 127 355 90 329 b 17 163 31 261 17 217 b 36 77 17 128 23 100 b 86 23 49 54 66 36 b 154 -6 106 9 129 0 b 226 -14 179 -11 203 -14 b 443 79 319 -14 391 17 l 446 79 b 438 0 440 51 438 25 l 588 0 b 592 69 588 19 589 42 b 604 150 596 97 600 124 l 653 421 b 657 453 655 430 656 441 b 658 483 658 465 658 475 b 636 578 658 521 651 553 b 577 640 621 604 602 625 b 494 674 553 656 525 667 b 400 685 463 681 431 685 b 251 662 349 685 299 677 b 121 599 202 647 159 625 l 183 489 b 276 537 210 508 241 524 b 376 556 310 549 344 556 b 469 535 417 556 448 549 b 500 465 490 521 500 498 b 499 448 500 460 500 454 b 496 422 499 442 498 433 z m 461 306 l 481 306 l 472 264 b 449 202 468 242 460 221 b 409 152 439 183 425 166 b 352 118 393 138 374 126 b 282 106 330 110 307 106 b 242 110 268 106 255 107 b 207 124 229 113 217 117 b 183 149 197 130 189 139 b 174 189 177 160 174 173 b 201 251 174 215 183 235 b 270 286 219 266 242 278 b 363 302 298 294 329 300 b 461 306 397 304 430 306 z m 422 768 b 536 815 469 768 506 784 b 581 932 566 846 581 885 b 547 1017 581 966 569 994 b 457 1050 524 1039 494 1050 b 393 1038 434 1050 413 1046 b 342 1003 374 1029 357 1018 b 309 951 328 988 317 971 b 297 888 301 931 297 910 b 332 802 297 853 309 825 b 422 768 355 779 385 768 z m 513 919 b 489 855 513 894 505 872 b 426 829 473 838 452 829 b 381 849 407 829 392 836 b 365 896 371 862 365 877 b 389 963 365 923 373 945 b 450 989 405 980 425 989 b 496 968 469 989 485 982 b 513 919 507 954 513 938 z "},"æ":{"ha":1229,"x_min":0,"x_max":0,"o":"m 874 685 b 724 651 815 685 765 673 b 625 571 682 628 649 601 b 558 654 613 606 591 634 b 414 685 525 675 477 685 b 265 662 363 685 313 677 b 135 599 216 647 173 625 l 197 489 b 290 537 224 508 255 524 b 390 556 324 549 358 556 b 478 535 425 556 455 549 b 514 463 502 522 514 498 b 512 435 514 457 513 448 b 506 399 510 422 508 410 b 331 392 447 399 389 397 b 174 363 272 388 220 378 b 60 294 127 348 90 325 b 17 167 31 263 17 220 b 40 78 17 131 25 101 b 99 22 56 55 76 36 b 176 -6 123 8 149 -1 b 254 -14 204 -11 230 -14 b 360 -2 294 -14 329 -10 b 440 28 390 6 417 16 b 497 71 462 41 481 55 b 536 118 513 87 526 102 b 636 15 556 73 590 38 b 796 -19 682 -8 736 -19 b 1097 114 914 -19 1015 25 l 1004 201 b 923 138 980 175 953 153 b 814 114 893 122 856 114 b 744 126 789 114 766 118 b 689 158 723 134 705 144 b 652 206 673 171 661 187 b 639 267 643 224 639 244 b 640 282 639 272 639 277 l 1135 282 b 1147 356 1140 305 1144 330 b 1151 418 1150 383 1151 403 b 1131 535 1151 463 1144 501 b 1072 618 1117 568 1097 596 b 984 668 1047 640 1018 657 b 874 685 950 679 913 685 z m 488 282 l 483 258 b 422 147 475 211 455 174 b 286 107 390 120 344 107 b 208 124 256 107 231 113 b 175 188 186 136 175 157 b 194 235 175 207 181 223 b 249 263 207 247 226 256 b 333 278 273 270 301 275 b 442 282 366 281 402 282 z m 1001 399 l 656 399 b 678 454 659 416 667 435 b 720 508 689 474 703 491 b 781 547 737 524 757 537 b 858 563 804 557 830 563 b 966 525 905 563 941 550 b 1004 433 991 500 1004 469 b 1003 417 1004 428 1004 422 b 1001 399 1003 411 1002 405 z "},"ç":{"ha":683,"x_min":0,"x_max":0,"o":"m 492 -192 b 479 -142 492 -172 488 -156 b 448 -110 471 -129 460 -118 b 408 -92 435 -101 422 -96 b 367 -87 393 -89 380 -87 l 355 -87 b 339 -90 351 -87 345 -88 l 404 -15 b 531 23 451 -10 494 3 b 632 97 568 43 601 68 l 539 192 b 469 138 518 170 494 153 b 368 117 443 124 410 117 b 292 131 338 117 313 122 b 239 170 270 141 253 154 b 208 226 225 186 215 205 b 199 292 202 247 199 269 b 217 390 199 326 205 359 b 266 474 229 422 245 450 b 341 531 287 498 312 517 b 436 551 370 544 402 551 b 518 530 466 551 493 544 b 574 478 543 516 562 498 l 690 572 b 587 658 666 611 632 640 b 444 685 542 676 494 685 b 277 651 383 685 328 673 b 149 559 227 628 184 597 b 67 426 113 521 86 476 b 38 271 47 376 38 325 b 58 159 38 230 44 193 b 115 71 71 125 90 96 b 206 11 140 46 170 26 b 324 -17 241 -4 280 -13 l 231 -125 l 256 -160 b 285 -153 265 -157 275 -155 b 311 -151 295 -152 304 -151 b 356 -160 327 -151 342 -154 b 376 -201 369 -166 376 -180 b 367 -231 376 -213 373 -223 b 344 -248 360 -238 353 -244 b 315 -256 335 -252 325 -255 b 286 -258 304 -258 294 -258 b 178 -231 246 -258 210 -249 l 140 -297 b 210 -323 159 -307 182 -316 b 292 -333 238 -330 265 -333 b 358 -326 312 -333 334 -331 b 423 -303 381 -322 403 -314 b 472 -259 443 -292 459 -277 b 492 -192 485 -241 492 -219 z "},"è":{"ha":783,"x_min":0,"x_max":0,"o":"m 194 282 l 689 282 b 701 356 694 305 699 330 b 706 418 704 383 706 403 b 685 535 706 463 699 501 b 626 618 671 568 651 596 b 538 668 601 640 572 657 b 428 685 504 679 468 685 b 272 653 371 685 319 674 b 148 567 224 633 183 604 b 67 437 113 530 86 486 b 38 276 47 387 38 334 b 61 151 37 229 45 187 b 126 58 77 114 99 83 b 225 1 154 33 187 14 b 350 -19 263 -13 305 -19 b 651 114 469 -19 569 25 l 558 201 b 477 138 534 175 507 153 b 368 114 447 122 411 114 b 299 126 343 114 320 118 b 243 158 277 134 259 144 b 206 206 227 171 215 187 b 193 267 197 224 193 244 b 194 282 193 272 194 277 z m 556 399 l 210 399 b 232 454 213 416 221 435 b 274 508 243 474 257 491 b 335 547 291 524 312 537 b 413 563 358 557 384 563 b 520 525 459 563 495 550 b 558 433 546 500 558 469 b 558 417 558 428 558 422 b 556 399 557 411 556 405 z m 507 783 l 369 983 l 186 983 l 382 783 z "},"é":{"ha":783,"x_min":0,"x_max":0,"o":"m 194 282 l 689 282 b 701 356 694 305 699 330 b 706 418 704 383 706 403 b 685 535 706 463 699 501 b 626 618 671 568 651 596 b 538 668 601 640 572 657 b 428 685 504 679 468 685 b 272 653 371 685 319 674 b 148 567 224 633 183 604 b 67 437 113 530 86 486 b 38 276 47 387 38 334 b 61 151 37 229 45 187 b 126 58 77 114 99 83 b 225 1 154 33 187 14 b 350 -19 263 -13 305 -19 b 651 114 469 -19 569 25 l 558 201 b 477 138 534 175 507 153 b 368 114 447 122 411 114 b 299 126 343 114 320 118 b 243 158 277 134 259 144 b 206 206 227 171 215 187 b 193 267 197 224 193 244 b 194 282 193 272 194 277 z m 556 399 l 210 399 b 232 454 213 416 221 435 b 274 508 243 474 257 491 b 335 547 291 524 312 537 b 413 563 358 557 384 563 b 520 525 459 563 495 550 b 558 433 546 500 558 469 b 558 417 558 428 558 422 b 556 399 557 411 556 405 z m 471 783 l 700 983 l 515 983 l 342 783 z "},"ê":{"ha":783,"x_min":0,"x_max":0,"o":"m 194 282 l 689 282 b 701 356 694 305 699 330 b 706 418 704 383 706 403 b 685 535 706 463 699 501 b 626 618 671 568 651 596 b 538 668 601 640 572 657 b 428 685 504 679 468 685 b 272 653 371 685 319 674 b 148 567 224 633 183 604 b 67 437 113 530 86 486 b 38 276 47 387 38 334 b 61 151 37 229 45 187 b 126 58 77 114 99 83 b 225 1 154 33 187 14 b 350 -19 263 -13 305 -19 b 651 114 469 -19 569 25 l 558 201 b 477 138 534 175 507 153 b 368 114 447 122 411 114 b 299 126 343 114 320 118 b 243 158 277 134 259 144 b 206 206 227 171 215 187 b 193 267 197 224 193 244 b 194 282 193 272 194 277 z m 556 399 l 210 399 b 232 454 213 416 221 435 b 274 508 243 474 257 491 b 335 547 291 524 312 537 b 413 563 358 557 384 563 b 520 525 459 563 495 550 b 558 433 546 500 558 469 b 558 417 558 428 558 422 b 556 399 557 411 556 405 z m 572 783 l 722 783 l 600 983 l 417 983 l 222 783 l 378 783 l 497 910 z "},"ë":{"ha":783,"x_min":0,"x_max":0,"o":"m 194 282 l 689 282 b 701 356 694 305 699 330 b 706 418 704 383 706 403 b 685 535 706 463 699 501 b 626 618 671 568 651 596 b 538 668 601 640 572 657 b 428 685 504 679 468 685 b 272 653 371 685 319 674 b 148 567 224 633 183 604 b 67 437 113 530 86 486 b 38 276 47 387 38 334 b 61 151 37 229 45 187 b 126 58 77 114 99 83 b 225 1 154 33 187 14 b 350 -19 263 -13 305 -19 b 651 114 469 -19 569 25 l 558 201 b 477 138 534 175 507 153 b 368 114 447 122 411 114 b 299 126 343 114 320 118 b 243 158 277 134 259 144 b 206 206 227 171 215 187 b 193 267 197 224 193 244 b 194 282 193 272 194 277 z m 556 399 l 210 399 b 232 454 213 416 221 435 b 274 508 243 474 257 491 b 335 547 291 524 312 537 b 413 563 358 557 384 563 b 520 525 459 563 495 550 b 558 433 546 500 558 469 b 558 417 558 428 558 422 b 556 399 557 411 556 405 z m 435 897 b 409 966 435 927 426 950 b 343 990 392 982 370 990 b 274 963 316 990 293 981 b 244 892 254 945 244 921 b 272 823 244 862 253 839 b 339 799 290 807 312 799 b 408 828 367 799 390 808 b 435 897 426 847 435 870 z m 710 897 b 684 966 710 927 701 950 b 618 990 667 982 645 990 b 549 963 591 990 568 981 b 519 892 529 945 519 921 b 547 823 519 862 528 839 b 614 799 565 807 587 799 b 683 828 642 799 665 808 b 710 897 701 847 710 870 z "},"ì":{"ha":371,"x_min":0,"x_max":0,"o":"m 29 0 l 192 0 l 310 667 l 146 667 z m 317 783 l 179 983 l -4 983 l 192 783 z "},"í":{"ha":371,"x_min":0,"x_max":0,"o":"m 29 0 l 192 0 l 310 667 l 146 667 z m 289 783 l 518 983 l 333 983 l 160 783 z "},"î":{"ha":371,"x_min":0,"x_max":0,"o":"m 29 0 l 192 0 l 310 667 l 146 667 z m 343 783 l 493 783 l 371 983 l 188 983 l -7 783 l 149 783 l 268 910 z "},"ï":{"ha":371,"x_min":0,"x_max":0,"o":"m 29 0 l 192 0 l 310 667 l 146 667 z m 219 897 b 194 966 219 927 211 950 b 128 990 177 982 155 990 b 58 963 101 990 78 981 b 29 892 39 945 29 921 b 56 823 29 862 38 839 b 124 799 74 807 97 799 b 192 828 151 799 174 808 b 219 897 210 847 219 870 z m 494 897 b 469 966 494 927 486 950 b 403 990 452 982 430 990 b 333 963 376 990 353 981 b 304 892 314 945 304 921 b 331 823 304 862 313 839 b 399 799 349 807 372 799 b 467 828 426 799 449 808 b 494 897 485 847 494 870 z "},"ð":{"ha":839,"x_min":0,"x_max":0,"o":"m 768 433 b 722 701 768 531 753 621 b 600 911 691 781 650 851 l 775 986 l 701 1063 l 532 989 b 490 1034 523 999 509 1014 b 429 1092 471 1054 450 1073 l 296 1019 b 347 974 313 1005 329 989 b 389 929 364 958 378 943 l 224 858 l 292 781 l 454 851 b 535 749 486 821 513 787 b 590 642 557 711 575 675 l 588 639 b 521 673 572 654 550 665 b 429 685 492 681 462 685 b 265 649 368 685 313 673 b 142 556 216 626 175 595 b 65 424 108 518 83 474 b 38 272 47 375 38 324 b 62 154 38 229 46 189 b 129 63 78 119 100 88 b 231 3 158 37 192 17 b 360 -18 271 -11 313 -18 b 544 22 431 -18 492 -5 b 671 124 595 48 638 82 b 744 269 704 166 729 215 b 768 433 760 323 768 378 z m 600 379 b 583 278 600 344 594 310 b 537 194 572 247 557 219 b 464 138 517 170 493 151 b 368 117 435 124 403 117 b 243 165 314 117 273 133 b 199 289 213 198 199 239 b 215 389 199 324 204 357 b 262 472 226 420 242 448 b 334 530 282 496 306 516 b 429 551 362 544 394 551 b 554 503 482 551 524 535 b 600 379 585 470 600 429 z "},"ñ":{"ha":811,"x_min":0,"x_max":0,"o":"m 285 563 l 282 563 b 289 619 284 578 286 597 b 294 667 292 641 294 656 l 142 667 b 133 592 140 644 137 619 b 121 524 128 564 125 541 l 29 0 l 192 0 l 257 367 b 277 432 261 389 267 411 b 315 490 287 453 299 472 b 368 531 330 507 348 520 b 439 546 388 541 412 546 b 525 512 481 546 509 534 b 549 433 541 489 549 463 b 547 400 549 422 548 411 b 542 367 545 389 544 378 l 478 0 l 640 0 l 714 415 b 719 478 718 434 719 455 b 706 558 719 506 715 532 b 666 624 697 583 684 605 b 598 668 648 642 625 657 b 501 685 571 679 538 685 b 373 651 451 685 409 673 b 285 563 337 628 308 599 z m 214 789 l 306 789 b 335 832 313 805 323 819 b 381 851 347 845 362 851 b 425 843 394 851 409 849 b 475 822 441 838 457 831 b 521 805 490 815 505 809 b 571 799 537 801 553 799 b 640 813 597 799 620 803 b 692 852 659 823 677 836 b 730 908 706 868 719 887 b 757 972 741 928 750 950 l 665 972 b 637 930 658 956 648 942 b 592 911 625 917 610 911 b 551 919 579 911 565 914 b 506 938 536 924 521 930 b 456 956 490 945 473 951 b 401 963 438 960 420 963 b 333 948 375 963 353 958 b 280 909 313 938 295 925 b 241 853 265 893 252 874 b 214 789 230 833 221 811 z "},"ò":{"ha":839,"x_min":0,"x_max":0,"o":"m 360 -18 b 526 15 421 -18 476 -7 b 654 106 576 38 619 68 b 735 238 689 144 716 188 b 764 396 754 288 764 340 b 740 513 764 438 756 478 b 672 605 723 549 701 579 b 570 664 644 630 609 650 b 440 685 531 678 488 685 b 274 651 379 685 324 673 b 147 560 225 628 182 598 b 66 428 112 522 85 478 b 38 272 47 379 38 327 b 62 154 38 229 46 189 b 129 63 78 119 100 88 b 231 3 158 37 192 17 b 360 -18 271 -11 313 -18 z m 600 379 b 583 278 600 344 594 310 b 537 194 572 247 557 219 b 464 138 517 170 493 151 b 368 117 435 124 403 117 b 243 165 314 117 273 133 b 199 289 213 198 199 239 b 215 389 199 324 204 357 b 262 472 226 420 242 448 b 334 530 282 496 306 516 b 429 551 362 544 394 551 b 554 503 482 551 524 535 b 600 379 585 470 600 429 z m 521 783 l 383 983 l 200 983 l 396 783 z "},"ó":{"ha":839,"x_min":0,"x_max":0,"o":"m 360 -18 b 526 15 421 -18 476 -7 b 654 106 576 38 619 68 b 735 238 689 144 716 188 b 764 396 754 288 764 340 b 740 513 764 438 756 478 b 672 605 723 549 701 579 b 570 664 644 630 609 650 b 440 685 531 678 488 685 b 274 651 379 685 324 673 b 147 560 225 628 182 598 b 66 428 112 522 85 478 b 38 272 47 379 38 327 b 62 154 38 229 46 189 b 129 63 78 119 100 88 b 231 3 158 37 192 17 b 360 -18 271 -11 313 -18 z m 600 379 b 583 278 600 344 594 310 b 537 194 572 247 557 219 b 464 138 517 170 493 151 b 368 117 435 124 403 117 b 243 165 314 117 273 133 b 199 289 213 198 199 239 b 215 389 199 324 204 357 b 262 472 226 420 242 448 b 334 530 282 496 306 516 b 429 551 362 544 394 551 b 554 503 482 551 524 535 b 600 379 585 470 600 429 z m 504 783 l 733 983 l 549 983 l 375 783 z "},"ô":{"ha":839,"x_min":0,"x_max":0,"o":"m 360 -18 b 526 15 421 -18 476 -7 b 654 106 576 38 619 68 b 735 238 689 144 716 188 b 764 396 754 288 764 340 b 740 513 764 438 756 478 b 672 605 723 549 701 579 b 570 664 644 630 609 650 b 440 685 531 678 488 685 b 274 651 379 685 324 673 b 147 560 225 628 182 598 b 66 428 112 522 85 478 b 38 272 47 379 38 327 b 62 154 38 229 46 189 b 129 63 78 119 100 88 b 231 3 158 37 192 17 b 360 -18 271 -11 313 -18 z m 600 379 b 583 278 600 344 594 310 b 537 194 572 247 557 219 b 464 138 517 170 493 151 b 368 117 435 124 403 117 b 243 165 314 117 273 133 b 199 289 213 198 199 239 b 215 389 199 324 204 357 b 262 472 226 420 242 448 b 334 530 282 496 306 516 b 429 551 362 544 394 551 b 554 503 482 551 524 535 b 600 379 585 470 600 429 z m 582 783 l 732 783 l 610 983 l 426 983 l 232 783 l 388 783 l 507 910 z "},"õ":{"ha":839,"x_min":0,"x_max":0,"o":"m 360 -18 b 526 15 421 -18 476 -7 b 654 106 576 38 619 68 b 735 238 689 144 716 188 b 764 396 754 288 764 340 b 740 513 764 438 756 478 b 672 605 723 549 701 579 b 570 664 644 630 609 650 b 440 685 531 678 488 685 b 274 651 379 685 324 673 b 147 560 225 628 182 598 b 66 428 112 522 85 478 b 38 272 47 379 38 327 b 62 154 38 229 46 189 b 129 63 78 119 100 88 b 231 3 158 37 192 17 b 360 -18 271 -11 313 -18 z m 600 379 b 583 278 600 344 594 310 b 537 194 572 247 557 219 b 464 138 517 170 493 151 b 368 117 435 124 403 117 b 243 165 314 117 273 133 b 199 289 213 198 199 239 b 215 389 199 324 204 357 b 262 472 226 420 242 448 b 334 530 282 496 306 516 b 429 551 362 544 394 551 b 554 503 482 551 524 535 b 600 379 585 470 600 429 z m 219 789 l 311 789 b 340 832 319 805 328 819 b 386 851 352 845 368 851 b 431 843 400 851 415 849 b 481 822 446 838 463 831 b 526 805 495 815 511 809 b 576 799 542 801 559 799 b 645 813 602 799 625 803 b 697 852 665 823 682 836 b 735 908 712 868 725 887 b 763 972 746 928 755 950 l 671 972 b 642 930 663 956 654 942 b 597 911 631 917 616 911 b 556 919 584 911 571 914 b 511 938 542 924 527 930 b 461 956 495 945 479 951 b 407 963 444 960 425 963 b 338 948 381 963 358 958 b 285 909 318 938 301 925 b 247 853 270 893 257 874 b 219 789 236 833 227 811 z "},"ö":{"ha":839,"x_min":0,"x_max":0,"o":"m 360 -18 b 526 15 421 -18 476 -7 b 654 106 576 38 619 68 b 735 238 689 144 716 188 b 764 396 754 288 764 340 b 740 513 764 438 756 478 b 672 605 723 549 701 579 b 570 664 644 630 609 650 b 440 685 531 678 488 685 b 274 651 379 685 324 673 b 147 560 225 628 182 598 b 66 428 112 522 85 478 b 38 272 47 379 38 327 b 62 154 38 229 46 189 b 129 63 78 119 100 88 b 231 3 158 37 192 17 b 360 -18 271 -11 313 -18 z m 600 379 b 583 278 600 344 594 310 b 537 194 572 247 557 219 b 464 138 517 170 493 151 b 368 117 435 124 403 117 b 243 165 314 117 273 133 b 199 289 213 198 199 239 b 215 389 199 324 204 357 b 262 472 226 420 242 448 b 334 530 282 496 306 516 b 429 551 362 544 394 551 b 554 503 482 551 524 535 b 600 379 585 470 600 429 z m 450 897 b 424 966 450 927 441 950 b 358 990 407 982 385 990 b 289 963 331 990 308 981 b 260 892 269 945 260 921 b 287 823 260 862 269 839 b 354 799 305 807 327 799 b 423 828 382 799 405 808 b 450 897 441 847 450 870 z m 725 897 b 699 966 725 927 716 950 b 633 990 682 982 660 990 b 564 963 606 990 583 981 b 535 892 544 945 535 921 b 562 823 535 862 544 839 b 629 799 580 807 602 799 b 698 828 657 799 680 808 b 725 897 716 847 725 870 z "},"÷":{"ha":925,"x_min":0,"x_max":0,"o":"m 358 671 b 389 597 358 642 369 618 b 463 567 409 577 434 567 b 536 597 491 567 516 577 b 567 671 556 618 567 642 b 536 744 567 700 556 724 b 463 775 516 765 491 775 b 389 744 434 775 409 765 b 358 671 369 724 358 700 z m 358 171 b 389 97 358 142 369 118 b 463 67 409 77 434 67 b 536 97 491 67 516 77 b 567 171 556 118 567 142 b 536 244 567 200 556 224 b 463 275 516 265 491 275 b 389 244 434 275 409 265 b 358 171 369 224 358 200 z m 111 347 l 814 347 l 814 496 l 111 496 z "},"ø":{"ha":839,"x_min":0,"x_max":0,"o":"m 26 -37 l 136 56 b 236 1 165 31 198 13 b 360 -18 274 -12 315 -18 b 526 15 421 -18 476 -7 b 654 106 576 38 619 68 b 735 238 689 144 716 188 b 764 396 754 288 764 340 b 751 485 764 428 759 458 b 714 560 742 512 730 537 l 821 653 l 772 708 l 663 614 b 563 666 633 636 600 653 b 440 685 525 678 485 685 b 274 651 379 685 324 673 b 147 560 225 628 182 598 b 66 428 112 522 85 478 b 38 272 47 379 38 327 b 50 185 38 241 42 212 b 86 111 58 158 70 133 l -19 19 z m 546 510 l 211 218 b 199 289 203 238 199 262 b 215 389 199 324 204 357 b 262 472 226 420 242 448 b 334 530 282 496 306 516 b 429 551 362 544 394 551 b 546 510 476 551 515 538 z m 249 160 l 586 451 b 600 379 595 432 600 408 b 583 278 600 344 594 310 b 537 194 572 247 557 219 b 464 138 517 170 493 151 b 368 117 435 124 403 117 b 301 128 343 117 321 121 b 249 160 281 136 263 147 z "},"ù":{"ha":811,"x_min":0,"x_max":0,"o":"m 483 104 l 486 104 b 479 48 484 88 482 70 b 474 0 476 26 475 10 l 626 0 b 635 75 628 22 631 47 b 647 143 640 103 644 125 l 739 667 l 576 667 l 511 300 b 491 235 507 278 501 256 b 453 177 481 213 469 194 b 399 136 438 160 420 146 b 329 121 378 126 355 121 b 243 155 288 121 259 132 b 219 233 227 178 219 204 b 222 267 219 244 220 256 b 226 300 223 278 225 289 l 290 667 l 128 667 l 54 251 b 49 189 50 233 49 212 b 62 109 49 161 53 134 b 102 43 71 84 84 62 b 170 -1 120 25 143 10 b 267 -18 197 -12 230 -18 b 395 16 317 -18 359 -7 b 483 104 431 39 460 68 z m 496 783 l 358 983 l 175 983 l 371 783 z "},"ú":{"ha":811,"x_min":0,"x_max":0,"o":"m 483 104 l 486 104 b 479 48 484 88 482 70 b 474 0 476 26 475 10 l 626 0 b 635 75 628 22 631 47 b 647 143 640 103 644 125 l 739 667 l 576 667 l 511 300 b 491 235 507 278 501 256 b 453 177 481 213 469 194 b 399 136 438 160 420 146 b 329 121 378 126 355 121 b 243 155 288 121 259 132 b 219 233 227 178 219 204 b 222 267 219 244 220 256 b 226 300 223 278 225 289 l 290 667 l 128 667 l 54 251 b 49 189 50 233 49 212 b 62 109 49 161 53 134 b 102 43 71 84 84 62 b 170 -1 120 25 143 10 b 267 -18 197 -12 230 -18 b 395 16 317 -18 359 -7 b 483 104 431 39 460 68 z m 499 783 l 728 983 l 543 983 l 369 783 z "},"û":{"ha":811,"x_min":0,"x_max":0,"o":"m 483 104 l 486 104 b 479 48 484 88 482 70 b 474 0 476 26 475 10 l 626 0 b 635 75 628 22 631 47 b 647 143 640 103 644 125 l 739 667 l 576 667 l 511 300 b 491 235 507 278 501 256 b 453 177 481 213 469 194 b 399 136 438 160 420 146 b 329 121 378 126 355 121 b 243 155 288 121 259 132 b 219 233 227 178 219 204 b 222 267 219 244 220 256 b 226 300 223 278 225 289 l 290 667 l 128 667 l 54 251 b 49 189 50 233 49 212 b 62 109 49 161 53 134 b 102 43 71 84 84 62 b 170 -1 120 25 143 10 b 267 -18 197 -12 230 -18 b 395 16 317 -18 359 -7 b 483 104 431 39 460 68 z m 554 783 l 704 783 l 582 983 l 399 983 l 204 783 l 360 783 l 479 910 z "},"ü":{"ha":811,"x_min":0,"x_max":0,"o":"m 483 104 l 486 104 b 479 48 484 88 482 70 b 474 0 476 26 475 10 l 626 0 b 635 75 628 22 631 47 b 647 143 640 103 644 125 l 739 667 l 576 667 l 511 300 b 491 235 507 278 501 256 b 453 177 481 213 469 194 b 399 136 438 160 420 146 b 329 121 378 126 355 121 b 243 155 288 121 259 132 b 219 233 227 178 219 204 b 222 267 219 244 220 256 b 226 300 223 278 225 289 l 290 667 l 128 667 l 54 251 b 49 189 50 233 49 212 b 62 109 49 161 53 134 b 102 43 71 84 84 62 b 170 -1 120 25 143 10 b 267 -18 197 -12 230 -18 b 395 16 317 -18 359 -7 b 483 104 431 39 460 68 z m 426 897 b 401 966 426 927 418 950 b 335 990 384 982 362 990 b 265 963 308 990 285 981 b 236 892 246 945 236 921 b 263 823 236 862 245 839 b 331 799 281 807 304 799 b 399 828 358 799 381 808 b 426 897 417 847 426 870 z m 701 897 b 676 966 701 927 693 950 b 610 990 659 982 637 990 b 540 963 583 990 560 981 b 511 892 521 945 511 921 b 538 823 511 862 520 839 b 606 799 556 807 579 799 b 674 828 633 799 656 808 b 701 897 692 847 701 870 z "},"ý":{"ha":703,"x_min":0,"x_max":0,"o":"m 282 -144 l 754 667 l 582 667 l 315 178 l 313 178 l 226 667 l 51 667 l 201 -1 l 151 -87 b 95 -166 131 -123 112 -149 b 24 -192 78 -183 54 -192 b -6 -190 14 -192 4 -191 b -37 -182 -17 -188 -27 -186 l -58 -324 b -16 -331 -44 -327 -30 -330 b 26 -333 -2 -333 13 -333 b 111 -321 59 -333 87 -329 b 177 -284 135 -312 157 -300 b 232 -224 197 -268 215 -248 b 282 -144 249 -201 265 -174 z m 471 783 l 700 983 l 515 983 l 342 783 z "},"þ":{"ha":874,"x_min":0,"x_max":0,"o":"m 131 -333 l 204 106 l 207 106 b 292 14 226 67 255 36 b 440 -19 330 -8 379 -19 b 588 13 494 -19 543 -9 b 704 102 633 35 672 65 b 780 233 737 140 762 183 b 807 394 798 283 807 337 b 787 511 807 437 800 476 b 730 602 773 546 754 577 b 641 661 705 628 676 647 b 525 682 606 675 568 682 b 388 650 475 682 429 671 b 288 560 346 629 313 599 l 283 560 l 374 1050 l 211 1050 l -33 -333 z m 640 375 b 624 273 640 339 635 305 b 578 190 614 241 598 213 b 506 133 559 166 534 147 b 413 113 478 119 447 113 b 289 161 361 113 319 129 b 243 286 258 194 243 235 b 261 387 243 321 249 355 b 310 471 273 419 290 447 b 385 528 331 495 356 514 b 476 549 413 542 444 549 b 598 499 529 549 570 532 b 640 375 626 465 640 424 z "},"ÿ":{"ha":703,"x_min":0,"x_max":0,"o":"m 282 -144 l 754 667 l 582 667 l 315 178 l 313 178 l 226 667 l 51 667 l 201 -1 l 151 -87 b 95 -166 131 -123 112 -149 b 24 -192 78 -183 54 -192 b -6 -190 14 -192 4 -191 b -37 -182 -17 -188 -27 -186 l -58 -324 b -16 -331 -44 -327 -30 -330 b 26 -333 -2 -333 13 -333 b 111 -321 59 -333 87 -329 b 177 -284 135 -312 157 -300 b 232 -224 197 -268 215 -248 b 282 -144 249 -201 265 -174 z m 397 897 b 372 966 397 927 389 950 b 306 990 354 982 332 990 b 236 963 279 990 256 981 b 207 892 217 945 207 921 b 234 823 207 862 216 839 b 301 799 252 807 275 799 b 370 828 329 799 352 808 b 397 897 388 847 397 870 z m 672 897 b 647 966 672 927 664 950 b 581 990 629 982 607 990 b 511 963 554 990 531 981 b 482 892 492 945 482 921 b 509 823 482 862 491 839 b 576 799 527 807 550 799 b 645 828 604 799 627 808 b 672 897 663 847 672 870 z "},"¤":{"ha":847,"x_min":0,"x_max":0,"o":"m 706 583 l 818 696 l 729 783 l 615 671 b 528 713 590 688 561 702 b 425 728 496 723 461 728 b 323 712 390 728 356 722 b 233 671 290 701 260 688 l 118 783 l 29 696 l 144 581 b 107 494 129 554 116 525 b 93 394 98 463 93 430 b 109 292 93 359 98 325 b 149 204 120 259 133 230 l 29 83 l 118 -6 l 239 114 b 326 74 265 97 294 84 b 425 58 358 63 391 58 b 611 113 497 58 559 76 l 731 -6 l 818 83 l 703 200 b 744 290 720 227 734 257 b 760 394 755 324 760 358 b 706 583 760 466 742 529 z m 425 594 b 506 578 455 594 481 589 b 567 535 530 568 550 553 b 605 472 583 517 596 496 b 618 394 614 448 618 422 b 605 316 618 367 614 341 b 567 252 596 291 583 270 b 506 209 550 234 530 220 b 425 193 481 198 455 193 b 345 209 395 193 369 198 b 285 252 322 220 301 234 b 247 316 268 270 255 291 b 233 394 238 341 233 367 b 247 472 233 422 238 448 b 285 535 255 496 268 517 b 345 578 301 553 322 568 b 425 594 369 589 395 594 z "},"¦":{"ha":308,"x_min":0,"x_max":0,"o":"m 225 938 l 83 938 l 83 451 l 225 451 z m 225 243 l 83 243 l 83 -243 l 225 -243 z "},"¨":{"ha":361,"x_min":0,"x_max":0,"o":"m 219 897 b 194 966 219 927 211 950 b 128 990 177 982 155 990 b 58 963 101 990 78 981 b 29 892 39 945 29 921 b 56 823 29 862 38 839 b 124 799 74 807 97 799 b 192 828 151 799 174 808 b 219 897 210 847 219 870 z m 494 897 b 469 966 494 927 486 950 b 403 990 452 982 430 990 b 333 963 376 990 353 981 b 304 892 314 945 304 921 b 331 823 304 862 313 839 b 399 799 349 807 372 799 b 467 828 426 799 449 808 b 494 897 485 847 494 870 z "},"´":{"ha":361,"x_min":0,"x_max":0,"o":"m 306 783 l 535 983 l 350 983 l 176 783 z "},"¸":{"ha":361,"x_min":0,"x_max":0,"o":"m 244 -192 b 232 -142 244 -172 240 -156 b 201 -110 224 -129 213 -118 b 160 -92 188 -101 175 -96 b 119 -87 146 -89 132 -87 l 108 -87 b 92 -90 103 -87 98 -88 l 171 0 l 92 0 l -17 -125 l 8 -160 b 38 -153 18 -157 27 -155 b 64 -151 48 -152 56 -151 b 108 -160 80 -151 94 -154 b 129 -201 122 -166 129 -180 b 119 -231 129 -213 126 -223 b 97 -248 113 -238 105 -244 b 67 -256 88 -252 78 -255 b 39 -258 57 -258 47 -258 b -69 -231 -1 -258 -37 -249 l -107 -297 b -37 -323 -88 -307 -65 -316 b 44 -333 -10 -330 18 -333 b 110 -326 65 -333 87 -331 b 176 -303 134 -322 156 -314 b 225 -259 196 -292 212 -277 b 244 -192 238 -241 244 -219 z "},"¼":{"ha":1250,"x_min":0,"x_max":0,"o":"m 1014 124 l 1090 124 l 1110 226 l 1029 226 l 1093 596 l 953 596 l 646 221 l 629 124 l 896 124 l 875 0 l 993 0 z m 951 443 l 911 226 l 775 226 l 944 443 z m 226 388 l 356 388 l 460 983 l 347 983 l 132 831 l 189 746 l 306 831 z m 272 -46 l 1032 974 l 946 1028 l 186 8 z "},"½":{"ha":1250,"x_min":0,"x_max":0,"o":"m 226 388 l 356 388 l 460 983 l 347 983 l 132 831 l 189 746 l 306 831 z m 761 450 l 869 419 b 905 480 878 445 890 466 b 967 501 920 494 941 501 b 1022 486 990 501 1008 496 b 1043 436 1036 476 1043 459 b 963 317 1043 401 1016 361 l 707 107 l 688 0 l 1075 0 l 1096 110 l 864 110 l 1022 233 b 1084 285 1046 252 1067 269 b 1126 333 1101 300 1115 316 b 1151 383 1138 349 1146 366 b 1158 443 1156 401 1158 421 b 1107 560 1158 493 1141 532 b 972 603 1073 589 1028 603 b 845 565 925 603 883 590 b 761 450 808 539 780 501 z m 272 -46 l 1032 974 l 946 1028 l 186 8 z "},"¾":{"ha":1250,"x_min":0,"x_max":0,"o":"m 1014 124 l 1090 124 l 1110 226 l 1029 226 l 1093 596 l 953 596 l 646 221 l 629 124 l 896 124 l 875 0 l 993 0 z m 951 443 l 911 226 l 775 226 l 944 443 z m 272 -46 l 1032 974 l 946 1028 l 186 8 z m 275 750 l 243 750 l 228 657 l 260 657 b 339 636 292 657 319 650 b 369 575 359 622 369 602 b 345 513 369 550 361 529 b 272 489 329 497 305 489 b 217 503 252 489 234 494 b 182 554 201 513 189 530 l 71 521 b 142 422 85 479 108 446 b 271 385 175 397 218 385 b 355 397 300 385 328 389 b 424 435 381 406 404 418 b 472 497 444 451 460 472 b 489 585 483 522 489 551 b 465 657 489 612 481 636 b 400 704 450 678 428 694 b 479 752 431 712 458 728 b 511 846 500 777 511 808 b 500 903 511 865 507 884 b 467 953 493 921 481 938 b 412 988 452 968 434 979 b 338 1001 390 997 365 1001 b 228 976 298 1001 261 993 b 144 892 196 959 168 931 l 235 839 b 276 888 248 863 261 879 b 329 901 290 897 308 901 b 376 888 348 901 363 897 b 394 843 388 878 394 863 b 275 750 394 781 355 750 z "},"Ā":{"ha":928,"x_min":0,"x_max":0,"o":"m 683 0 l 865 0 l 669 983 l 521 983 l -121 0 l 82 0 l 222 226 l 643 226 z m 554 786 l 619 374 l 306 374 z m 393 1104 l 833 1104 l 853 1211 l 411 1211 z "},"ā":{"ha":749,"x_min":0,"x_max":0,"o":"m 496 422 b 328 413 441 422 385 419 b 174 374 272 406 220 393 b 60 295 127 355 90 329 b 17 163 31 261 17 217 b 36 77 17 128 23 100 b 86 23 49 54 66 36 b 154 -6 106 9 129 0 b 226 -14 179 -11 203 -14 b 443 79 319 -14 391 17 l 446 79 b 438 0 440 51 438 25 l 588 0 b 592 69 588 19 589 42 b 604 150 596 97 600 124 l 653 421 b 657 453 655 430 656 441 b 658 483 658 465 658 475 b 636 578 658 521 651 553 b 577 640 621 604 602 625 b 494 674 553 656 525 667 b 400 685 463 681 431 685 b 251 662 349 685 299 677 b 121 599 202 647 159 625 l 183 489 b 276 537 210 508 241 524 b 376 556 310 549 344 556 b 469 535 417 556 448 549 b 500 465 490 521 500 498 b 499 448 500 460 500 454 b 496 422 499 442 498 433 z m 461 306 l 481 306 l 472 264 b 449 202 468 242 460 221 b 409 152 439 183 425 166 b 352 118 393 138 374 126 b 282 106 330 110 307 106 b 242 110 268 106 255 107 b 207 124 229 113 217 117 b 183 149 197 130 189 139 b 174 189 177 160 174 173 b 201 251 174 215 183 235 b 270 286 219 266 242 278 b 363 302 298 294 329 300 b 461 306 397 304 430 306 z m 208 826 l 649 826 l 668 933 l 226 933 z "},"Ă":{"ha":928,"x_min":0,"x_max":0,"o":"m 683 0 l 865 0 l 669 983 l 521 983 l -121 0 l 82 0 l 222 226 l 643 226 z m 554 786 l 619 374 l 306 374 z m 854 1261 l 764 1261 b 703 1185 751 1222 731 1197 b 604 1168 676 1174 643 1168 b 514 1188 569 1168 539 1175 b 476 1261 489 1202 476 1226 l 385 1261 b 440 1110 385 1192 403 1141 b 594 1063 477 1078 529 1063 b 761 1111 660 1063 716 1079 b 854 1261 806 1144 838 1194 z "},"ă":{"ha":749,"x_min":0,"x_max":0,"o":"m 496 422 b 328 413 441 422 385 419 b 174 374 272 406 220 393 b 60 295 127 355 90 329 b 17 163 31 261 17 217 b 36 77 17 128 23 100 b 86 23 49 54 66 36 b 154 -6 106 9 129 0 b 226 -14 179 -11 203 -14 b 443 79 319 -14 391 17 l 446 79 b 438 0 440 51 438 25 l 588 0 b 592 69 588 19 589 42 b 604 150 596 97 600 124 l 653 421 b 657 453 655 430 656 441 b 658 483 658 465 658 475 b 636 578 658 521 651 553 b 577 640 621 604 602 625 b 494 674 553 656 525 667 b 400 685 463 681 431 685 b 251 662 349 685 299 677 b 121 599 202 647 159 625 l 183 489 b 276 537 210 508 241 524 b 376 556 310 549 344 556 b 469 535 417 556 448 549 b 500 465 490 521 500 498 b 499 448 500 460 500 454 b 496 422 499 442 498 433 z m 461 306 l 481 306 l 472 264 b 449 202 468 242 460 221 b 409 152 439 183 425 166 b 352 118 393 138 374 126 b 282 106 330 110 307 106 b 242 110 268 106 255 107 b 207 124 229 113 217 117 b 183 149 197 130 189 139 b 174 189 177 160 174 173 b 201 251 174 215 183 235 b 270 286 219 266 242 278 b 363 302 298 294 329 300 b 461 306 397 304 430 306 z m 674 983 l 583 983 b 523 908 570 944 550 919 b 424 890 496 896 463 890 b 333 910 388 890 358 897 b 296 983 308 924 296 948 l 204 983 b 260 832 204 914 223 863 b 414 785 297 800 348 785 b 581 833 480 785 535 801 b 674 983 626 866 657 916 z "},"Ą":{"ha":928,"x_min":0,"x_max":0,"o":"m 788 -271 l 765 -204 b 728 -225 754 -212 742 -219 b 688 -233 715 -231 701 -233 b 632 -185 650 -233 632 -217 b 644 -135 632 -168 636 -152 b 676 -87 653 -119 663 -103 b 720 -42 689 -72 704 -56 b 768 0 736 -27 752 -13 l 865 0 l 669 983 l 521 983 l -121 0 l 82 0 l 222 226 l 643 226 l 683 0 b 625 -44 664 -13 644 -28 b 572 -95 606 -60 588 -77 b 534 -152 556 -113 544 -132 b 519 -212 524 -172 519 -192 b 552 -297 519 -250 530 -278 b 640 -324 574 -315 603 -324 b 718 -309 668 -324 694 -319 b 788 -271 742 -299 765 -287 z m 554 786 l 619 374 l 306 374 z "},"ą":{"ha":749,"x_min":0,"x_max":0,"o":"m 538 -271 l 515 -204 b 478 -225 504 -212 492 -219 b 438 -233 465 -231 451 -233 b 382 -185 400 -233 382 -217 b 394 -135 382 -168 386 -152 b 426 -87 403 -119 413 -103 b 470 -42 439 -72 454 -56 b 518 0 486 -27 502 -13 l 588 0 b 592 69 588 19 589 42 b 604 150 596 97 600 124 l 653 421 b 657 453 655 430 656 441 b 658 483 658 465 658 475 b 636 578 658 521 651 553 b 577 640 621 604 602 625 b 494 674 553 656 525 667 b 400 685 463 681 431 685 b 251 662 349 685 299 677 b 121 599 202 647 159 625 l 183 489 b 276 537 210 508 241 524 b 376 556 310 549 344 556 b 469 535 417 556 448 549 b 500 465 490 521 500 498 b 499 448 500 460 500 454 b 496 422 499 442 498 433 b 328 413 441 422 385 419 b 174 374 272 406 220 393 b 60 295 127 355 90 329 b 17 163 31 261 17 217 b 36 77 17 128 23 100 b 86 23 49 54 66 36 b 154 -6 106 9 129 0 b 226 -14 179 -11 203 -14 b 443 79 319 -14 391 17 l 446 79 b 438 3 440 52 438 27 b 378 -41 418 -10 398 -25 b 324 -93 359 -57 341 -75 b 285 -151 308 -112 295 -131 b 269 -212 275 -172 269 -192 b 302 -297 269 -250 280 -278 b 390 -324 324 -315 353 -324 b 468 -309 418 -324 444 -319 b 538 -271 492 -299 515 -287 z m 461 306 l 481 306 l 472 264 b 449 202 468 242 460 221 b 409 152 439 183 425 166 b 352 118 393 138 374 126 b 282 106 330 110 307 106 b 242 110 268 106 255 107 b 207 124 229 113 217 117 b 183 149 197 130 189 139 b 174 189 177 160 174 173 b 201 251 174 215 183 235 b 270 286 219 266 242 278 b 363 302 298 294 329 300 b 461 306 397 304 430 306 z "},"Ć":{"ha":946,"x_min":0,"x_max":0,"o":"m 896 154 l 786 251 b 667 156 751 208 711 176 b 526 125 622 135 575 125 b 406 149 481 125 441 133 b 317 212 370 164 341 185 b 263 305 294 238 276 269 b 244 419 251 341 244 379 b 274 582 244 475 254 529 b 355 724 293 635 320 682 b 480 824 390 765 431 799 b 640 861 528 849 582 861 b 713 851 667 861 691 858 b 772 826 735 845 755 837 b 817 792 790 816 805 805 b 846 757 829 780 838 768 l 981 858 b 924 919 966 881 947 901 b 845 967 900 938 874 954 b 751 997 816 980 784 990 b 646 1008 717 1005 682 1008 b 418 960 564 1008 488 992 b 234 830 348 928 286 885 b 111 636 182 775 141 710 b 67 397 81 562 67 482 b 99 225 67 334 77 277 b 188 92 120 173 150 129 b 326 6 227 55 273 26 b 506 -25 380 -15 440 -25 b 633 -11 552 -25 594 -20 b 740 27 672 -2 708 11 b 828 84 773 43 802 62 b 896 154 854 106 876 129 z m 671 1061 l 900 1261 l 715 1261 l 542 1061 z "},"ć":{"ha":683,"x_min":0,"x_max":0,"o":"m 574 478 l 690 572 b 587 658 666 611 632 640 b 444 685 542 676 494 685 b 277 651 383 685 328 673 b 149 559 227 628 184 597 b 67 426 113 521 86 476 b 38 271 47 376 38 325 b 60 153 38 227 45 188 b 126 62 76 118 97 87 b 227 3 154 36 188 17 b 358 -18 266 -11 310 -18 b 513 13 417 -18 468 -8 b 632 97 557 34 597 62 l 539 192 b 469 138 518 170 494 153 b 368 117 443 124 410 117 b 292 131 338 117 313 122 b 239 170 270 141 253 154 b 208 226 225 186 215 205 b 199 292 202 247 199 269 b 217 390 199 326 205 359 b 266 474 229 422 245 450 b 341 531 287 498 312 517 b 436 551 370 544 402 551 b 518 530 466 551 493 544 b 574 478 543 516 562 498 z m 490 783 l 719 983 l 535 983 l 361 783 z "},"Ĉ":{"ha":946,"x_min":0,"x_max":0,"o":"m 896 154 l 786 251 b 667 156 751 208 711 176 b 526 125 622 135 575 125 b 406 149 481 125 441 133 b 317 212 370 164 341 185 b 263 305 294 238 276 269 b 244 419 251 341 244 379 b 274 582 244 475 254 529 b 355 724 293 635 320 682 b 480 824 390 765 431 799 b 640 861 528 849 582 861 b 713 851 667 861 691 858 b 772 826 735 845 755 837 b 817 792 790 816 805 805 b 846 757 829 780 838 768 l 981 858 b 924 919 966 881 947 901 b 845 967 900 938 874 954 b 751 997 816 980 784 990 b 646 1008 717 1005 682 1008 b 418 960 564 1008 488 992 b 234 830 348 928 286 885 b 111 636 182 775 141 710 b 67 397 81 562 67 482 b 99 225 67 334 77 277 b 188 92 120 173 150 129 b 326 6 227 55 273 26 b 506 -25 380 -15 440 -25 b 633 -11 552 -25 594 -20 b 740 27 672 -2 708 11 b 828 84 773 43 802 62 b 896 154 854 106 876 129 z m 771 1061 l 921 1061 l 799 1261 l 615 1261 l 421 1061 l 576 1061 l 696 1188 z "},"ĉ":{"ha":683,"x_min":0,"x_max":0,"o":"m 574 478 l 690 572 b 587 658 666 611 632 640 b 444 685 542 676 494 685 b 277 651 383 685 328 673 b 149 559 227 628 184 597 b 67 426 113 521 86 476 b 38 271 47 376 38 325 b 60 153 38 227 45 188 b 126 62 76 118 97 87 b 227 3 154 36 188 17 b 358 -18 266 -11 310 -18 b 513 13 417 -18 468 -8 b 632 97 557 34 597 62 l 539 192 b 469 138 518 170 494 153 b 368 117 443 124 410 117 b 292 131 338 117 313 122 b 239 170 270 141 253 154 b 208 226 225 186 215 205 b 199 292 202 247 199 269 b 217 390 199 326 205 359 b 266 474 229 422 245 450 b 341 531 287 498 312 517 b 436 551 370 544 402 551 b 518 530 466 551 493 544 b 574 478 543 516 562 498 z m 564 783 l 714 783 l 592 983 l 408 983 l 214 783 l 369 783 l 489 910 z "},"Ċ":{"ha":946,"x_min":0,"x_max":0,"o":"m 896 154 l 786 251 b 667 156 751 208 711 176 b 526 125 622 135 575 125 b 406 149 481 125 441 133 b 317 212 370 164 341 185 b 263 305 294 238 276 269 b 244 419 251 341 244 379 b 274 582 244 475 254 529 b 355 724 293 635 320 682 b 480 824 390 765 431 799 b 640 861 528 849 582 861 b 713 851 667 861 691 858 b 772 826 735 845 755 837 b 817 792 790 816 805 805 b 846 757 829 780 838 768 l 981 858 b 924 919 966 881 947 901 b 845 967 900 938 874 954 b 751 997 816 980 784 990 b 646 1008 717 1005 682 1008 b 418 960 564 1008 488 992 b 234 830 348 928 286 885 b 111 636 182 775 141 710 b 67 397 81 562 67 482 b 99 225 67 334 77 277 b 188 92 120 173 150 129 b 326 6 227 55 273 26 b 506 -25 380 -15 440 -25 b 633 -11 552 -25 594 -20 b 740 27 672 -2 708 11 b 828 84 773 43 802 62 b 896 154 854 106 876 129 z m 789 1174 b 762 1244 789 1203 780 1227 b 694 1269 744 1261 721 1269 b 624 1241 668 1269 644 1260 b 593 1168 603 1222 593 1198 b 622 1097 593 1138 603 1114 b 690 1072 641 1081 663 1072 b 760 1103 718 1072 741 1082 b 789 1174 779 1123 789 1147 z "},"ċ":{"ha":683,"x_min":0,"x_max":0,"o":"m 574 478 l 690 572 b 587 658 666 611 632 640 b 444 685 542 676 494 685 b 277 651 383 685 328 673 b 149 559 227 628 184 597 b 67 426 113 521 86 476 b 38 271 47 376 38 325 b 60 153 38 227 45 188 b 126 62 76 118 97 87 b 227 3 154 36 188 17 b 358 -18 266 -11 310 -18 b 513 13 417 -18 468 -8 b 632 97 557 34 597 62 l 539 192 b 469 138 518 170 494 153 b 368 117 443 124 410 117 b 292 131 338 117 313 122 b 239 170 270 141 253 154 b 208 226 225 186 215 205 b 199 292 202 247 199 269 b 217 390 199 326 205 359 b 266 474 229 422 245 450 b 341 531 287 498 312 517 b 436 551 370 544 402 551 b 518 530 466 551 493 544 b 574 478 543 516 562 498 z m 590 896 b 563 966 590 925 581 949 b 496 992 545 983 523 992 b 425 963 469 992 445 982 b 394 890 405 944 394 920 b 423 819 394 860 404 836 b 492 794 442 803 465 794 b 562 825 519 794 543 805 b 590 896 581 845 590 869 z "},"Č":{"ha":946,"x_min":0,"x_max":0,"o":"m 896 154 l 786 251 b 667 156 751 208 711 176 b 526 125 622 135 575 125 b 406 149 481 125 441 133 b 317 212 370 164 341 185 b 263 305 294 238 276 269 b 244 419 251 341 244 379 b 274 582 244 475 254 529 b 355 724 293 635 320 682 b 480 824 390 765 431 799 b 640 861 528 849 582 861 b 713 851 667 861 691 858 b 772 826 735 845 755 837 b 817 792 790 816 805 805 b 846 757 829 780 838 768 l 981 858 b 924 919 966 881 947 901 b 845 967 900 938 874 954 b 751 997 816 980 784 990 b 646 1008 717 1005 682 1008 b 418 960 564 1008 488 992 b 234 830 348 928 286 885 b 111 636 182 775 141 710 b 67 397 81 562 67 482 b 99 225 67 334 77 277 b 188 92 120 173 150 129 b 326 6 227 55 273 26 b 506 -25 380 -15 440 -25 b 633 -11 552 -25 594 -20 b 740 27 672 -2 708 11 b 828 84 773 43 802 62 b 896 154 854 106 876 129 z m 763 1061 l 957 1261 l 803 1261 l 683 1135 l 610 1261 l 458 1261 l 581 1061 z "},"č":{"ha":683,"x_min":0,"x_max":0,"o":"m 574 478 l 690 572 b 587 658 666 611 632 640 b 444 685 542 676 494 685 b 277 651 383 685 328 673 b 149 559 227 628 184 597 b 67 426 113 521 86 476 b 38 271 47 376 38 325 b 60 153 38 227 45 188 b 126 62 76 118 97 87 b 227 3 154 36 188 17 b 358 -18 266 -11 310 -18 b 513 13 417 -18 468 -8 b 632 97 557 34 597 62 l 539 192 b 469 138 518 170 494 153 b 368 117 443 124 410 117 b 292 131 338 117 313 122 b 239 170 270 141 253 154 b 208 226 225 186 215 205 b 199 292 202 247 199 269 b 217 390 199 326 205 359 b 266 474 229 422 245 450 b 341 531 287 498 312 517 b 436 551 370 544 402 551 b 518 530 466 551 493 544 b 574 478 543 516 562 498 z m 544 783 l 739 983 l 585 983 l 465 857 l 392 983 l 240 983 l 363 783 z "},"Ď":{"ha":1051,"x_min":0,"x_max":0,"o":"m 208 983 l 35 0 l 403 0 b 642 41 489 0 569 14 b 832 157 715 68 778 107 b 958 338 886 207 928 267 b 1003 572 988 408 1003 486 b 963 760 1003 645 989 708 b 857 888 936 813 900 855 b 710 960 813 921 764 945 b 544 983 655 976 600 983 z m 231 150 l 351 838 l 503 838 b 647 815 558 838 606 830 b 747 753 687 799 720 779 b 806 661 773 727 793 696 b 825 550 819 626 825 589 b 799 401 825 498 816 448 b 720 273 781 353 755 310 b 590 183 685 235 642 206 b 410 150 538 161 478 150 z m 663 1061 l 857 1261 l 703 1261 l 583 1135 l 510 1261 l 358 1261 l 481 1061 z "},"ď":{"ha":881,"x_min":0,"x_max":0,"o":"m 724 1050 l 640 560 l 638 560 b 552 651 618 599 590 629 b 404 685 515 674 465 685 b 256 652 350 685 301 674 b 140 563 211 630 173 601 b 65 432 108 526 83 482 b 38 271 47 382 38 328 b 58 154 38 228 44 189 b 115 63 71 119 90 89 b 203 4 139 38 169 18 b 319 -17 238 -10 277 -17 b 457 15 369 -17 415 -6 b 560 106 499 37 533 67 l 564 106 l 547 0 l 701 0 l 888 1050 z m 204 290 b 220 392 204 326 209 360 b 266 476 231 424 246 452 b 338 532 286 499 310 518 b 432 553 366 546 398 553 b 556 504 484 553 525 537 b 601 379 586 472 601 430 b 583 278 601 344 595 310 b 534 194 571 247 555 219 b 460 138 513 170 488 151 b 368 117 431 124 400 117 b 247 167 315 117 275 133 b 204 290 218 200 204 241 z m 1003 713 l 1174 983 l 1015 983 l 867 713 z "},"Đ":{"ha":1051,"x_min":0,"x_max":0,"o":"m 25 451 l 114 451 l 35 0 l 403 0 b 642 41 489 0 569 14 b 832 157 715 68 778 107 b 958 338 886 207 928 267 b 1003 572 988 408 1003 486 b 963 760 1003 645 989 708 b 857 888 936 813 900 855 b 710 960 813 921 764 945 b 544 983 655 976 600 983 l 208 983 l 135 567 l 46 567 z m 596 567 l 304 567 l 351 838 l 503 838 b 647 815 558 838 606 830 b 747 753 687 799 720 779 b 806 661 773 727 793 696 b 825 550 819 626 825 589 b 799 401 825 498 816 448 b 720 273 781 353 755 310 b 590 183 685 235 642 206 b 410 150 538 161 478 150 l 231 150 l 283 451 l 575 451 z "},"đ":{"ha":881,"x_min":0,"x_max":0,"o":"m 932 792 l 951 896 l 860 896 l 888 1050 l 724 1050 l 697 896 l 474 896 l 454 792 l 679 792 l 640 560 l 638 560 b 552 651 618 599 590 629 b 404 685 515 674 465 685 b 256 652 350 685 301 674 b 140 563 211 630 173 601 b 65 432 108 526 83 482 b 38 271 47 382 38 328 b 58 154 38 228 44 189 b 115 63 71 119 90 89 b 203 4 139 38 169 18 b 319 -17 238 -10 277 -17 b 457 15 369 -17 415 -6 b 560 106 499 37 533 67 l 564 106 l 547 0 l 701 0 l 842 792 z m 204 290 b 220 392 204 326 209 360 b 266 476 231 424 246 452 b 338 532 286 499 310 518 b 432 553 366 546 398 553 b 556 504 484 553 525 537 b 601 379 586 472 601 430 b 583 278 601 344 595 310 b 534 194 571 247 555 219 b 460 138 513 170 488 151 b 368 117 431 124 400 117 b 247 167 315 117 275 133 b 204 290 218 200 204 241 z "},"Ē":{"ha":811,"x_min":0,"x_max":0,"o":"m 35 0 l 694 0 l 721 153 l 229 153 l 279 435 l 710 435 l 736 579 l 304 579 l 349 833 l 801 833 l 828 983 l 208 983 z m 308 1104 l 749 1104 l 768 1211 l 326 1211 z "},"ē":{"ha":783,"x_min":0,"x_max":0,"o":"m 194 282 l 689 282 b 701 356 694 305 699 330 b 706 418 704 383 706 403 b 685 535 706 463 699 501 b 626 618 671 568 651 596 b 538 668 601 640 572 657 b 428 685 504 679 468 685 b 272 653 371 685 319 674 b 148 567 224 633 183 604 b 67 437 113 530 86 486 b 38 276 47 387 38 334 b 61 151 37 229 45 187 b 126 58 77 114 99 83 b 225 1 154 33 187 14 b 350 -19 263 -13 305 -19 b 651 114 469 -19 569 25 l 558 201 b 477 138 534 175 507 153 b 368 114 447 122 411 114 b 299 126 343 114 320 118 b 243 158 277 134 259 144 b 206 206 227 171 215 187 b 193 267 197 224 193 244 b 194 282 193 272 194 277 z m 556 399 l 210 399 b 232 454 213 416 221 435 b 274 508 243 474 257 491 b 335 547 291 524 312 537 b 413 563 358 557 384 563 b 520 525 459 563 495 550 b 558 433 546 500 558 469 b 558 417 558 428 558 422 b 556 399 557 411 556 405 z m 244 826 l 685 826 l 704 933 l 263 933 z "},"Ĕ":{"ha":811,"x_min":0,"x_max":0,"o":"m 35 0 l 694 0 l 721 153 l 229 153 l 279 435 l 710 435 l 736 579 l 304 579 l 349 833 l 801 833 l 828 983 l 208 983 z m 782 1261 l 692 1261 b 631 1185 679 1222 659 1197 b 532 1168 604 1174 571 1168 b 442 1188 497 1168 467 1175 b 404 1261 417 1202 404 1226 l 313 1261 b 368 1110 313 1192 331 1141 b 522 1063 405 1078 456 1063 b 689 1111 588 1063 644 1079 b 782 1261 734 1144 765 1194 z "},"ĕ":{"ha":783,"x_min":0,"x_max":0,"o":"m 194 282 l 689 282 b 701 356 694 305 699 330 b 706 418 704 383 706 403 b 685 535 706 463 699 501 b 626 618 671 568 651 596 b 538 668 601 640 572 657 b 428 685 504 679 468 685 b 272 653 371 685 319 674 b 148 567 224 633 183 604 b 67 437 113 530 86 486 b 38 276 47 387 38 334 b 61 151 37 229 45 187 b 126 58 77 114 99 83 b 225 1 154 33 187 14 b 350 -19 263 -13 305 -19 b 651 114 469 -19 569 25 l 558 201 b 477 138 534 175 507 153 b 368 114 447 122 411 114 b 299 126 343 114 320 118 b 243 158 277 134 259 144 b 206 206 227 171 215 187 b 193 267 197 224 193 244 b 194 282 193 272 194 277 z m 556 399 l 210 399 b 232 454 213 416 221 435 b 274 508 243 474 257 491 b 335 547 291 524 312 537 b 413 563 358 557 384 563 b 520 525 459 563 495 550 b 558 433 546 500 558 469 b 558 417 558 428 558 422 b 556 399 557 411 556 405 z m 722 983 l 632 983 b 572 908 619 944 599 919 b 472 890 544 896 511 890 b 382 910 437 890 407 897 b 344 983 357 924 344 948 l 253 983 b 308 832 253 914 271 863 b 463 785 345 800 397 785 b 629 833 528 785 584 801 b 722 983 675 866 706 916 z "},"Ė":{"ha":811,"x_min":0,"x_max":0,"o":"m 35 0 l 694 0 l 721 153 l 229 153 l 279 435 l 710 435 l 736 579 l 304 579 l 349 833 l 801 833 l 828 983 l 208 983 z m 650 1174 b 623 1244 650 1203 641 1227 b 556 1269 605 1261 582 1269 b 485 1241 529 1269 505 1260 b 454 1168 464 1222 454 1198 b 483 1097 454 1138 464 1114 b 551 1072 502 1081 525 1072 b 622 1103 579 1072 603 1082 b 650 1174 641 1123 650 1147 z "},"ė":{"ha":783,"x_min":0,"x_max":0,"o":"m 194 282 l 689 282 b 701 356 694 305 699 330 b 706 418 704 383 706 403 b 685 535 706 463 699 501 b 626 618 671 568 651 596 b 538 668 601 640 572 657 b 428 685 504 679 468 685 b 272 653 371 685 319 674 b 148 567 224 633 183 604 b 67 437 113 530 86 486 b 38 276 47 387 38 334 b 61 151 37 229 45 187 b 126 58 77 114 99 83 b 225 1 154 33 187 14 b 350 -19 263 -13 305 -19 b 651 114 469 -19 569 25 l 558 201 b 477 138 534 175 507 153 b 368 114 447 122 411 114 b 299 126 343 114 320 118 b 243 158 277 134 259 144 b 206 206 227 171 215 187 b 193 267 197 224 193 244 b 194 282 193 272 194 277 z m 556 399 l 210 399 b 232 454 213 416 221 435 b 274 508 243 474 257 491 b 335 547 291 524 312 537 b 413 563 358 557 384 563 b 520 525 459 563 495 550 b 558 433 546 500 558 469 b 558 417 558 428 558 422 b 556 399 557 411 556 405 z m 572 896 b 545 966 572 925 563 949 b 478 992 527 983 505 992 b 407 963 451 992 427 982 b 376 890 387 944 376 920 b 405 819 376 860 386 836 b 474 794 424 803 447 794 b 544 825 501 794 525 805 b 572 896 563 845 572 869 z "},"Ę":{"ha":811,"x_min":0,"x_max":0,"o":"m 671 -271 l 671 -271 l 649 -204 b 612 -225 638 -212 625 -219 b 571 -233 598 -231 585 -233 b 515 -185 534 -233 515 -217 b 528 -135 515 -168 519 -152 b 560 -87 536 -119 547 -103 b 603 -42 573 -72 587 -56 b 651 0 620 -27 636 -13 l 694 0 l 721 153 l 229 153 l 279 435 l 710 435 l 736 579 l 304 579 l 349 833 l 801 833 l 828 983 l 208 983 l 35 0 l 565 0 b 508 -45 547 -14 528 -29 b 456 -97 489 -61 471 -78 b 417 -153 440 -115 427 -133 b 403 -212 408 -172 403 -192 b 435 -297 403 -250 414 -278 b 524 -324 457 -315 487 -324 b 601 -309 551 -324 577 -319 b 671 -271 625 -299 649 -287 z "},"ę":{"ha":783,"x_min":0,"x_max":0,"o":"m 467 -271 l 444 -204 b 408 -225 433 -212 421 -219 b 367 -233 394 -231 381 -233 b 311 -185 330 -233 311 -217 b 322 -140 311 -170 315 -155 b 349 -94 328 -124 338 -109 b 388 -51 361 -80 374 -65 b 432 -11 403 -37 417 -24 b 651 114 515 4 588 45 l 558 201 b 477 138 534 175 507 153 b 368 114 447 122 411 114 b 299 126 343 114 320 118 b 243 158 277 134 259 144 b 206 206 227 171 215 187 b 193 267 197 224 193 244 b 194 282 193 272 194 277 l 689 282 b 701 356 694 305 699 330 b 706 418 704 383 706 403 b 685 535 706 463 699 501 b 626 618 671 568 651 596 b 538 668 601 640 572 657 b 428 685 504 679 468 685 b 272 653 371 685 319 674 b 148 567 224 633 183 604 b 67 437 113 530 86 486 b 38 276 47 387 38 334 b 60 153 38 230 45 189 b 122 62 75 118 95 87 b 215 3 148 36 179 17 b 335 -19 251 -11 291 -19 b 285 -61 318 -32 301 -46 b 241 -108 268 -76 253 -92 b 210 -160 228 -125 218 -142 b 199 -212 203 -177 199 -195 b 231 -297 199 -250 209 -278 b 319 -324 253 -315 282 -324 b 397 -309 347 -324 373 -319 b 467 -271 421 -299 444 -287 z m 556 399 l 210 399 b 232 454 213 416 221 435 b 274 508 243 474 257 491 b 335 547 291 524 312 537 b 413 563 358 557 384 563 b 520 525 459 563 495 550 b 558 433 546 500 558 469 b 558 417 558 428 558 422 b 556 399 557 411 556 405 z "},"Ě":{"ha":811,"x_min":0,"x_max":0,"o":"m 35 0 l 694 0 l 721 153 l 229 153 l 279 435 l 710 435 l 736 579 l 304 579 l 349 833 l 801 833 l 828 983 l 208 983 z m 615 1061 l 810 1261 l 656 1261 l 536 1135 l 463 1261 l 311 1261 l 433 1061 z "},"ě":{"ha":783,"x_min":0,"x_max":0,"o":"m 194 282 l 689 282 b 701 356 694 305 699 330 b 706 418 704 383 706 403 b 685 535 706 463 699 501 b 626 618 671 568 651 596 b 538 668 601 640 572 657 b 428 685 504 679 468 685 b 272 653 371 685 319 674 b 148 567 224 633 183 604 b 67 437 113 530 86 486 b 38 276 47 387 38 334 b 61 151 37 229 45 187 b 126 58 77 114 99 83 b 225 1 154 33 187 14 b 350 -19 263 -13 305 -19 b 651 114 469 -19 569 25 l 558 201 b 477 138 534 175 507 153 b 368 114 447 122 411 114 b 299 126 343 114 320 118 b 243 158 277 134 259 144 b 206 206 227 171 215 187 b 193 267 197 224 193 244 b 194 282 193 272 194 277 z m 556 399 l 210 399 b 232 454 213 416 221 435 b 274 508 243 474 257 491 b 335 547 291 524 312 537 b 413 563 358 557 384 563 b 520 525 459 563 495 550 b 558 433 546 500 558 469 b 558 417 558 428 558 422 b 556 399 557 411 556 405 z m 543 783 l 738 983 l 583 983 l 464 857 l 390 983 l 239 983 l 361 783 z "},"Ĝ":{"ha":1028,"x_min":0,"x_max":0,"o":"m 546 125 b 419 147 499 125 456 132 b 324 208 381 162 350 182 b 265 301 298 234 278 265 b 244 419 251 337 244 377 b 274 582 244 475 254 529 b 355 724 293 635 320 682 b 480 824 390 765 431 799 b 640 861 528 849 582 861 b 774 831 694 861 739 851 b 860 757 810 811 838 787 l 994 858 b 847 972 957 909 908 947 b 646 1008 785 996 718 1008 b 418 960 564 1008 488 992 b 234 830 348 928 286 885 b 111 636 182 775 141 710 b 67 397 81 562 67 482 b 99 225 67 334 78 277 b 191 92 121 173 152 129 b 334 6 230 55 278 26 b 521 -25 390 -15 452 -25 b 708 -4 584 -25 646 -18 b 874 53 769 10 825 29 l 961 561 l 585 561 l 557 413 l 768 413 l 725 163 b 642 135 698 150 671 140 b 546 125 614 129 582 126 z m 764 1061 l 914 1061 l 792 1261 l 608 1261 l 414 1061 l 569 1061 l 689 1188 z "},"ĝ":{"ha":878,"x_min":0,"x_max":0,"o":"m 647 565 l 643 565 b 561 651 625 600 598 629 b 414 685 524 674 475 685 b 266 653 360 685 311 674 b 150 565 221 631 182 602 b 74 433 118 527 92 483 b 47 274 56 383 47 330 b 67 157 47 231 54 192 b 124 67 81 122 100 92 b 213 8 149 42 178 22 b 329 -12 248 -6 287 -12 b 463 16 379 -12 424 -3 b 558 92 503 35 534 60 l 561 92 l 550 39 b 522 -53 543 6 533 -25 b 476 -126 511 -82 496 -106 b 405 -174 457 -147 433 -163 b 301 -192 377 -186 342 -192 b 181 -167 259 -192 219 -183 b 85 -96 143 -150 111 -126 l -24 -214 b 42 -265 -5 -233 17 -250 b 124 -303 68 -280 95 -293 b 211 -326 152 -313 181 -321 b 297 -333 241 -331 269 -333 b 471 -306 365 -333 423 -324 b 592 -226 519 -287 559 -261 b 669 -103 624 -192 650 -151 b 714 57 689 -55 704 -1 l 819 667 l 664 667 z m 214 293 b 230 394 214 329 219 363 b 276 477 241 426 256 453 b 348 533 296 501 320 519 b 442 554 376 547 407 554 b 565 506 494 554 535 538 b 611 381 596 473 611 431 b 593 281 611 345 605 312 b 544 197 581 249 565 221 b 469 140 523 173 498 154 b 378 119 441 126 410 119 b 256 169 325 119 284 136 b 214 293 228 203 214 244 z m 610 783 l 760 783 l 638 983 l 454 983 l 260 783 l 415 783 l 535 910 z "},"Ğ":{"ha":1028,"x_min":0,"x_max":0,"o":"m 546 125 b 419 147 499 125 456 132 b 324 208 381 162 350 182 b 265 301 298 234 278 265 b 244 419 251 337 244 377 b 274 582 244 475 254 529 b 355 724 293 635 320 682 b 480 824 390 765 431 799 b 640 861 528 849 582 861 b 774 831 694 861 739 851 b 860 757 810 811 838 787 l 994 858 b 847 972 957 909 908 947 b 646 1008 785 996 718 1008 b 418 960 564 1008 488 992 b 234 830 348 928 286 885 b 111 636 182 775 141 710 b 67 397 81 562 67 482 b 99 225 67 334 78 277 b 191 92 121 173 152 129 b 334 6 230 55 278 26 b 521 -25 390 -15 452 -25 b 708 -4 584 -25 646 -18 b 874 53 769 10 825 29 l 961 561 l 585 561 l 557 413 l 768 413 l 725 163 b 642 135 698 150 671 140 b 546 125 614 129 582 126 z m 932 1261 l 842 1261 b 781 1185 829 1222 809 1197 b 682 1168 754 1174 721 1168 b 592 1188 647 1168 617 1175 b 554 1261 567 1202 554 1226 l 463 1261 b 518 1110 463 1192 481 1141 b 672 1063 555 1078 606 1063 b 839 1111 738 1063 794 1079 b 932 1261 884 1144 915 1194 z "},"ğ":{"ha":878,"x_min":0,"x_max":0,"o":"m 647 565 l 643 565 b 561 651 625 600 598 629 b 414 685 524 674 475 685 b 266 653 360 685 311 674 b 150 565 221 631 182 602 b 74 433 118 527 92 483 b 47 274 56 383 47 330 b 67 157 47 231 54 192 b 124 67 81 122 100 92 b 213 8 149 42 178 22 b 329 -12 248 -6 287 -12 b 463 16 379 -12 424 -3 b 558 92 503 35 534 60 l 561 92 l 550 39 b 522 -53 543 6 533 -25 b 476 -126 511 -82 496 -106 b 405 -174 457 -147 433 -163 b 301 -192 377 -186 342 -192 b 181 -167 259 -192 219 -183 b 85 -96 143 -150 111 -126 l -24 -214 b 42 -265 -5 -233 17 -250 b 124 -303 68 -280 95 -293 b 211 -326 152 -313 181 -321 b 297 -333 241 -331 269 -333 b 471 -306 365 -333 423 -324 b 592 -226 519 -287 559 -261 b 669 -103 624 -192 650 -151 b 714 57 689 -55 704 -1 l 819 667 l 664 667 z m 214 293 b 230 394 214 329 219 363 b 276 477 241 426 256 453 b 348 533 296 501 320 519 b 442 554 376 547 407 554 b 565 506 494 554 535 538 b 611 381 596 473 611 431 b 593 281 611 345 605 312 b 544 197 581 249 565 221 b 469 140 523 173 498 154 b 378 119 441 126 410 119 b 256 169 325 119 284 136 b 214 293 228 203 214 244 z m 760 983 l 669 983 b 609 908 656 944 636 919 b 510 890 582 896 549 890 b 419 910 475 890 444 897 b 382 983 394 924 382 948 l 290 983 b 346 832 290 914 309 863 b 500 785 383 800 434 785 b 667 833 566 785 621 801 b 760 983 712 866 743 916 z "},"Ġ":{"ha":1028,"x_min":0,"x_max":0,"o":"m 546 125 b 419 147 499 125 456 132 b 324 208 381 162 350 182 b 265 301 298 234 278 265 b 244 419 251 337 244 377 b 274 582 244 475 254 529 b 355 724 293 635 320 682 b 480 824 390 765 431 799 b 640 861 528 849 582 861 b 774 831 694 861 739 851 b 860 757 810 811 838 787 l 994 858 b 847 972 957 909 908 947 b 646 1008 785 996 718 1008 b 418 960 564 1008 488 992 b 234 830 348 928 286 885 b 111 636 182 775 141 710 b 67 397 81 562 67 482 b 99 225 67 334 78 277 b 191 92 121 173 152 129 b 334 6 230 55 278 26 b 521 -25 390 -15 452 -25 b 708 -4 584 -25 646 -18 b 874 53 769 10 825 29 l 961 561 l 585 561 l 557 413 l 768 413 l 725 163 b 642 135 698 150 671 140 b 546 125 614 129 582 126 z m 774 1174 b 747 1244 774 1203 765 1227 b 679 1269 728 1261 706 1269 b 608 1241 652 1269 629 1260 b 578 1168 588 1222 578 1198 b 606 1097 578 1138 587 1114 b 675 1072 625 1081 648 1072 b 745 1103 703 1072 726 1082 b 774 1174 764 1123 774 1147 z "},"ġ":{"ha":878,"x_min":0,"x_max":0,"o":"m 647 565 l 643 565 b 561 651 625 600 598 629 b 414 685 524 674 475 685 b 266 653 360 685 311 674 b 150 565 221 631 182 602 b 74 433 118 527 92 483 b 47 274 56 383 47 330 b 67 157 47 231 54 192 b 124 67 81 122 100 92 b 213 8 149 42 178 22 b 329 -12 248 -6 287 -12 b 463 16 379 -12 424 -3 b 558 92 503 35 534 60 l 561 92 l 550 39 b 522 -53 543 6 533 -25 b 476 -126 511 -82 496 -106 b 405 -174 457 -147 433 -163 b 301 -192 377 -186 342 -192 b 181 -167 259 -192 219 -183 b 85 -96 143 -150 111 -126 l -24 -214 b 42 -265 -5 -233 17 -250 b 124 -303 68 -280 95 -293 b 211 -326 152 -313 181 -321 b 297 -333 241 -331 269 -333 b 471 -306 365 -333 423 -324 b 592 -226 519 -287 559 -261 b 669 -103 624 -192 650 -151 b 714 57 689 -55 704 -1 l 819 667 l 664 667 z m 214 293 b 230 394 214 329 219 363 b 276 477 241 426 256 453 b 348 533 296 501 320 519 b 442 554 376 547 407 554 b 565 506 494 554 535 538 b 611 381 596 473 611 431 b 593 281 611 345 605 312 b 544 197 581 249 565 221 b 469 140 523 173 498 154 b 378 119 441 126 410 119 b 256 169 325 119 284 136 b 214 293 228 203 214 244 z m 621 896 b 594 966 621 925 612 949 b 526 992 576 983 553 992 b 456 963 500 992 476 982 b 425 890 435 944 425 920 b 453 819 425 860 434 836 b 522 794 472 803 495 794 b 592 825 550 794 573 805 b 621 896 611 845 621 869 z "},"Ģ":{"ha":1028,"x_min":0,"x_max":0,"o":"m 546 125 b 419 147 499 125 456 132 b 324 208 381 162 350 182 b 265 301 298 234 278 265 b 244 419 251 337 244 377 b 274 582 244 475 254 529 b 355 724 293 635 320 682 b 480 824 390 765 431 799 b 640 861 528 849 582 861 b 774 831 694 861 739 851 b 860 757 810 811 838 787 l 994 858 b 847 972 957 909 908 947 b 646 1008 785 996 718 1008 b 418 960 564 1008 488 992 b 234 830 348 928 286 885 b 111 636 182 775 141 710 b 67 397 81 562 67 482 b 99 225 67 334 78 277 b 191 92 121 173 152 129 b 334 6 230 55 278 26 b 521 -25 390 -15 452 -25 b 708 -4 584 -25 646 -18 b 874 53 769 10 825 29 l 961 561 l 585 561 l 557 413 l 768 413 l 725 163 b 642 135 698 150 671 140 b 546 125 614 129 582 126 z m 392 -333 l 563 -62 l 404 -62 l 256 -333 z "},"ģ":{"ha":878,"x_min":0,"x_max":0,"o":"m 647 565 l 643 565 b 561 651 625 600 598 629 b 414 685 524 674 475 685 b 266 653 360 685 311 674 b 150 565 221 631 182 602 b 74 433 118 527 92 483 b 47 274 56 383 47 330 b 67 157 47 231 54 192 b 124 67 81 122 100 92 b 213 8 149 42 178 22 b 329 -12 248 -6 287 -12 b 463 16 379 -12 424 -3 b 558 92 503 35 534 60 l 561 92 l 550 39 b 522 -53 543 6 533 -25 b 476 -126 511 -82 496 -106 b 405 -174 457 -147 433 -163 b 301 -192 377 -186 342 -192 b 181 -167 259 -192 219 -183 b 85 -96 143 -150 111 -126 l -24 -214 b 42 -265 -5 -233 17 -250 b 124 -303 68 -280 95 -293 b 211 -326 152 -313 181 -321 b 297 -333 241 -331 269 -333 b 471 -306 365 -333 423 -324 b 592 -226 519 -287 559 -261 b 669 -103 624 -192 650 -151 b 714 57 689 -55 704 -1 l 819 667 l 664 667 z m 214 293 b 230 394 214 329 219 363 b 276 477 241 426 256 453 b 348 533 296 501 320 519 b 442 554 376 547 407 554 b 565 506 494 554 535 538 b 611 381 596 473 611 431 b 593 281 611 345 605 312 b 544 197 581 249 565 221 b 469 140 523 173 498 154 b 378 119 441 126 410 119 b 256 169 325 119 284 136 b 214 293 228 203 214 244 z m 547 1054 l 376 783 l 535 783 l 683 1054 z "},"Ĥ":{"ha":1013,"x_min":0,"x_max":0,"o":"m 657 0 l 828 0 l 1001 983 l 831 983 l 760 585 l 308 585 l 379 983 l 208 983 l 35 0 l 206 0 l 283 438 l 733 438 z m 710 1061 l 860 1061 l 738 1261 l 554 1261 l 360 1061 l 515 1061 l 635 1188 z "},"ĥ":{"ha":811,"x_min":0,"x_max":0,"o":"m 478 0 l 640 0 l 714 415 b 719 478 718 434 719 455 b 706 558 719 506 715 532 b 666 624 697 583 684 605 b 598 668 648 642 625 657 b 501 685 571 679 538 685 b 375 651 451 685 409 673 b 296 572 341 628 314 602 l 293 572 l 378 1050 l 214 1050 l 29 0 l 192 0 l 256 363 b 276 431 259 386 266 408 b 313 490 285 453 298 472 b 367 531 328 507 347 520 b 439 546 388 541 412 546 b 525 512 481 546 509 534 b 549 433 541 489 549 463 b 547 400 549 422 548 411 b 542 367 545 389 544 378 z m 633 1106 l 783 1106 l 661 1306 l 478 1306 l 283 1106 l 439 1106 l 558 1232 z "},"Ħ":{"ha":1013,"x_min":0,"x_max":0,"o":"m 657 0 l 828 0 l 1001 983 l 831 983 l 797 799 l 346 799 l 379 983 l 208 983 l 35 0 l 206 0 l 283 438 l 733 438 z m 760 585 l 308 585 l 328 694 l 779 694 z "},"ħ":{"ha":811,"x_min":0,"x_max":0,"o":"m 543 792 l 563 896 l 350 896 l 378 1050 l 214 1050 l 186 896 l 85 896 l 65 792 l 168 792 l 29 0 l 192 0 l 256 363 b 276 431 259 386 266 408 b 313 490 285 453 298 472 b 367 531 328 507 347 520 b 439 546 388 541 412 546 b 525 512 481 546 509 534 b 549 433 541 489 549 463 b 547 400 549 422 548 411 b 542 367 545 389 544 378 l 478 0 l 640 0 l 714 415 b 719 478 718 434 719 455 b 706 558 719 506 715 532 b 666 624 697 583 684 605 b 598 668 648 642 625 657 b 501 685 571 679 538 685 b 375 651 451 685 409 673 b 296 572 341 628 314 602 l 293 572 l 332 792 z "},"Ĩ":{"ha":404,"x_min":0,"x_max":0,"o":"m 35 0 l 206 0 l 379 983 l 208 983 z m 47 1067 l 139 1067 b 168 1110 146 1082 156 1097 b 214 1129 180 1123 195 1129 b 258 1121 228 1129 243 1126 b 308 1100 274 1115 291 1108 b 354 1083 323 1093 338 1087 b 404 1076 370 1078 387 1076 b 473 1091 430 1076 453 1081 b 525 1130 493 1101 510 1114 b 563 1185 540 1146 553 1165 b 590 1250 574 1206 583 1228 l 499 1250 b 470 1208 491 1234 482 1220 b 425 1189 459 1195 444 1189 b 384 1197 412 1189 398 1191 b 339 1215 370 1202 355 1208 b 289 1233 323 1223 306 1229 b 235 1240 271 1238 253 1240 b 166 1226 209 1240 186 1235 b 113 1187 146 1216 128 1203 b 74 1131 98 1171 85 1152 b 47 1067 64 1110 55 1089 z "},"ĩ":{"ha":371,"x_min":0,"x_max":0,"o":"m 29 0 l 192 0 l 310 667 l 146 667 z m -15 789 l 76 789 b 106 832 84 805 94 819 b 151 851 118 845 133 851 b 196 843 165 851 180 849 b 246 822 212 838 228 831 b 292 805 261 815 276 809 b 342 799 307 801 324 799 b 410 813 368 799 391 803 b 463 852 430 823 448 836 b 501 908 477 868 490 887 b 528 972 511 928 520 950 l 436 972 b 408 930 429 956 419 942 b 363 911 396 917 381 911 b 322 919 350 911 336 914 b 276 938 307 924 292 930 b 226 956 261 945 244 951 b 172 963 209 960 191 963 b 103 948 146 963 123 958 b 51 909 84 938 66 925 b 12 853 35 893 22 874 b -15 789 1 833 -8 811 z "},"Ī":{"ha":404,"x_min":0,"x_max":0,"o":"m 35 0 l 206 0 l 379 983 l 208 983 z m 89 1104 l 529 1104 l 549 1211 l 107 1211 z "},"ī":{"ha":371,"x_min":0,"x_max":0,"o":"m 29 0 l 192 0 l 310 667 l 146 667 z m 28 826 l 468 826 l 488 933 l 46 933 z "},"Į":{"ha":390,"x_min":0,"x_max":0,"o":"m 213 -271 l 213 -271 l 190 -204 b 153 -225 179 -212 167 -219 b 113 -233 140 -231 126 -233 b 57 -185 75 -233 57 -217 b 69 -135 57 -168 61 -152 b 101 -87 78 -119 88 -103 b 145 -42 114 -72 129 -56 b 193 0 161 -27 177 -13 l 206 0 l 379 983 l 208 983 l 35 0 l 107 0 b 50 -45 88 -14 69 -29 b -3 -97 31 -61 13 -78 b -41 -153 -19 -115 -31 -133 b -56 -212 -51 -172 -56 -192 b -23 -297 -56 -250 -45 -278 b 65 -324 -1 -315 28 -324 b 143 -309 93 -324 119 -319 b 213 -271 167 -299 190 -287 z "},"į":{"ha":371,"x_min":0,"x_max":0,"o":"m 200 -271 l 178 -204 b 141 -225 167 -212 154 -219 b 100 -233 128 -231 114 -233 b 44 -185 63 -233 44 -217 b 57 -135 44 -168 49 -152 b 89 -87 65 -119 76 -103 b 133 -42 102 -72 116 -56 b 181 0 149 -27 165 -13 l 192 0 l 310 667 l 146 667 l 29 0 l 94 0 b 38 -45 76 -14 57 -29 b -15 -97 18 -61 0 -78 b -53 -153 -31 -115 -44 -133 b -68 -212 -63 -172 -68 -192 b -35 -297 -68 -250 -57 -278 b 53 -324 -14 -315 16 -324 b 131 -309 81 -324 106 -319 b 200 -271 155 -299 178 -287 z m 364 896 b 337 966 364 925 355 949 b 269 992 319 983 296 992 b 199 963 243 992 219 982 b 168 890 178 944 168 920 b 197 819 168 860 178 836 b 265 794 216 803 238 794 b 335 825 293 794 316 805 b 364 896 354 845 364 869 z "},"İ":{"ha":404,"x_min":0,"x_max":0,"o":"m 35 0 l 206 0 l 379 983 l 208 983 z m 417 1174 b 390 1244 417 1203 408 1227 b 322 1269 372 1261 349 1269 b 251 1241 295 1269 272 1260 b 221 1168 231 1222 221 1198 b 249 1097 221 1138 230 1114 b 318 1072 268 1081 291 1072 b 388 1103 346 1072 369 1082 b 417 1174 407 1123 417 1147 z "},"ı":{"ha":371,"x_min":0,"x_max":0,"o":"m 29 0 l 192 0 l 310 667 l 146 667 z "},"Ĳ":{"ha":1086,"x_min":0,"x_max":0,"o":"m 35 0 l 206 0 l 379 983 l 208 983 z m 963 317 l 1081 983 l 908 983 l 792 322 b 774 244 787 294 781 269 b 744 182 766 220 756 200 b 697 141 731 164 716 151 b 629 126 679 131 656 126 b 553 158 598 126 572 137 b 518 236 533 180 522 206 l 358 190 b 443 35 367 126 395 75 b 633 -25 491 -5 555 -25 b 783 7 694 -25 743 -14 b 878 89 822 28 854 56 b 934 199 903 122 922 159 b 963 317 947 240 956 279 z "},"ĳ":{"ha":749,"x_min":0,"x_max":0,"o":"m 29 0 l 192 0 l 310 667 l 146 667 z m 364 896 b 337 966 364 925 355 949 b 269 992 319 983 296 992 b 199 963 243 992 219 982 b 168 890 178 944 168 920 b 197 819 168 860 178 836 b 265 794 216 803 238 794 b 335 825 293 794 316 805 b 364 896 354 845 364 869 z m 563 -44 l 688 667 l 524 667 l 397 -50 b 385 -105 394 -69 389 -88 b 365 -150 380 -122 374 -137 b 333 -181 357 -163 346 -173 b 285 -192 320 -188 304 -192 b 263 -190 278 -192 271 -191 b 240 -186 255 -189 248 -188 l 208 -325 b 241 -331 217 -327 228 -329 b 282 -333 254 -332 268 -333 b 405 -310 331 -333 372 -326 b 485 -248 438 -295 465 -274 b 534 -156 506 -222 522 -191 b 563 -44 546 -120 555 -83 z m 742 896 b 715 966 742 925 733 949 b 647 992 697 983 674 992 b 576 963 620 992 597 982 b 546 890 556 944 546 920 b 574 819 546 860 555 836 b 643 794 593 803 616 794 b 713 825 671 794 694 805 b 742 896 732 845 742 869 z "},"Ĵ":{"ha":694,"x_min":0,"x_max":0,"o":"m 571 317 l 689 983 l 517 983 l 400 322 b 382 244 395 294 389 269 b 352 182 375 220 365 200 b 306 141 340 164 324 151 b 238 126 287 131 264 126 b 161 158 206 126 181 137 b 126 236 142 180 130 206 l -33 190 b 51 35 -25 126 3 75 b 242 -25 100 -5 163 -25 b 391 7 302 -25 352 -14 b 487 89 430 28 462 56 b 542 199 511 122 530 159 b 571 317 555 240 564 279 z m 711 1061 l 861 1061 l 739 1261 l 556 1261 l 361 1061 l 517 1061 l 636 1188 z "},"ĵ":{"ha":371,"x_min":0,"x_max":0,"o":"m 185 -44 l 310 667 l 146 667 l 19 -50 b 7 -105 16 -69 12 -88 b -12 -150 2 -122 -4 -137 b -44 -181 -21 -163 -31 -173 b -93 -192 -57 -188 -74 -192 b -115 -190 -100 -192 -107 -191 b -137 -186 -122 -189 -130 -188 l -169 -325 b -137 -331 -161 -327 -150 -329 b -96 -333 -123 -332 -110 -333 b 27 -310 -47 -333 -6 -326 b 108 -248 60 -295 87 -274 b 156 -156 128 -222 145 -191 b 185 -44 168 -120 177 -83 z m 343 783 l 493 783 l 371 983 l 188 983 l -7 783 l 149 783 l 268 910 z "},"Ķ":{"ha":897,"x_min":0,"x_max":0,"o":"m 626 0 l 850 0 l 468 519 l 978 983 l 747 983 l 304 547 l 300 547 l 378 983 l 208 983 l 35 0 l 204 0 l 290 494 l 294 494 z m 310 -333 l 481 -62 l 322 -62 l 174 -333 z "},"ķ":{"ha":724,"x_min":0,"x_max":0,"o":"m 467 0 l 668 0 l 425 357 l 779 667 l 565 667 l 264 385 l 260 385 l 378 1050 l 214 1050 l 29 0 l 192 0 l 253 342 l 257 342 z m 217 -333 l 388 -62 l 229 -62 l 81 -333 z "},"Ĺ":{"ha":710,"x_min":0,"x_max":0,"o":"m 35 0 l 626 0 l 653 153 l 232 153 l 379 983 l 208 983 z m 363 1061 l 592 1261 l 407 1261 l 233 1061 z "},"ĺ":{"ha":371,"x_min":0,"x_max":0,"o":"m 29 0 l 192 0 l 378 1050 l 214 1050 z m 350 1100 l 579 1300 l 394 1300 l 221 1100 z "},"Ļ":{"ha":710,"x_min":0,"x_max":0,"o":"m 35 0 l 626 0 l 653 153 l 232 153 l 379 983 l 208 983 z m 231 -333 l 401 -62 l 243 -62 l 94 -333 z "},"ļ":{"ha":371,"x_min":0,"x_max":0,"o":"m 29 0 l 192 0 l 378 1050 l 214 1050 z m 19 -333 l 190 -62 l 32 -62 l -117 -333 z "},"Ľ":{"ha":710,"x_min":0,"x_max":0,"o":"m 35 0 l 626 0 l 653 153 l 232 153 l 379 983 l 208 983 z m 557 713 l 728 983 l 569 983 l 421 713 z "},"ľ":{"ha":371,"x_min":0,"x_max":0,"o":"m 29 0 l 192 0 l 378 1050 l 214 1050 z m 500 713 l 671 983 l 513 983 l 364 713 z "},"Ŀ":{"ha":710,"x_min":0,"x_max":0,"o":"m 35 0 l 626 0 l 653 153 l 232 153 l 379 983 l 208 983 z m 654 482 b 627 552 654 512 645 535 b 560 578 609 569 587 578 b 489 549 533 578 509 568 b 458 476 469 530 458 506 b 487 406 458 446 468 422 b 556 381 506 389 529 381 b 626 411 583 381 607 391 b 654 482 645 431 654 455 z "},"ŀ":{"ha":543,"x_min":0,"x_max":0,"o":"m 29 0 l 192 0 l 378 1050 l 214 1050 z m 563 479 b 535 549 563 509 553 532 b 468 575 517 566 495 575 b 397 547 441 575 418 566 b 367 474 377 528 367 503 b 395 403 367 443 376 419 b 464 378 414 386 437 378 b 534 408 492 378 515 388 b 563 479 553 429 563 452 z "},"Ł":{"ha":719,"x_min":0,"x_max":0,"o":"m 35 0 l 626 0 l 653 153 l 232 153 l 279 414 l 610 667 l 636 815 l 306 564 l 379 983 l 208 983 l 111 432 l -3 346 l -29 196 l 85 282 z "},"ł":{"ha":371,"x_min":0,"x_max":0,"o":"m 289 549 l 401 643 l 428 790 l 314 693 l 378 1050 l 214 1050 l 129 565 l 15 468 l -11 319 l 103 417 l 29 0 l 192 0 z "},"Ń":{"ha":1094,"x_min":0,"x_max":0,"o":"m 665 0 l 878 0 l 1051 983 l 881 983 l 750 243 l 747 243 l 431 983 l 208 983 l 35 0 l 206 0 l 340 764 l 343 764 z m 664 1061 l 893 1261 l 708 1261 l 535 1061 z "},"ń":{"ha":811,"x_min":0,"x_max":0,"o":"m 285 563 l 282 563 b 289 619 284 578 286 597 b 294 667 292 641 294 656 l 142 667 b 133 592 140 644 137 619 b 121 524 128 564 125 541 l 29 0 l 192 0 l 257 367 b 277 432 261 389 267 411 b 315 490 287 453 299 472 b 368 531 330 507 348 520 b 439 546 388 541 412 546 b 525 512 481 546 509 534 b 549 433 541 489 549 463 b 547 400 549 422 548 411 b 542 367 545 389 544 378 l 478 0 l 640 0 l 714 415 b 719 478 718 434 719 455 b 706 558 719 506 715 532 b 666 624 697 583 684 605 b 598 668 648 642 625 657 b 501 685 571 679 538 685 b 373 651 451 685 409 673 b 285 563 337 628 308 599 z m 481 783 l 710 983 l 525 983 l 351 783 z "},"Ņ":{"ha":1094,"x_min":0,"x_max":0,"o":"m 665 0 l 878 0 l 1051 983 l 881 983 l 750 243 l 747 243 l 431 983 l 208 983 l 35 0 l 206 0 l 340 764 l 343 764 z m 357 -333 l 528 -62 l 369 -62 l 221 -333 z "},"ņ":{"ha":811,"x_min":0,"x_max":0,"o":"m 285 563 l 282 563 b 289 619 284 578 286 597 b 294 667 292 641 294 656 l 142 667 b 133 592 140 644 137 619 b 121 524 128 564 125 541 l 29 0 l 192 0 l 257 367 b 277 432 261 389 267 411 b 315 490 287 453 299 472 b 368 531 330 507 348 520 b 439 546 388 541 412 546 b 525 512 481 546 509 534 b 549 433 541 489 549 463 b 547 400 549 422 548 411 b 542 367 545 389 544 378 l 478 0 l 640 0 l 714 415 b 719 478 718 434 719 455 b 706 558 719 506 715 532 b 666 624 697 583 684 605 b 598 668 648 642 625 657 b 501 685 571 679 538 685 b 373 651 451 685 409 673 b 285 563 337 628 308 599 z m 240 -333 l 411 -62 l 253 -62 l 104 -333 z "},"Ň":{"ha":1094,"x_min":0,"x_max":0,"o":"m 665 0 l 878 0 l 1051 983 l 881 983 l 750 243 l 747 243 l 431 983 l 208 983 l 35 0 l 206 0 l 340 764 l 343 764 z m 722 1061 l 917 1261 l 763 1261 l 643 1135 l 569 1261 l 418 1261 l 540 1061 z "},"ň":{"ha":811,"x_min":0,"x_max":0,"o":"m 285 563 l 282 563 b 289 619 284 578 286 597 b 294 667 292 641 294 656 l 142 667 b 133 592 140 644 137 619 b 121 524 128 564 125 541 l 29 0 l 192 0 l 257 367 b 277 432 261 389 267 411 b 315 490 287 453 299 472 b 368 531 330 507 348 520 b 439 546 388 541 412 546 b 525 512 481 546 509 534 b 549 433 541 489 549 463 b 547 400 549 422 548 411 b 542 367 545 389 544 378 l 478 0 l 640 0 l 714 415 b 719 478 718 434 719 455 b 706 558 719 506 715 532 b 666 624 697 583 684 605 b 598 668 648 642 625 657 b 501 685 571 679 538 685 b 373 651 451 685 409 673 b 285 563 337 628 308 599 z m 549 783 l 743 983 l 589 983 l 469 857 l 396 983 l 244 983 l 367 783 z "},"ŉ":{"ha":860,"x_min":0,"x_max":0,"o":"m 333 563 l 331 563 b 338 619 332 578 335 597 b 343 667 340 641 342 656 l 190 667 b 181 592 188 644 185 619 b 169 524 177 564 173 541 l 78 0 l 240 0 l 306 367 b 326 432 309 389 316 411 b 363 490 335 453 348 472 b 417 531 378 507 396 520 b 488 546 437 541 461 546 b 574 512 529 546 558 534 b 597 433 589 489 597 463 b 595 400 597 422 597 411 b 590 367 594 389 592 378 l 526 0 l 689 0 l 763 415 b 768 478 766 434 768 455 b 755 558 768 506 764 532 b 715 624 746 583 733 605 b 647 668 697 642 674 657 b 550 685 619 679 587 685 b 422 651 500 685 457 673 b 333 563 386 628 356 599 z m 175 713 l 346 983 l 188 983 l 39 713 z "},"Ō":{"ha":1151,"x_min":0,"x_max":0,"o":"m 638 1008 b 411 960 556 1008 481 992 b 231 831 342 928 281 885 b 110 638 180 776 140 712 b 67 401 81 563 67 485 b 100 224 67 336 78 276 b 195 89 122 171 154 126 b 344 4 236 52 286 24 b 540 -25 403 -15 468 -25 b 765 23 622 -25 697 -9 b 943 153 834 55 893 98 b 1060 346 993 207 1032 272 b 1103 582 1089 420 1103 499 b 1069 760 1103 648 1092 707 b 975 894 1047 813 1016 857 b 828 978 934 930 885 959 b 638 1008 772 998 708 1008 z m 540 125 b 413 149 492 125 450 133 b 319 212 375 164 344 185 b 263 305 294 238 275 269 b 243 419 250 341 243 379 b 270 582 243 475 252 529 b 347 724 288 635 314 682 b 469 824 381 765 421 799 b 629 861 516 849 570 861 b 757 838 677 861 720 853 b 850 774 794 822 825 801 b 907 681 875 748 894 717 b 926 567 920 644 926 606 b 901 404 926 511 918 457 b 826 263 884 351 859 304 b 705 163 793 221 753 188 b 540 125 657 138 602 125 z m 465 1104 l 906 1104 l 925 1211 l 483 1211 z "},"ō":{"ha":839,"x_min":0,"x_max":0,"o":"m 360 -18 b 526 15 421 -18 476 -7 b 654 106 576 38 619 68 b 735 238 689 144 716 188 b 764 396 754 288 764 340 b 740 513 764 438 756 478 b 672 605 723 549 701 579 b 570 664 644 630 609 650 b 440 685 531 678 488 685 b 274 651 379 685 324 673 b 147 560 225 628 182 598 b 66 428 112 522 85 478 b 38 272 47 379 38 327 b 62 154 38 229 46 189 b 129 63 78 119 100 88 b 231 3 158 37 192 17 b 360 -18 271 -11 313 -18 z m 600 379 b 583 278 600 344 594 310 b 537 194 572 247 557 219 b 464 138 517 170 493 151 b 368 117 435 124 403 117 b 243 165 314 117 273 133 b 199 289 213 198 199 239 b 215 389 199 324 204 357 b 262 472 226 420 242 448 b 334 530 282 496 306 516 b 429 551 362 544 394 551 b 554 503 482 551 524 535 b 600 379 585 470 600 429 z m 265 826 l 706 826 l 725 933 l 283 933 z "},"Ŏ":{"ha":1151,"x_min":0,"x_max":0,"o":"m 638 1008 b 411 960 556 1008 481 992 b 231 831 342 928 281 885 b 110 638 180 776 140 712 b 67 401 81 563 67 485 b 100 224 67 336 78 276 b 195 89 122 171 154 126 b 344 4 236 52 286 24 b 540 -25 403 -15 468 -25 b 765 23 622 -25 697 -9 b 943 153 834 55 893 98 b 1060 346 993 207 1032 272 b 1103 582 1089 420 1103 499 b 1069 760 1103 648 1092 707 b 975 894 1047 813 1016 857 b 828 978 934 930 885 959 b 638 1008 772 998 708 1008 z m 540 125 b 413 149 492 125 450 133 b 319 212 375 164 344 185 b 263 305 294 238 275 269 b 243 419 250 341 243 379 b 270 582 243 475 252 529 b 347 724 288 635 314 682 b 469 824 381 765 421 799 b 629 861 516 849 570 861 b 757 838 677 861 720 853 b 850 774 794 822 825 801 b 907 681 875 748 894 717 b 926 567 920 644 926 606 b 901 404 926 511 918 457 b 826 263 884 351 859 304 b 705 163 793 221 753 188 b 540 125 657 138 602 125 z m 931 1261 l 840 1261 b 780 1185 827 1222 807 1197 b 681 1168 753 1174 719 1168 b 590 1188 645 1168 615 1175 b 553 1261 565 1202 553 1226 l 461 1261 b 517 1110 461 1192 480 1141 b 671 1063 554 1078 605 1063 b 838 1111 737 1063 792 1079 b 931 1261 883 1144 914 1194 z "},"ŏ":{"ha":839,"x_min":0,"x_max":0,"o":"m 360 -18 b 526 15 421 -18 476 -7 b 654 106 576 38 619 68 b 735 238 689 144 716 188 b 764 396 754 288 764 340 b 740 513 764 438 756 478 b 672 605 723 549 701 579 b 570 664 644 630 609 650 b 440 685 531 678 488 685 b 274 651 379 685 324 673 b 147 560 225 628 182 598 b 66 428 112 522 85 478 b 38 272 47 379 38 327 b 62 154 38 229 46 189 b 129 63 78 119 100 88 b 231 3 158 37 192 17 b 360 -18 271 -11 313 -18 z m 600 379 b 583 278 600 344 594 310 b 537 194 572 247 557 219 b 464 138 517 170 493 151 b 368 117 435 124 403 117 b 243 165 314 117 273 133 b 199 289 213 198 199 239 b 215 389 199 324 204 357 b 262 472 226 420 242 448 b 334 530 282 496 306 516 b 429 551 362 544 394 551 b 554 503 482 551 524 535 b 600 379 585 470 600 429 z m 736 983 l 646 983 b 585 908 633 944 613 919 b 486 890 558 896 525 890 b 396 910 451 890 421 897 b 358 983 371 924 358 948 l 267 983 b 322 832 267 914 285 863 b 476 785 359 800 411 785 b 643 833 542 785 598 801 b 736 983 688 866 719 916 z "},"Ő":{"ha":1151,"x_min":0,"x_max":0,"o":"m 638 1008 b 411 960 556 1008 481 992 b 231 831 342 928 281 885 b 110 638 180 776 140 712 b 67 401 81 563 67 485 b 100 224 67 336 78 276 b 195 89 122 171 154 126 b 344 4 236 52 286 24 b 540 -25 403 -15 468 -25 b 765 23 622 -25 697 -9 b 943 153 834 55 893 98 b 1060 346 993 207 1032 272 b 1103 582 1089 420 1103 499 b 1069 760 1103 648 1092 707 b 975 894 1047 813 1016 857 b 828 978 934 930 885 959 b 638 1008 772 998 708 1008 z m 540 125 b 413 149 492 125 450 133 b 319 212 375 164 344 185 b 263 305 294 238 275 269 b 243 419 250 341 243 379 b 270 582 243 475 252 529 b 347 724 288 635 314 682 b 469 824 381 765 421 799 b 629 861 516 849 570 861 b 757 838 677 861 720 853 b 850 774 794 822 825 801 b 907 681 875 748 894 717 b 926 567 920 644 926 606 b 901 404 926 511 918 457 b 826 263 884 351 859 304 b 705 163 793 221 753 188 b 540 125 657 138 602 125 z m 878 1061 l 1108 1261 l 922 1261 l 749 1061 z m 593 1061 l 824 1261 l 638 1261 l 465 1061 z "},"ő":{"ha":839,"x_min":0,"x_max":0,"o":"m 360 -18 b 526 15 421 -18 476 -7 b 654 106 576 38 619 68 b 735 238 689 144 716 188 b 764 396 754 288 764 340 b 740 513 764 438 756 478 b 672 605 723 549 701 579 b 570 664 644 630 609 650 b 440 685 531 678 488 685 b 274 651 379 685 324 673 b 147 560 225 628 182 598 b 66 428 112 522 85 478 b 38 272 47 379 38 327 b 62 154 38 229 46 189 b 129 63 78 119 100 88 b 231 3 158 37 192 17 b 360 -18 271 -11 313 -18 z m 600 379 b 583 278 600 344 594 310 b 537 194 572 247 557 219 b 464 138 517 170 493 151 b 368 117 435 124 403 117 b 243 165 314 117 273 133 b 199 289 213 198 199 239 b 215 389 199 324 204 357 b 262 472 226 420 242 448 b 334 530 282 496 306 516 b 429 551 362 544 394 551 b 554 503 482 551 524 535 b 600 379 585 470 600 429 z m 675 783 l 906 983 l 719 983 l 546 783 z m 390 783 l 621 983 l 435 983 l 263 783 z "},"Ŕ":{"ha":867,"x_min":0,"x_max":0,"o":"m 785 0 l 581 439 b 769 538 659 456 722 490 b 839 729 816 587 839 650 b 751 916 839 809 809 871 b 500 983 692 961 608 983 l 208 983 l 35 0 l 203 0 l 275 419 l 406 419 l 592 0 z m 428 560 l 300 560 l 350 839 l 474 839 b 611 811 531 839 577 830 b 663 711 645 793 663 759 b 601 596 663 658 642 620 b 428 560 561 572 503 560 z m 538 1061 l 767 1261 l 582 1261 l 408 1061 z "},"ŕ":{"ha":471,"x_min":0,"x_max":0,"o":"m 282 556 l 279 556 b 283 583 280 563 281 572 b 287 615 284 593 285 604 b 290 646 288 626 289 637 b 292 667 291 655 292 662 l 139 667 b 130 592 137 644 134 619 b 118 524 126 564 122 541 l 25 0 l 188 0 l 250 357 b 263 406 252 369 256 385 b 294 465 269 426 280 446 b 353 515 309 485 329 501 b 446 536 377 529 408 536 b 469 535 453 536 461 536 b 496 529 477 534 486 532 l 518 681 b 499 684 513 682 506 684 b 478 685 491 684 484 685 b 364 649 433 685 395 673 b 282 556 332 626 305 594 z m 335 783 l 564 983 l 379 983 l 206 783 z "},"Ŗ":{"ha":867,"x_min":0,"x_max":0,"o":"m 785 0 l 581 439 b 769 538 659 456 722 490 b 839 729 816 587 839 650 b 751 916 839 809 809 871 b 500 983 692 961 608 983 l 208 983 l 35 0 l 203 0 l 275 419 l 406 419 l 592 0 z m 428 560 l 300 560 l 350 839 l 474 839 b 611 811 531 839 577 830 b 663 711 645 793 663 759 b 601 596 663 658 642 620 b 428 560 561 572 503 560 z m 279 -333 l 450 -62 l 292 -62 l 143 -333 z "},"ŗ":{"ha":471,"x_min":0,"x_max":0,"o":"m 282 556 l 279 556 b 283 583 280 563 281 572 b 287 615 284 593 285 604 b 290 646 288 626 289 637 b 292 667 291 655 292 662 l 139 667 b 130 592 137 644 134 619 b 118 524 126 564 122 541 l 25 0 l 188 0 l 250 357 b 263 406 252 369 256 385 b 294 465 269 426 280 446 b 353 515 309 485 329 501 b 446 536 377 529 408 536 b 469 535 453 536 461 536 b 496 529 477 534 486 532 l 518 681 b 499 684 513 682 506 684 b 478 685 491 684 484 685 b 364 649 433 685 395 673 b 282 556 332 626 305 594 z m 14 -333 l 185 -62 l 26 -62 l -122 -333 z "},"Ř":{"ha":867,"x_min":0,"x_max":0,"o":"m 785 0 l 581 439 b 769 538 659 456 722 490 b 839 729 816 587 839 650 b 751 916 839 809 809 871 b 500 983 692 961 608 983 l 208 983 l 35 0 l 203 0 l 275 419 l 406 419 l 592 0 z m 428 560 l 300 560 l 350 839 l 474 839 b 611 811 531 839 577 830 b 663 711 645 793 663 759 b 601 596 663 658 642 620 b 428 560 561 572 503 560 z m 594 1061 l 789 1261 l 635 1261 l 515 1135 l 442 1261 l 290 1261 l 413 1061 z "},"ř":{"ha":471,"x_min":0,"x_max":0,"o":"m 282 556 l 279 556 b 283 583 280 563 281 572 b 287 615 284 593 285 604 b 290 646 288 626 289 637 b 292 667 291 655 292 662 l 139 667 b 130 592 137 644 134 619 b 118 524 126 564 122 541 l 25 0 l 188 0 l 250 357 b 263 406 252 369 256 385 b 294 465 269 426 280 446 b 353 515 309 485 329 501 b 446 536 377 529 408 536 b 469 535 453 536 461 536 b 496 529 477 534 486 532 l 518 681 b 499 684 513 682 506 684 b 478 685 491 684 484 685 b 364 649 433 685 395 673 b 282 556 332 626 305 594 z m 424 783 l 618 983 l 464 983 l 344 857 l 271 983 l 119 983 l 242 783 z "},"Ś":{"ha":797,"x_min":0,"x_max":0,"o":"m 654 781 l 779 881 b 724 936 764 902 746 920 b 655 976 703 952 679 965 b 578 1000 630 986 605 994 b 501 1008 552 1006 526 1008 b 362 988 453 1008 407 1002 b 243 929 317 975 277 955 b 160 833 209 903 181 871 b 129 703 140 795 129 752 b 147 604 129 665 135 632 b 194 533 158 576 174 553 b 265 482 215 513 238 496 b 349 444 291 468 319 456 b 417 417 373 436 395 427 b 473 382 438 406 457 395 b 512 337 489 369 502 354 b 526 278 522 320 526 300 b 509 203 526 248 521 223 b 465 155 497 184 483 167 b 403 128 447 142 426 133 b 335 119 381 122 358 119 b 210 151 289 119 248 130 b 126 231 173 172 145 198 l -12 135 b 52 63 5 107 27 83 b 135 14 78 43 105 27 b 228 -15 164 1 196 -9 b 326 -25 261 -22 294 -25 b 464 -8 373 -25 419 -19 b 586 47 509 4 550 22 b 674 144 622 72 651 105 b 707 289 696 184 707 232 b 638 467 707 364 684 423 b 439 581 591 511 525 549 b 340 633 397 596 364 614 b 303 715 315 653 303 680 b 321 786 303 743 309 767 b 366 833 333 806 348 821 b 425 858 384 844 404 853 b 483 867 446 864 466 867 b 581 846 519 867 551 860 b 654 781 611 832 636 810 z m 540 1061 l 769 1261 l 585 1261 l 411 1061 z "},"ś":{"ha":617,"x_min":0,"x_max":0,"o":"m 93 192 l -33 108 b 67 13 -10 70 23 39 b 242 -25 111 -12 169 -25 b 352 -10 281 -25 317 -20 b 444 33 387 -1 417 14 b 507 105 470 53 491 77 b 531 203 523 133 531 166 b 479 331 531 258 513 301 b 335 403 445 361 397 385 b 255 433 300 413 273 423 b 228 481 237 444 228 459 b 238 518 228 495 231 508 b 265 542 245 528 254 536 b 303 556 276 548 289 553 b 346 560 318 558 332 560 b 425 541 379 560 406 553 b 472 494 444 528 460 513 l 599 569 b 499 656 575 608 541 637 b 358 685 457 675 410 685 b 243 669 317 685 278 679 b 151 624 208 658 177 643 b 90 554 125 604 105 581 b 68 465 75 527 68 498 b 80 400 68 440 72 419 b 115 351 88 381 100 365 b 174 313 131 336 151 324 b 257 282 198 303 225 292 b 344 245 297 269 326 257 b 371 192 362 234 371 216 b 337 131 371 166 359 145 b 246 108 314 116 284 108 b 155 130 213 108 182 116 b 93 192 128 144 107 165 z m 414 783 l 643 983 l 458 983 l 285 783 z "},"Ŝ":{"ha":797,"x_min":0,"x_max":0,"o":"m 654 781 l 779 881 b 724 936 764 902 746 920 b 655 976 703 952 679 965 b 578 1000 630 986 605 994 b 501 1008 552 1006 526 1008 b 362 988 453 1008 407 1002 b 243 929 317 975 277 955 b 160 833 209 903 181 871 b 129 703 140 795 129 752 b 147 604 129 665 135 632 b 194 533 158 576 174 553 b 265 482 215 513 238 496 b 349 444 291 468 319 456 b 417 417 373 436 395 427 b 473 382 438 406 457 395 b 512 337 489 369 502 354 b 526 278 522 320 526 300 b 509 203 526 248 521 223 b 465 155 497 184 483 167 b 403 128 447 142 426 133 b 335 119 381 122 358 119 b 210 151 289 119 248 130 b 126 231 173 172 145 198 l -12 135 b 52 63 5 107 27 83 b 135 14 78 43 105 27 b 228 -15 164 1 196 -9 b 326 -25 261 -22 294 -25 b 464 -8 373 -25 419 -19 b 586 47 509 4 550 22 b 674 144 622 72 651 105 b 707 289 696 184 707 232 b 638 467 707 364 684 423 b 439 581 591 511 525 549 b 340 633 397 596 364 614 b 303 715 315 653 303 680 b 321 786 303 743 309 767 b 366 833 333 806 348 821 b 425 858 384 844 404 853 b 483 867 446 864 466 867 b 581 846 519 867 551 860 b 654 781 611 832 636 810 z m 631 1090 l 781 1090 l 658 1290 l 475 1290 l 281 1090 l 436 1090 l 556 1217 z "},"ŝ":{"ha":617,"x_min":0,"x_max":0,"o":"m 93 192 l -33 108 b 67 13 -10 70 23 39 b 242 -25 111 -12 169 -25 b 352 -10 281 -25 317 -20 b 444 33 387 -1 417 14 b 507 105 470 53 491 77 b 531 203 523 133 531 166 b 479 331 531 258 513 301 b 335 403 445 361 397 385 b 255 433 300 413 273 423 b 228 481 237 444 228 459 b 238 518 228 495 231 508 b 265 542 245 528 254 536 b 303 556 276 548 289 553 b 346 560 318 558 332 560 b 425 541 379 560 406 553 b 472 494 444 528 460 513 l 599 569 b 499 656 575 608 541 637 b 358 685 457 675 410 685 b 243 669 317 685 278 679 b 151 624 208 658 177 643 b 90 554 125 604 105 581 b 68 465 75 527 68 498 b 80 400 68 440 72 419 b 115 351 88 381 100 365 b 174 313 131 336 151 324 b 257 282 198 303 225 292 b 344 245 297 269 326 257 b 371 192 362 234 371 216 b 337 131 371 166 359 145 b 246 108 314 116 284 108 b 155 130 213 108 182 116 b 93 192 128 144 107 165 z m 485 783 l 635 783 l 513 983 l 329 983 l 135 783 l 290 783 l 410 910 z "},"Ş":{"ha":797,"x_min":0,"x_max":0,"o":"m 468 -192 b 456 -142 468 -172 464 -156 b 424 -110 447 -129 437 -118 b 384 -92 412 -101 398 -96 b 343 -87 370 -89 356 -87 l 331 -87 b 315 -90 327 -87 322 -88 l 374 -22 b 497 3 416 -19 457 -10 b 603 61 537 17 572 36 b 678 155 634 86 659 117 b 707 289 697 192 707 237 b 638 467 707 364 684 423 b 439 581 591 511 525 549 b 340 633 397 596 364 614 b 303 715 315 653 303 680 b 321 786 303 743 309 767 b 366 833 333 806 348 821 b 425 858 384 844 404 853 b 483 867 446 864 466 867 b 581 846 519 867 551 860 b 654 781 611 832 636 810 l 779 881 b 724 936 764 902 746 920 b 655 976 703 952 679 965 b 578 1000 630 986 605 994 b 501 1008 552 1006 526 1008 b 362 988 453 1008 407 1002 b 243 929 317 975 277 955 b 160 833 209 903 181 871 b 129 703 140 795 129 752 b 147 604 129 665 135 632 b 194 533 158 576 174 553 b 265 482 215 513 238 496 b 349 444 291 468 319 456 b 417 417 373 436 395 427 b 473 382 438 406 457 395 b 512 337 489 369 502 354 b 526 278 522 320 526 300 b 509 203 526 248 521 223 b 465 155 497 184 483 167 b 403 128 447 142 426 133 b 335 119 381 122 358 119 b 210 151 289 119 248 130 b 126 231 173 172 145 198 l -12 135 b 120 20 20 84 64 46 b 294 -24 176 -5 234 -20 l 207 -125 l 232 -160 b 261 -153 241 -157 251 -155 b 288 -151 271 -152 280 -151 b 332 -160 303 -151 318 -154 b 353 -201 346 -166 353 -180 b 343 -231 353 -213 350 -223 b 320 -248 337 -238 329 -244 b 291 -256 311 -252 302 -255 b 263 -258 280 -258 271 -258 b 154 -231 223 -258 187 -249 l 117 -297 b 186 -323 135 -307 158 -316 b 268 -333 214 -330 241 -333 b 334 -326 288 -333 310 -331 b 399 -303 358 -322 379 -314 b 449 -259 419 -292 436 -277 b 468 -192 462 -241 468 -219 z "},"ş":{"ha":617,"x_min":0,"x_max":0,"o":"m 369 -192 b 357 -142 369 -172 365 -156 b 326 -110 349 -129 338 -118 b 285 -92 313 -101 300 -96 b 244 -87 271 -89 257 -87 l 233 -87 b 217 -90 228 -87 223 -88 l 275 -24 b 373 -3 309 -21 342 -14 b 455 42 404 8 431 23 b 510 111 478 61 497 84 b 531 203 524 138 531 169 b 479 331 531 258 513 301 b 335 403 445 361 397 385 b 255 433 300 413 273 423 b 228 481 237 444 228 459 b 238 518 228 495 231 508 b 265 542 245 528 254 536 b 303 556 276 548 289 553 b 346 560 318 558 332 560 b 425 541 379 560 406 553 b 472 494 444 528 460 513 l 599 569 b 499 656 575 608 541 637 b 358 685 457 675 410 685 b 243 669 317 685 278 679 b 151 624 208 658 177 643 b 90 554 125 604 105 581 b 68 465 75 527 68 498 b 80 400 68 440 72 419 b 115 351 88 381 100 365 b 174 313 131 336 151 324 b 257 282 198 303 225 292 b 344 245 297 269 326 257 b 371 192 362 234 371 216 b 337 131 371 166 359 145 b 246 108 314 116 284 108 b 155 130 213 108 182 116 b 93 192 128 144 107 165 l -33 108 b 53 22 -13 75 16 46 b 196 -22 90 -2 138 -17 l 108 -125 l 133 -160 b 163 -153 143 -157 152 -155 b 189 -151 173 -152 181 -151 b 233 -160 205 -151 219 -154 b 254 -201 247 -166 254 -180 b 244 -231 254 -213 251 -223 b 222 -248 238 -238 230 -244 b 192 -256 213 -252 203 -255 b 164 -258 182 -258 172 -258 b 56 -231 124 -258 88 -249 l 18 -297 b 88 -323 37 -307 60 -316 b 169 -333 115 -330 143 -333 b 235 -326 190 -333 212 -331 b 301 -303 259 -322 281 -314 b 350 -259 321 -292 337 -277 b 369 -192 363 -241 369 -219 z "},"Ţ":{"ha":740,"x_min":0,"x_max":0,"o":"m 528 833 l 817 833 l 843 983 l 90 983 l 64 833 l 356 833 l 210 0 l 381 0 z m 425 -192 b 413 -142 425 -172 421 -156 b 381 -110 404 -129 394 -118 b 341 -92 369 -101 355 -96 b 300 -87 327 -89 313 -87 l 288 -87 b 272 -90 284 -87 279 -88 l 351 0 l 272 0 l 164 -125 l 189 -160 b 218 -153 198 -157 208 -155 b 244 -151 228 -152 237 -151 b 289 -160 260 -151 275 -154 b 310 -201 303 -166 310 -180 b 300 -231 310 -213 306 -223 b 277 -248 294 -238 286 -244 b 248 -256 268 -252 259 -255 b 219 -258 237 -258 228 -258 b 111 -231 180 -258 144 -249 l 74 -297 b 143 -323 92 -307 115 -316 b 225 -333 171 -330 198 -333 b 291 -326 245 -333 267 -331 b 356 -303 315 -322 336 -314 b 406 -259 376 -292 393 -277 b 425 -192 419 -241 425 -219 z "},"ţ":{"ha":472,"x_min":0,"x_max":0,"o":"m 26 535 l 144 535 l 88 225 b 81 183 85 212 83 198 b 79 140 80 167 79 153 b 124 28 79 94 94 57 b 274 -14 153 0 203 -14 b 326 -9 289 -14 307 -12 b 375 4 345 -6 361 -1 l 385 128 b 355 121 375 125 366 123 b 322 118 344 119 333 118 b 265 132 298 118 279 123 b 243 182 250 141 243 158 b 247 221 243 194 244 207 l 306 535 l 453 535 l 476 667 l 326 667 l 360 861 l 199 861 l 165 667 l 50 667 z m 397 -192 b 385 -142 397 -172 393 -156 b 353 -110 376 -129 366 -118 b 313 -92 341 -101 328 -96 b 272 -87 299 -89 285 -87 l 260 -87 b 244 -90 256 -87 251 -88 l 324 0 l 244 0 l 136 -125 l 161 -160 b 190 -153 170 -157 180 -155 b 217 -151 200 -152 209 -151 b 261 -160 232 -151 247 -154 b 282 -201 275 -166 282 -180 b 272 -231 282 -213 279 -223 b 249 -248 266 -238 258 -244 b 220 -256 241 -252 231 -255 b 192 -258 209 -258 200 -258 b 83 -231 152 -258 116 -249 l 46 -297 b 115 -323 64 -307 88 -316 b 197 -333 143 -330 170 -333 b 263 -326 218 -333 240 -331 b 328 -303 287 -322 309 -314 b 378 -259 348 -292 365 -277 b 397 -192 391 -241 397 -219 z "},"Ť":{"ha":740,"x_min":0,"x_max":0,"o":"m 528 833 l 817 833 l 843 983 l 90 983 l 64 833 l 356 833 l 210 0 l 381 0 z m 564 1061 l 758 1261 l 604 1261 l 485 1135 l 411 1261 l 260 1261 l 382 1061 z "},"ť":{"ha":472,"x_min":0,"x_max":0,"o":"m 26 535 l 144 535 l 88 225 b 81 183 85 212 83 198 b 79 140 80 167 79 153 b 124 28 79 94 94 57 b 274 -14 153 0 203 -14 b 326 -9 289 -14 307 -12 b 375 4 345 -6 361 -1 l 385 128 b 355 121 375 125 366 123 b 322 118 344 119 333 118 b 265 132 298 118 279 123 b 243 182 250 141 243 158 b 247 221 243 194 244 207 l 306 535 l 453 535 l 476 667 l 326 667 l 360 861 l 199 861 l 165 667 l 50 667 z m 522 744 l 693 1015 l 535 1015 l 386 744 z "},"Ŧ":{"ha":740,"x_min":0,"x_max":0,"o":"m 703 600 l 722 704 l 504 704 l 528 833 l 817 833 l 843 983 l 90 983 l 64 833 l 356 833 l 332 704 l 119 704 l 100 600 l 314 600 l 210 0 l 381 0 l 486 600 z "},"ŧ":{"ha":472,"x_min":0,"x_max":0,"o":"m 394 304 l 414 408 l 282 408 l 306 535 l 453 535 l 476 667 l 326 667 l 360 861 l 199 861 l 165 667 l 50 667 l 26 535 l 144 535 l 121 408 l 26 408 l 7 304 l 101 304 l 88 225 b 81 183 85 212 83 198 b 79 140 80 167 79 153 b 124 28 79 94 94 57 b 274 -14 153 0 203 -14 b 326 -9 289 -14 307 -12 b 375 4 345 -6 361 -1 l 385 128 b 355 121 375 125 366 123 b 322 118 344 119 333 118 b 265 132 298 118 279 123 b 243 182 250 141 243 158 b 247 221 243 194 244 207 l 263 304 z "},"Ũ":{"ha":992,"x_min":0,"x_max":0,"o":"m 879 361 l 989 983 l 817 983 l 708 368 b 685 281 703 339 695 310 b 640 203 675 252 660 226 b 565 147 621 180 596 161 b 451 125 535 132 497 125 b 362 140 416 125 386 130 b 301 179 337 149 317 163 b 267 236 286 196 274 215 b 257 304 260 257 257 280 b 258 336 257 314 257 325 b 263 368 259 347 261 358 l 371 983 l 200 983 l 90 361 b 85 321 88 347 86 334 b 83 282 84 308 83 295 b 108 155 83 235 92 192 b 181 58 125 117 149 85 b 296 -3 212 31 250 11 b 449 -25 341 -18 392 -25 b 617 3 512 -25 568 -16 b 743 81 666 21 708 47 b 830 202 778 114 807 154 b 879 361 853 250 869 303 z m 351 1067 l 443 1067 b 472 1110 450 1082 460 1097 b 518 1129 484 1123 500 1129 b 563 1121 532 1129 547 1126 b 613 1100 578 1115 595 1108 b 658 1083 627 1093 643 1087 b 708 1076 674 1078 691 1076 b 777 1091 734 1076 757 1081 b 829 1130 797 1101 814 1114 b 867 1185 844 1146 857 1165 b 894 1250 878 1206 887 1228 l 803 1250 b 774 1208 795 1234 786 1220 b 729 1189 763 1195 748 1189 b 688 1197 716 1189 703 1191 b 643 1215 674 1202 659 1208 b 593 1233 627 1223 611 1229 b 539 1240 575 1238 557 1240 b 470 1226 513 1240 490 1235 b 417 1187 450 1216 433 1203 b 378 1131 402 1171 389 1152 b 351 1067 368 1110 359 1089 z "},"ũ":{"ha":811,"x_min":0,"x_max":0,"o":"m 483 104 l 486 104 b 479 48 484 88 482 70 b 474 0 476 26 475 10 l 626 0 b 635 75 628 22 631 47 b 647 143 640 103 644 125 l 739 667 l 576 667 l 511 300 b 491 235 507 278 501 256 b 453 177 481 213 469 194 b 399 136 438 160 420 146 b 329 121 378 126 355 121 b 243 155 288 121 259 132 b 219 233 227 178 219 204 b 222 267 219 244 220 256 b 226 300 223 278 225 289 l 290 667 l 128 667 l 54 251 b 49 189 50 233 49 212 b 62 109 49 161 53 134 b 102 43 71 84 84 62 b 170 -1 120 25 143 10 b 267 -18 197 -12 230 -18 b 395 16 317 -18 359 -7 b 483 104 431 39 460 68 z m 194 789 l 286 789 b 315 832 294 805 303 819 b 361 851 327 845 343 851 b 406 843 375 851 390 849 b 456 822 421 838 438 831 b 501 805 470 815 486 809 b 551 799 517 801 534 799 b 620 813 577 799 600 803 b 672 852 640 823 657 836 b 710 908 687 868 700 887 b 738 972 721 928 730 950 l 646 972 b 617 930 638 956 629 942 b 572 911 606 917 591 911 b 531 919 559 911 546 914 b 486 938 517 924 502 930 b 436 956 470 945 454 951 b 382 963 419 960 400 963 b 313 948 356 963 333 958 b 260 909 293 938 276 925 b 222 853 245 893 232 874 b 194 789 211 833 202 811 z "},"Ū":{"ha":992,"x_min":0,"x_max":0,"o":"m 879 361 l 989 983 l 817 983 l 708 368 b 685 281 703 339 695 310 b 640 203 675 252 660 226 b 565 147 621 180 596 161 b 451 125 535 132 497 125 b 362 140 416 125 386 130 b 301 179 337 149 317 163 b 267 236 286 196 274 215 b 257 304 260 257 257 280 b 258 336 257 314 257 325 b 263 368 259 347 261 358 l 371 983 l 200 983 l 90 361 b 85 321 88 347 86 334 b 83 282 84 308 83 295 b 108 155 83 235 92 192 b 181 58 125 117 149 85 b 296 -3 212 31 250 11 b 449 -25 341 -18 392 -25 b 617 3 512 -25 568 -16 b 743 81 666 21 708 47 b 830 202 778 114 807 154 b 879 361 853 250 869 303 z m 389 1104 l 829 1104 l 849 1211 l 407 1211 z "},"ū":{"ha":811,"x_min":0,"x_max":0,"o":"m 483 104 l 486 104 b 479 48 484 88 482 70 b 474 0 476 26 475 10 l 626 0 b 635 75 628 22 631 47 b 647 143 640 103 644 125 l 739 667 l 576 667 l 511 300 b 491 235 507 278 501 256 b 453 177 481 213 469 194 b 399 136 438 160 420 146 b 329 121 378 126 355 121 b 243 155 288 121 259 132 b 219 233 227 178 219 204 b 222 267 219 244 220 256 b 226 300 223 278 225 289 l 290 667 l 128 667 l 54 251 b 49 189 50 233 49 212 b 62 109 49 161 53 134 b 102 43 71 84 84 62 b 170 -1 120 25 143 10 b 267 -18 197 -12 230 -18 b 395 16 317 -18 359 -7 b 483 104 431 39 460 68 z m 238 826 l 678 826 l 697 933 l 256 933 z "},"Ŭ":{"ha":992,"x_min":0,"x_max":0,"o":"m 879 361 l 989 983 l 817 983 l 708 368 b 685 281 703 339 695 310 b 640 203 675 252 660 226 b 565 147 621 180 596 161 b 451 125 535 132 497 125 b 362 140 416 125 386 130 b 301 179 337 149 317 163 b 267 236 286 196 274 215 b 257 304 260 257 257 280 b 258 336 257 314 257 325 b 263 368 259 347 261 358 l 371 983 l 200 983 l 90 361 b 85 321 88 347 86 334 b 83 282 84 308 83 295 b 108 155 83 235 92 192 b 181 58 125 117 149 85 b 296 -3 212 31 250 11 b 449 -25 341 -18 392 -25 b 617 3 512 -25 568 -16 b 743 81 666 21 708 47 b 830 202 778 114 807 154 b 879 361 853 250 869 303 z m 860 1261 l 769 1261 b 709 1185 756 1222 736 1197 b 610 1168 682 1174 649 1168 b 519 1188 575 1168 544 1175 b 482 1261 494 1202 482 1226 l 390 1261 b 446 1110 390 1192 409 1141 b 600 1063 483 1078 534 1063 b 767 1111 666 1063 721 1079 b 860 1261 812 1144 843 1194 z "},"ŭ":{"ha":811,"x_min":0,"x_max":0,"o":"m 483 104 l 486 104 b 479 48 484 88 482 70 b 474 0 476 26 475 10 l 626 0 b 635 75 628 22 631 47 b 647 143 640 103 644 125 l 739 667 l 576 667 l 511 300 b 491 235 507 278 501 256 b 453 177 481 213 469 194 b 399 136 438 160 420 146 b 329 121 378 126 355 121 b 243 155 288 121 259 132 b 219 233 227 178 219 204 b 222 267 219 244 220 256 b 226 300 223 278 225 289 l 290 667 l 128 667 l 54 251 b 49 189 50 233 49 212 b 62 109 49 161 53 134 b 102 43 71 84 84 62 b 170 -1 120 25 143 10 b 267 -18 197 -12 230 -18 b 395 16 317 -18 359 -7 b 483 104 431 39 460 68 z m 706 983 l 615 983 b 555 908 602 944 582 919 b 456 890 528 896 494 890 b 365 910 420 890 390 897 b 328 983 340 924 328 948 l 236 983 b 292 832 236 914 255 863 b 446 785 329 800 380 785 b 613 833 512 785 567 801 b 706 983 658 866 689 916 z "},"Ů":{"ha":992,"x_min":0,"x_max":0,"o":"m 879 361 l 989 983 l 817 983 l 708 368 b 685 281 703 339 695 310 b 640 203 675 252 660 226 b 565 147 621 180 596 161 b 451 125 535 132 497 125 b 362 140 416 125 386 130 b 301 179 337 149 317 163 b 267 236 286 196 274 215 b 257 304 260 257 257 280 b 258 336 257 314 257 325 b 263 368 259 347 261 358 l 371 983 l 200 983 l 90 361 b 85 321 88 347 86 334 b 83 282 84 308 83 295 b 108 155 83 235 92 192 b 181 58 125 117 149 85 b 296 -3 212 31 250 11 b 449 -25 341 -18 392 -25 b 617 3 512 -25 568 -16 b 743 81 666 21 708 47 b 830 202 778 114 807 154 b 879 361 853 250 869 303 z m 607 1046 b 721 1092 653 1046 691 1061 b 765 1210 750 1123 765 1163 b 731 1294 765 1244 754 1272 b 642 1328 709 1317 679 1328 b 578 1315 619 1328 597 1324 b 527 1281 558 1307 541 1295 b 494 1228 513 1266 502 1248 b 482 1165 486 1209 482 1188 b 517 1080 482 1131 494 1103 b 607 1046 540 1057 570 1046 z m 697 1197 b 674 1133 697 1171 689 1150 b 611 1107 658 1116 637 1107 b 566 1126 592 1107 577 1113 b 550 1174 555 1139 550 1155 b 574 1240 550 1200 558 1223 b 635 1267 589 1258 610 1267 b 681 1246 654 1267 669 1260 b 697 1197 692 1232 697 1216 z "},"ů":{"ha":811,"x_min":0,"x_max":0,"o":"m 483 104 l 486 104 b 479 48 484 88 482 70 b 474 0 476 26 475 10 l 626 0 b 635 75 628 22 631 47 b 647 143 640 103 644 125 l 739 667 l 576 667 l 511 300 b 491 235 507 278 501 256 b 453 177 481 213 469 194 b 399 136 438 160 420 146 b 329 121 378 126 355 121 b 243 155 288 121 259 132 b 219 233 227 178 219 204 b 222 267 219 244 220 256 b 226 300 223 278 225 289 l 290 667 l 128 667 l 54 251 b 49 189 50 233 49 212 b 62 109 49 161 53 134 b 102 43 71 84 84 62 b 170 -1 120 25 143 10 b 267 -18 197 -12 230 -18 b 395 16 317 -18 359 -7 b 483 104 431 39 460 68 z m 454 768 b 568 815 500 768 538 784 b 613 932 598 846 613 885 b 578 1017 613 966 601 994 b 489 1050 556 1039 526 1050 b 425 1038 466 1050 444 1046 b 374 1003 406 1029 389 1018 b 341 951 360 988 349 971 b 329 888 333 931 329 910 b 364 802 329 853 341 825 b 454 768 387 779 417 768 z m 544 919 b 521 855 544 894 537 872 b 458 829 505 838 484 829 b 413 849 439 829 424 836 b 397 896 403 862 397 877 b 421 963 397 923 405 945 b 482 989 437 980 457 989 b 528 968 501 989 517 982 b 544 919 539 954 544 938 z "},"Ű":{"ha":992,"x_min":0,"x_max":0,"o":"m 879 361 l 989 983 l 817 983 l 708 368 b 685 281 703 339 695 310 b 640 203 675 252 660 226 b 565 147 621 180 596 161 b 451 125 535 132 497 125 b 362 140 416 125 386 130 b 301 179 337 149 317 163 b 267 236 286 196 274 215 b 257 304 260 257 257 280 b 258 336 257 314 257 325 b 263 368 259 347 261 358 l 371 983 l 200 983 l 90 361 b 85 321 88 347 86 334 b 83 282 84 308 83 295 b 108 155 83 235 92 192 b 181 58 125 117 149 85 b 296 -3 212 31 250 11 b 449 -25 341 -18 392 -25 b 617 3 512 -25 568 -16 b 743 81 666 21 708 47 b 830 202 778 114 807 154 b 879 361 853 250 869 303 z m 804 1061 l 1035 1261 l 849 1261 l 675 1061 z m 519 1061 l 750 1261 l 564 1261 l 392 1061 z "},"ű":{"ha":811,"x_min":0,"x_max":0,"o":"m 483 104 l 486 104 b 479 48 484 88 482 70 b 474 0 476 26 475 10 l 626 0 b 635 75 628 22 631 47 b 647 143 640 103 644 125 l 739 667 l 576 667 l 511 300 b 491 235 507 278 501 256 b 453 177 481 213 469 194 b 399 136 438 160 420 146 b 329 121 378 126 355 121 b 243 155 288 121 259 132 b 219 233 227 178 219 204 b 222 267 219 244 220 256 b 226 300 223 278 225 289 l 290 667 l 128 667 l 54 251 b 49 189 50 233 49 212 b 62 109 49 161 53 134 b 102 43 71 84 84 62 b 170 -1 120 25 143 10 b 267 -18 197 -12 230 -18 b 395 16 317 -18 359 -7 b 483 104 431 39 460 68 z m 647 783 l 878 983 l 692 983 l 518 783 z m 363 783 l 593 983 l 407 983 l 235 783 z "},"Ų":{"ha":992,"x_min":0,"x_max":0,"o":"m 560 -271 l 560 -271 l 538 -204 b 501 -225 526 -212 514 -219 b 460 -233 487 -231 474 -233 b 404 -185 423 -233 404 -217 b 438 -100 404 -157 416 -129 b 514 -21 461 -71 486 -45 b 761 99 619 -9 702 31 b 879 361 820 167 860 255 l 989 983 l 817 983 l 708 368 b 685 281 703 339 695 310 b 640 203 675 252 660 226 b 565 147 621 180 596 161 b 451 125 535 132 497 125 b 362 140 416 125 386 130 b 301 179 337 149 317 163 b 267 236 286 196 274 215 b 257 304 260 257 257 280 b 258 336 257 314 257 325 b 263 368 259 347 261 358 l 371 983 l 200 983 l 90 361 b 85 321 88 347 86 334 b 83 282 84 308 83 295 b 106 159 83 237 91 196 b 173 65 122 122 144 91 b 280 2 202 38 238 17 b 422 -24 322 -13 369 -22 b 374 -65 406 -37 389 -50 b 332 -111 358 -80 344 -95 b 303 -160 320 -127 310 -143 b 292 -212 295 -178 292 -195 b 324 -297 292 -250 303 -278 b 413 -324 346 -315 375 -324 b 490 -309 440 -324 466 -319 b 560 -271 514 -299 538 -287 z "},"ų":{"ha":811,"x_min":0,"x_max":0,"o":"m 575 -271 l 575 -271 l 553 -204 b 516 -225 542 -212 529 -219 b 475 -233 503 -231 489 -233 b 419 -185 438 -233 419 -217 b 432 -135 419 -168 424 -152 b 464 -87 440 -119 451 -103 b 508 -42 477 -72 491 -56 b 556 0 524 -27 540 -13 l 626 0 b 635 75 628 22 631 47 b 647 143 640 103 644 125 l 739 667 l 576 667 l 511 300 b 491 235 507 278 501 256 b 453 177 481 213 469 194 b 399 136 438 160 420 146 b 329 121 378 126 355 121 b 243 155 288 121 259 132 b 219 233 227 178 219 204 b 222 267 219 244 220 256 b 226 300 223 278 225 289 l 290 667 l 128 667 l 54 251 b 49 189 50 233 49 212 b 62 109 49 161 53 134 b 102 43 71 84 84 62 b 170 -1 120 25 143 10 b 267 -18 197 -12 230 -18 b 395 16 317 -18 359 -7 b 483 104 431 39 460 68 l 486 104 b 483 79 485 97 484 88 b 478 51 481 70 480 60 b 475 24 477 41 476 32 b 474 3 474 15 474 8 b 415 -42 454 -11 435 -26 b 362 -94 396 -59 378 -76 b 322 -151 346 -112 332 -131 b 307 -212 312 -172 307 -192 b 340 -297 307 -250 318 -278 b 428 -324 361 -315 391 -324 b 506 -309 456 -324 481 -319 b 575 -271 530 -299 553 -287 z "},"Ŵ":{"ha":1368,"x_min":0,"x_max":0,"o":"m 989 0 l 1465 983 l 1283 983 l 943 256 l 940 256 l 864 983 l 686 983 l 331 256 l 328 256 l 279 983 l 99 983 l 190 0 l 357 0 l 729 743 l 732 743 l 822 0 z m 883 1061 l 1033 1061 l 911 1261 l 728 1261 l 533 1061 l 689 1061 l 808 1188 z "},"ŵ":{"ha":1090,"x_min":0,"x_max":0,"o":"m 776 0 l 1139 667 l 968 667 l 726 188 l 724 188 l 669 667 l 499 667 l 260 188 l 257 188 l 211 667 l 40 667 l 132 0 l 299 0 l 547 471 l 550 471 l 610 0 z m 700 783 l 850 783 l 728 983 l 544 983 l 350 783 l 506 783 l 625 910 z "},"Ŷ":{"ha":799,"x_min":0,"x_max":0,"o":"m 476 426 l 951 983 l 743 983 l 414 567 l 250 983 l 58 983 l 304 426 l 229 0 l 400 0 z m 599 1061 l 749 1061 l 626 1261 l 443 1261 l 249 1061 l 404 1061 l 524 1188 z "},"ŷ":{"ha":703,"x_min":0,"x_max":0,"o":"m 282 -144 l 754 667 l 582 667 l 315 178 l 313 178 l 226 667 l 51 667 l 201 -1 l 151 -87 b 95 -166 131 -123 112 -149 b 24 -192 78 -183 54 -192 b -6 -190 14 -192 4 -191 b -37 -182 -17 -188 -27 -186 l -58 -324 b -16 -331 -44 -327 -30 -330 b 26 -333 -2 -333 13 -333 b 111 -321 59 -333 87 -329 b 177 -284 135 -312 157 -300 b 232 -224 197 -268 215 -248 b 282 -144 249 -201 265 -174 z m 517 783 l 667 783 l 544 983 l 361 983 l 167 783 l 322 783 l 442 910 z "},"Ź":{"ha":817,"x_min":0,"x_max":0,"o":"m -56 0 l 708 0 l 736 153 l 197 153 l 840 829 l 868 983 l 178 983 l 151 833 l 618 833 l -29 154 z m 561 1061 l 790 1261 l 606 1261 l 432 1061 z "},"ź":{"ha":667,"x_min":0,"x_max":0,"o":"m -28 0 l 544 0 l 568 133 l 196 133 l 628 524 l 653 667 l 115 667 l 93 536 l 432 536 l -3 143 z m 438 783 l 667 983 l 482 983 l 308 783 z "},"Ż":{"ha":817,"x_min":0,"x_max":0,"o":"m -56 0 l 708 0 l 736 153 l 197 153 l 840 829 l 868 983 l 178 983 l 151 833 l 618 833 l -29 154 z m 651 1174 b 624 1244 651 1203 642 1227 b 557 1269 606 1261 584 1269 b 486 1241 530 1269 506 1260 b 456 1168 466 1222 456 1198 b 484 1097 456 1138 465 1114 b 553 1072 503 1081 526 1072 b 623 1103 581 1072 604 1082 b 651 1174 642 1123 651 1147 z "},"ż":{"ha":667,"x_min":0,"x_max":0,"o":"m -28 0 l 544 0 l 568 133 l 196 133 l 628 524 l 653 667 l 115 667 l 93 536 l 432 536 l -3 143 z m 521 896 b 494 966 521 925 512 949 b 426 992 476 983 453 992 b 356 963 400 992 376 982 b 325 890 335 944 325 920 b 353 819 325 860 334 836 b 422 794 372 803 395 794 b 492 825 450 794 473 805 b 521 896 511 845 521 869 z "},"ƒ":{"ha":847,"x_min":0,"x_max":0,"o":"m 781 831 l 867 957 b 794 989 843 971 818 981 b 713 1000 769 996 742 1000 b 606 980 672 1000 636 993 b 525 925 575 966 548 948 b 465 844 502 902 482 875 b 419 747 447 814 432 781 l 361 592 l 181 592 l 158 468 l 315 468 l 175 90 b 122 -13 159 49 141 14 b 38 -54 102 -41 74 -54 b -25 -35 13 -54 -7 -48 l -108 -160 b 26 -193 -69 -182 -25 -193 b 208 -130 99 -193 159 -172 b 329 64 256 -88 297 -23 l 481 468 l 671 468 l 692 592 l 524 592 l 569 711 b 590 760 576 727 583 743 b 617 806 598 776 607 792 b 655 840 628 819 641 831 b 708 853 669 848 687 853 b 781 831 734 853 758 845 z "},"Ș":{"ha":797,"x_min":0,"x_max":0,"o":"m 654 781 l 779 881 b 724 936 764 902 746 920 b 655 976 703 952 679 965 b 578 1000 630 986 605 994 b 501 1008 552 1006 526 1008 b 362 988 453 1008 407 1002 b 243 929 317 975 277 955 b 160 833 209 903 181 871 b 129 703 140 795 129 752 b 147 604 129 665 135 632 b 194 533 158 576 174 553 b 265 482 215 513 238 496 b 349 444 291 468 319 456 b 417 417 373 436 395 427 b 473 382 438 406 457 395 b 512 337 489 369 502 354 b 526 278 522 320 526 300 b 509 203 526 248 521 223 b 465 155 497 184 483 167 b 403 128 447 142 426 133 b 335 119 381 122 358 119 b 210 151 289 119 248 130 b 126 231 173 172 145 198 l -12 135 b 52 63 5 107 27 83 b 135 14 78 43 105 27 b 228 -15 164 1 196 -9 b 326 -25 261 -22 294 -25 b 464 -8 373 -25 419 -19 b 586 47 509 4 550 22 b 674 144 622 72 651 105 b 707 289 696 184 707 232 b 638 467 707 364 684 423 b 439 581 591 511 525 549 b 340 633 397 596 364 614 b 303 715 315 653 303 680 b 321 786 303 743 309 767 b 366 833 333 806 348 821 b 425 858 384 844 404 853 b 483 867 446 864 466 867 b 581 846 519 867 551 860 b 654 781 611 832 636 810 z m 231 -333 l 401 -62 l 243 -62 l 94 -333 z "},"ș":{"ha":617,"x_min":0,"x_max":0,"o":"m 93 192 l -33 108 b 67 13 -10 70 23 39 b 242 -25 111 -12 169 -25 b 352 -10 281 -25 317 -20 b 444 33 387 -1 417 14 b 507 105 470 53 491 77 b 531 203 523 133 531 166 b 479 331 531 258 513 301 b 335 403 445 361 397 385 b 255 433 300 413 273 423 b 228 481 237 444 228 459 b 238 518 228 495 231 508 b 265 542 245 528 254 536 b 303 556 276 548 289 553 b 346 560 318 558 332 560 b 425 541 379 560 406 553 b 472 494 444 528 460 513 l 599 569 b 499 656 575 608 541 637 b 358 685 457 675 410 685 b 243 669 317 685 278 679 b 151 624 208 658 177 643 b 90 554 125 604 105 581 b 68 465 75 527 68 498 b 80 400 68 440 72 419 b 115 351 88 381 100 365 b 174 313 131 336 151 324 b 257 282 198 303 225 292 b 344 245 297 269 326 257 b 371 192 362 234 371 216 b 337 131 371 166 359 145 b 246 108 314 116 284 108 b 155 130 213 108 182 116 b 93 192 128 144 107 165 z m 125 -333 l 296 -62 l 138 -62 l -11 -333 z "},"Ț":{"ha":740,"x_min":0,"x_max":0,"o":"m 528 833 l 817 833 l 843 983 l 90 983 l 64 833 l 356 833 l 210 0 l 381 0 z m 204 -333 l 375 -62 l 217 -62 l 68 -333 z "},"ț":{"ha":472,"x_min":0,"x_max":0,"o":"m 26 535 l 144 535 l 88 225 b 81 183 85 212 83 198 b 79 140 80 167 79 153 b 124 28 79 94 94 57 b 274 -14 153 0 203 -14 b 326 -9 289 -14 307 -12 b 375 4 345 -6 361 -1 l 385 128 b 355 121 375 125 366 123 b 322 118 344 119 333 118 b 265 132 298 118 279 123 b 243 182 250 141 243 158 b 247 221 243 194 244 207 l 306 535 l 453 535 l 476 667 l 326 667 l 360 861 l 199 861 l 165 667 l 50 667 z m 101 -333 l 272 -62 l 114 -62 l -35 -333 z "},"ˆ":{"ha":361,"x_min":0,"x_max":0,"o":"m 343 783 l 493 783 l 371 983 l 188 983 l -7 783 l 149 783 l 268 910 z "},"ˇ":{"ha":361,"x_min":0,"x_max":0,"o":"m 333 783 l 528 983 l 374 983 l 254 857 l 181 983 l 29 983 l 151 783 z "},"ˉ":{"ha":361,"x_min":0,"x_max":0,"o":"m 31 1104 l 471 1104 l 490 1211 l 49 1211 z "},"˘":{"ha":361,"x_min":0,"x_max":0,"o":"m 513 983 l 513 983 l 422 983 b 362 908 409 944 389 919 b 263 890 334 896 301 890 b 172 910 227 890 197 897 b 135 983 147 924 135 948 l 43 983 b 99 832 43 914 62 863 b 253 785 136 800 187 785 b 419 833 319 785 374 801 b 513 983 465 866 496 916 z "},"˙":{"ha":361,"x_min":0,"x_max":0,"o":"m 364 896 b 337 966 364 925 355 949 b 269 992 319 983 296 992 b 199 963 243 992 219 982 b 168 890 178 944 168 920 b 197 819 168 860 178 836 b 265 794 216 803 238 794 b 335 825 293 794 316 805 b 364 896 354 845 364 869 z "},"˚":{"ha":361,"x_min":0,"x_max":0,"o":"m 250 768 b 364 815 296 768 334 784 b 408 932 394 846 408 885 b 374 1017 408 966 397 994 b 285 1050 352 1039 322 1050 b 221 1038 262 1050 240 1046 b 170 1003 201 1029 184 1018 b 137 951 156 988 145 971 b 125 888 129 931 125 910 b 160 802 125 853 137 825 b 250 768 183 779 213 768 z m 340 919 b 317 855 340 894 332 872 b 254 829 301 838 280 829 b 209 849 235 829 220 836 b 193 896 198 862 193 877 b 217 963 193 923 201 945 b 278 989 232 980 253 989 b 324 968 297 989 313 982 b 340 919 335 954 340 938 z "},"˛":{"ha":361,"x_min":0,"x_max":0,"o":"m 158 -271 l 158 -271 l 136 -204 b 99 -225 125 -212 113 -219 b 58 -233 86 -231 72 -233 b 3 -185 21 -233 3 -217 b 17 -133 3 -168 7 -151 b 51 -82 26 -116 38 -99 b 98 -34 65 -65 81 -49 b 149 8 115 -19 132 -5 l 65 8 b 5 -37 46 -6 26 -21 b -51 -90 -16 -54 -35 -72 b -93 -149 -68 -109 -82 -128 b -110 -212 -104 -170 -110 -191 b -77 -297 -110 -250 -99 -278 b 11 -324 -55 -315 -26 -324 b 89 -309 39 -324 65 -319 b 158 -271 113 -299 136 -287 z "},"˜":{"ha":361,"x_min":0,"x_max":0,"o":"m -10 789 l 82 789 b 111 832 89 805 99 819 b 157 851 123 845 138 851 b 201 843 171 851 186 849 b 251 822 217 838 234 831 b 297 805 266 815 281 809 b 347 799 313 801 330 799 b 416 813 373 799 396 803 b 468 852 436 823 453 836 b 506 908 483 868 496 887 b 533 972 517 928 526 950 l 442 972 b 413 930 434 956 425 942 b 368 911 402 917 387 911 b 327 919 355 911 341 914 b 282 938 313 924 298 930 b 232 956 266 945 250 951 b 178 963 214 960 196 963 b 109 948 152 963 129 958 b 56 909 89 938 72 925 b 17 853 41 893 28 874 b -10 789 7 833 -2 811 z "},"˝":{"ha":361,"x_min":0,"x_max":0,"o":"m 444 783 l 675 983 l 489 983 l 315 783 z m 160 783 l 390 983 l 204 983 l 32 783 z "},"–":{"ha":556,"x_min":0,"x_max":0,"o":"m 503 278 l 525 406 l 53 406 l 31 278 z "},"—":{"ha":833,"x_min":0,"x_max":0,"o":"m 781 278 l 803 406 l 53 406 l 31 278 z "},"‘":{"ha":372,"x_min":0,"x_max":0,"o":"m 250 618 l 411 983 l 275 983 l 93 618 z "},"’":{"ha":372,"x_min":0,"x_max":0,"o":"m 229 618 l 411 983 l 254 983 l 93 618 z "},"‚":{"ha":372,"x_min":0,"x_max":0,"o":"m 89 -176 l 272 189 l 114 189 l -47 -176 z "},"“":{"ha":640,"x_min":0,"x_max":0,"o":"m 519 618 l 681 983 l 543 983 l 361 618 z m 250 618 l 411 983 l 275 983 l 93 618 z "},"”":{"ha":640,"x_min":0,"x_max":0,"o":"m 499 618 l 681 983 l 522 983 l 361 618 z m 229 618 l 411 983 l 254 983 l 93 618 z "}}}
